<?xml version="1.0" standalone="no"?>
<!DOCTYPE svg PUBLIC "-//W3C//DTD SVG 1.1//EN" "http://www.w3.org/Graphics/SVG/1.1/DTD/svg11.dtd" >
<svg>
<metadata>
Created by FontForge 20120731 at Fri Dec  1 15:12:11 2017
 By Apache
Stem is a geometric sans-serif with semi-closed aperture and large x-height. 12 faces of it, including upright and true italic faces of different weights, are intended primarily for large point sizes. The Stem family will be supplemented with faces for text and caption setting. Design -- Alexandra Korolkova with the assistance of Maria Selezeneva and Isabella Chaeva. Released by ParaType in 2014.
</metadata>
<defs>
<font id="Stem-MediumItalic" horiz-adv-x="620" >
  <font-face 
    font-family="Stem Medium"
    font-weight="500"
    font-style="italic"
    font-stretch="normal"
    units-per-em="1000"
    panose-1="2 11 6 3 2 2 3 9 2 4"
    ascent="779"
    descent="-221"
    x-height="520"
    cap-height="700"
    bbox="-360 -278 1355 962"
    underline-thickness="50"
    underline-position="-50"
    slope="-11"
    stemh="109"
    stemv="102"
    unicode-range="U+0020-FEFF"
  />
<missing-glyph horiz-adv-x="236" 
 />
    <glyph glyph-name="uniF350.var.accented" unicode="&#xf350;`" horiz-adv-x="575" 
d="M122 0h-124l352 560h83l145 -560h-115l-28 109h-245zM410 208l-47 176l-114 -176h161zM484 833l73 -64l-149 -157l-64 54z" />
    <glyph glyph-name="uniF355.var.accented" unicode="&#xf355;`" horiz-adv-x="522" 
d="M488 0h-433l104 560h425l-20 -109h-314l-21 -114h293l-19 -106h-294l-23 -122h322zM465 833l73 -64l-149 -157l-64 54z" />
    <glyph glyph-name="uniF358.var.accented" unicode="&#xf358;`" horiz-adv-x="606" 
d="M504 352l-358 -352h-91l104 560h111l-65 -351l356 351h94l-104 -560h-111zM490 833l73 -64l-149 -157l-64 54z" />
    <glyph glyph-name="uniF35E.var.accented" unicode="&#xf35e;`" horiz-adv-x="632" 
d="M72 240c0 89 32 166 96 230s145 96 243 96c75 0 136 -23 183 -68c46 -45 69 -104 69 -177c0 -89 -32 -166 -95 -230c-64 -65 -145 -97 -243 -97c-76 0 -137 23 -183 68c-47 45 -70 105 -70 178zM190 251c0 -87 62 -144 146 -144c57 0 106 19 147 57c41 37 62 86 62 145
c0 88 -62 144 -145 144c-55 0 -104 -19 -146 -56c-43 -38 -64 -87 -64 -146zM519 833l73 -64l-149 -157l-64 54z" />
    <glyph glyph-name="uniF363.var.accented" unicode="&#xf363;`" horiz-adv-x="579" 
d="M162 17l48 98c3 -3 11 -5 22 -5c17 0 35 13 55 40l4 5l-187 405h124l133 -293l193 293h129l-281 -429c-60 -91 -107 -131 -171 -131c-27 0 -50 6 -69 17zM488 833l73 -64l-149 -157l-64 54z" />
    <glyph glyph-name="uniF36B.var.accented" unicode="&#xf36b;`" horiz-adv-x="705" 
d="M651 0h-111l103 560h111zM307 261h-92l-29 -152h90c97 0 140 26 140 91c0 41 -36 61 -109 61zM159 560h111l-35 -189h94c137 0 205 -53 205 -158c0 -142 -93 -213 -280 -213h-199zM519 833l73 -64l-149 -157l-64 54z" />
    <glyph glyph-name="uniF36D.var.accented" unicode="&#xf36d;`" horiz-adv-x="568" 
d="M470 231h-262l21 109h252c-4 68 -54 117 -146 117c-72 0 -132 -24 -181 -73l-64 77c49 61 146 105 253 105c168 0 258 -91 258 -250c0 -93 -31 -170 -93 -231s-144 -91 -246 -91c-116 0 -196 39 -240 117l88 67c44 -55 81 -75 162 -75c109 0 174 55 198 128zM450 833
l73 -64l-149 -157l-64 54z" />
    <glyph glyph-name="uniF36E.var.accented" unicode="&#xf36e;`" horiz-adv-x="818" 
d="M166 0h-111l104 560h111l-42 -225h63c23 72 63 129 122 170c58 41 121 61 189 61c75 0 135 -22 180 -66s68 -100 68 -168c0 -103 -30 -185 -90 -246c-61 -61 -139 -92 -236 -92c-75 0 -135 23 -180 68s-67 103 -67 173h-67zM393 247c0 -87 55 -144 138 -144
c131 0 201 85 201 208c0 91 -52 146 -144 146c-52 0 -97 -20 -136 -60s-59 -90 -59 -150zM623 833l73 -64l-149 -157l-64 54z" />
    <glyph glyph-name="uniF36F.var.accented" unicode="&#xf36f;`" horiz-adv-x="561" 
d="M507 0h-111l35 188h-98l-187 -188h-145l210 209c-70 27 -105 75 -105 146c0 63 24 113 73 150c48 37 110 55 187 55h245zM314 297h137l29 154h-129c-85 0 -128 -29 -128 -87c0 -39 35 -66 91 -67zM484 833l73 -64l-149 -157l-64 54z" />
    <glyph glyph-name="uniF371.var.accented" unicode="&#xf371;`" horiz-adv-x="522" 
d="M421 819l84 -35l-117 -159l-53 25zM488 0h-433l104 560h425l-20 -109h-314l-21 -114h293l-19 -106h-294l-23 -122h322zM224 655c-23 23 -23 61 0 84s61 23 84 0s23 -61 0 -84s-61 -23 -84 0zM497 655c-23 23 -23 61 0 84s61 23 84 0s23 -61 0 -84s-61 -23 -84 0z" />
    <glyph glyph-name="afii10017.var.accented" unicode="&#x410;`" horiz-adv-x="669" 
d="M128 0h-129l421 700h87l163 -700h-118l-36 155h-297zM492 259l-60 260l-152 -260h212zM630 949l41 -96l-224 -108l-36 72z" />
    <glyph glyph-name="afii10022.var.accented" unicode="&#x415;`" horiz-adv-x="613" 
d="M570 0h-504l130 700h494l-21 -114h-379l-33 -176h355l-21 -110h-354l-35 -186h389zM611 949l41 -96l-224 -108l-36 72z" />
    <glyph glyph-name="afii10026.var.accented" unicode="&#x418;`" horiz-adv-x="710" 
d="M615 475l-453 -475h-96l129 700h116l-88 -476l452 476h97l-129 -700h-115zM646 949l41 -96l-224 -108l-36 72z" />
    <glyph glyph-name="afii10032.var.accented" unicode="&#x41e;`" horiz-adv-x="743" 
d="M89 290c0 117 38 216 113 297s170 121 287 121c89 0 160 -27 214 -80c53 -53 80 -126 80 -217c0 -117 -36 -216 -109 -297s-170 -122 -289 -122c-91 0 -163 27 -216 80s-80 125 -80 218zM211 307c0 -127 70 -199 183 -199c175 0 267 148 267 285c0 128 -68 199 -180 199
c-113 0 -201 -67 -240 -151c-20 -43 -30 -87 -30 -134zM649 949l41 -96l-224 -108l-36 72z" />
    <glyph glyph-name="afii10037.var.accented" unicode="&#x423;`" horiz-adv-x="672" 
d="M187 14l45 103c9 -5 19 -7 30 -7c23 0 51 27 84 81l-217 509h127l161 -393l248 393h136l-345 -538c-37 -58 -69 -100 -98 -126s-64 -39 -105 -39c-27 0 -49 6 -66 17zM636 949l41 -96l-224 -108l-36 72z" />
    <glyph glyph-name="afii10045.var.accented" unicode="&#x42b;`" horiz-adv-x="822" 
d="M756 0h-115l129 700h115zM369 340h-125l-42 -226h119c124 0 182 41 182 136c0 60 -45 90 -134 90zM196 700h115l-46 -247h124c158 0 237 -65 237 -196c0 -192 -148 -257 -330 -257h-230zM700 949l41 -96l-224 -108l-36 72z" />
    <glyph glyph-name="afii10047.var.accented" unicode="&#x42d;`" horiz-adv-x="666" 
d="M573 301h-323l21 113h318c3 112 -64 181 -187 181c-83 0 -156 -31 -219 -93l-67 77c77 86 177 129 300 129c188 0 293 -107 293 -283c0 -125 -36 -229 -109 -310c-73 -82 -172 -123 -296 -123c-135 0 -225 46 -272 139l87 69c52 -72 112 -95 195 -95c71 0 128 19 172 57
s73 84 87 139zM582 949l41 -96l-224 -108l-36 72z" />
    <glyph glyph-name="afii10048.var.accented" unicode="&#x42e;`" horiz-adv-x="947" 
d="M181 0h-115l130 700h115l-54 -291h77c25 87 70 159 134 215s143 84 237 84c90 0 160 -26 209 -79s74 -124 74 -211c0 -119 -35 -219 -106 -302s-163 -124 -275 -124c-95 0 -169 30 -221 90c-52 59 -75 133 -69 222h-80zM439 302c0 -119 69 -197 178 -197
c74 0 134 29 180 88c46 58 69 127 69 208c0 117 -64 194 -167 194c-79 0 -142 -30 -189 -89s-71 -127 -71 -204zM836 949l41 -96l-224 -108l-36 72z" />
    <glyph glyph-name="afii10049.var.accented" unicode="&#x42f;`" horiz-adv-x="656" 
d="M590 0h-115l46 246h-138l-232 -246h-148l255 267c-84 31 -126 91 -126 179c0 81 29 143 87 188c58 44 134 66 229 66h271zM366 359h175l42 228h-164c-112 0 -164 -54 -164 -131c0 -55 40 -93 111 -97zM643 949l41 -96l-224 -108l-36 72z" />
    <glyph glyph-name="afii10023.var.accented" unicode="&#x401;`" horiz-adv-x="613" 
d="M484 950l87 -40l-104 -145l-59 25zM570 0h-504l130 700h494l-21 -114h-379l-33 -176h355l-21 -110h-354l-35 -186h389zM278 778c-25 24 -25 62 0 87c24 24 62 24 87 0c24 -25 24 -63 0 -87c-25 -25 -63 -25 -87 0zM576 778c-24 24 -24 62 0 87c24 24 64 24 88 0
c24 -25 24 -63 0 -87c-24 -25 -64 -25 -88 0z" />
    <glyph glyph-name="afii10065.var.accented" unicode="&#x430;`" horiz-adv-x="571" 
d="M490 0h-101l13 63c-25 -35 -87 -69 -159 -69c-120 0 -195 84 -195 207c0 99 31 179 93 240c61 61 131 91 209 91c60 0 103 -12 129 -35l4 23h104zM279 99c56 0 110 38 138 83l41 203c-19 28 -55 42 -106 42s-96 -19 -133 -58c-38 -39 -57 -90 -57 -151
c0 -79 45 -119 117 -119zM468 819l73 -64l-149 -157l-64 54z" />
    <glyph glyph-name="afii10070.var.accented" unicode="&#x435;`" horiz-adv-x="533" 
d="M435 159l64 -63c-49 -72 -139 -105 -231 -105c-65 0 -118 20 -159 61c-41 40 -61 93 -61 160c0 91 31 167 92 228s133 92 215 92c117 0 184 -50 184 -143c0 -56 -25 -100 -76 -133s-118 -49 -200 -49c-36 0 -70 3 -101 8c5 -76 54 -119 127 -119c61 0 110 21 146 63z
M347 427c-72 0 -141 -49 -170 -121c24 -3 51 -5 80 -5c108 0 168 35 168 76c0 33 -26 50 -78 50zM494 819l73 -64l-149 -157l-64 54z" />
    <glyph glyph-name="afii10074.var.accented" unicode="&#x438;`" horiz-adv-x="550" 
d="M460 520h108l-98 -520h-108l10 55c-44 -43 -96 -64 -155 -64c-105 0 -168 55 -168 147c0 23 3 51 10 86l62 296h108l-60 -285c-4 -23 -6 -42 -6 -57c1 -55 24 -82 85 -82c59 0 108 30 148 91zM498 819l73 -64l-149 -157l-64 54z" />
    <glyph glyph-name="afii10080.var.accented" unicode="&#x43e;`" horiz-adv-x="589" 
d="M48 206c0 95 31 173 92 234s135 92 221 92c69 0 125 -20 166 -61s62 -92 62 -155c0 -95 -29 -173 -88 -234s-132 -91 -219 -91c-72 0 -129 20 -171 61c-42 40 -63 91 -63 154zM162 229c0 -81 50 -132 134 -132c47 0 88 19 125 57c36 38 54 87 54 147
c0 77 -50 125 -127 125c-46 0 -88 -19 -127 -56s-59 -84 -59 -141zM507 819l73 -64l-149 -157l-64 54z" />
    <glyph glyph-name="afii10085.var.accented" unicode="&#x443;`" horiz-adv-x="504" 
d="M0 -192l57 95c6 -4 13 -6 21 -6c26 0 57 31 92 92l26 47l-151 484h120l105 -351l196 351h122l-288 -505c-49 -85 -90 -143 -123 -176c-34 -32 -71 -48 -110 -48c-28 0 -50 6 -67 17zM476 819l73 -64l-149 -157l-64 54z" />
    <glyph glyph-name="afii10093.var.accented" unicode="&#x44b;`" horiz-adv-x="672" 
d="M213 0h-181l96 520h108l-28 -151h72c139 0 193 -50 193 -145c0 -137 -95 -224 -260 -224zM262 269h-73l-31 -169h76c79 0 126 41 126 104c0 43 -33 65 -98 65zM592 0h-107l96 520h107zM521 819l73 -64l-149 -157l-64 54z" />
    <glyph glyph-name="afii10095.var.accented" unicode="&#x44d;`" horiz-adv-x="522" 
d="M395 216h-232l19 99h229c-1 75 -43 112 -128 112c-55 0 -116 -25 -159 -77l-69 68c65 76 146 114 242 114c151 0 225 -89 225 -216c0 -99 -29 -178 -88 -237c-59 -60 -134 -90 -224 -90c-102 0 -171 39 -208 118l84 57c28 -47 69 -70 124 -70c93 0 161 47 185 122z
M440 819l73 -64l-149 -157l-64 54z" />
    <glyph glyph-name="afii10096.var.accented" unicode="&#x44e;`" horiz-adv-x="773" 
d="M140 0h-108l96 520h108l-38 -202h74c20 65 56 117 109 156c52 39 109 58 172 58c71 0 125 -20 163 -59c38 -40 57 -90 57 -150c0 -105 -29 -186 -86 -244c-58 -59 -128 -88 -209 -88c-137 0 -226 84 -225 224h-74zM365 220c0 -73 49 -124 125 -124c45 0 85 19 119 56
c33 37 50 86 50 147c0 79 -43 128 -120 128c-46 0 -86 -20 -121 -59s-53 -89 -53 -148zM619 819l73 -64l-149 -157l-64 54z" />
    <glyph glyph-name="afii10097.var.accented" unicode="&#x44f;`" horiz-adv-x="518" 
d="M330 520h204l-99 -520h-107l33 171h-87l-159 -171h-131l177 190c-55 21 -87 73 -87 133c0 56 21 103 64 141c43 37 107 56 192 56zM188 335c0 -37 26 -64 81 -64h109l30 149h-105c-69 0 -115 -37 -115 -85zM496 819l73 -64l-149 -157l-64 54z" />
    <glyph glyph-name="afii10071.var.accented" unicode="&#x451;`" horiz-adv-x="533" 
d="M435 159l64 -63c-49 -72 -139 -105 -231 -105c-65 0 -118 20 -159 61c-41 40 -61 93 -61 160c0 91 31 167 92 228s133 92 215 92c117 0 184 -50 184 -143c0 -56 -25 -100 -76 -133s-118 -49 -200 -49c-36 0 -70 3 -101 8c5 -76 54 -119 127 -119c61 0 110 21 146 63z
M347 427c-72 0 -141 -49 -170 -121c24 -3 51 -5 80 -5c108 0 168 35 168 76c0 33 -26 50 -78 50zM415 793l83 -36l-111 -159l-54 24zM219 628c-23 23 -23 61 0 85c23 23 61 23 85 0c23 -24 23 -62 0 -85c-24 -23 -62 -23 -85 0zM494 628c-23 23 -23 61 0 85
c23 23 61 23 85 0c23 -24 23 -62 0 -85c-24 -23 -62 -23 -85 0z" />
    <glyph glyph-name="fi" unicode="fi" horiz-adv-x="521" 
d="M122 414h-80l19 106h81l3 17c25 139 110 201 209 201c28 0 47 -4 58 -13l-44 -101c-6 5 -15 8 -28 8c-47 0 -77 -33 -88 -98l-3 -14h127l-21 -106h-125l-76 -414h-108zM433 0h-108l96 520h108zM456 627c-24 23 -24 61 0 85c23 24 63 24 88 0c41 -36 10 -106 -45 -102
c-17 0 -32 6 -43 17z" />
    <glyph glyph-name="fl" unicode="fl" horiz-adv-x="480" 
d="M402 0h-108l106 609c-11 15 -29 23 -55 23c-45 0 -75 -33 -88 -98l-3 -14h80l-19 -100h-79l-72 -420h-108l72 420h-80l19 100h80l2 17c21 124 98 201 210 201c39 0 70 -11 93 -32l80 29z" />
    <glyph glyph-name=".notdef" horiz-adv-x="236" 
 />
    <glyph glyph-name="NULL" horiz-adv-x="0" 
 />
    <glyph glyph-name="nonmarkingreturn" horiz-adv-x="333" 
 />
    <glyph glyph-name="space" unicode=" " horiz-adv-x="236" 
 />
    <glyph glyph-name="exclam" unicode="!" horiz-adv-x="294" 
d="M243 215h-112l89 485h112zM82 62c0 48 40 84 88 84c40 0 67 -31 67 -64c0 -48 -39 -84 -88 -84c-43 0 -67 28 -67 64z" />
    <glyph glyph-name="quotedbl" unicode="&#x22;" horiz-adv-x="418" 
d="M263 452h-110l46 248h110zM432 452h-110l46 248h110z" />
    <glyph glyph-name="numbersign" unicode="#" horiz-adv-x="672" 
d="M369 -17l-91 33l93 175h-115l-112 -208l-91 33l94 175h-74l18 99h109l67 120h-153l18 99h187l111 208l92 -33l-95 -175h116l111 208l91 -32l-95 -176h78l-18 -99h-112l-66 -120h155l-18 -99h-190zM489 410h-115l-66 -120h118z" />
    <glyph glyph-name="dollar" unicode="$" horiz-adv-x="589" 
d="M484 202c0 68 -89 82 -178 112c-90 26 -179 65 -179 176c0 63 23 113 68 150s103 58 172 65l14 78h109l-14 -78c85 -9 148 -42 191 -97l-77 -84c-45 47 -107 71 -186 71c-103 0 -155 -30 -155 -89c0 -71 129 -92 231 -129c70 -26 126 -81 126 -161
c0 -68 -24 -122 -73 -162s-112 -60 -188 -60l-16 -86h-110l17 91c-87 16 -158 65 -194 124l79 79c44 -63 124 -97 219 -97c88 0 144 38 144 97z" />
    <glyph glyph-name="percent" unicode="%" horiz-adv-x="907" 
d="M304 -20l-90 52l514 696l86 -62zM97 525c0 52 18 95 55 128c36 33 82 50 137 50s100 -17 137 -50c36 -33 54 -76 54 -128c0 -51 -18 -94 -54 -127c-37 -33 -82 -50 -137 -50s-100 17 -137 50s-55 76 -55 127zM233 584c-31 -30 -31 -87 1 -118c15 -15 34 -23 55 -23
c44 0 78 33 78 82c0 48 -35 81 -78 81c-22 0 -41 -7 -56 -22zM547 174c0 52 18 95 55 128c36 33 82 49 137 49s100 -16 137 -49c36 -33 54 -76 54 -128c0 -51 -18 -94 -54 -127c-37 -34 -82 -51 -137 -51s-100 17 -137 51c-37 33 -55 76 -55 127zM683 233
c-31 -31 -31 -87 1 -117c31 -30 79 -30 110 0s31 86 0 117c-15 15 -34 23 -55 23c-22 0 -41 -8 -56 -23z" />
    <glyph glyph-name="ampersand" unicode="&#x26;" horiz-adv-x="744" 
d="M741 0h-146c-13 11 -36 36 -70 77c-66 -57 -143 -86 -230 -86c-63 0 -115 15 -157 46c-43 31 -64 74 -64 131c0 49 23 97 51 129c13 16 32 33 56 50c50 37 71 48 130 79c-25 43 -37 84 -37 124c0 100 66 159 175 159c99 0 148 -38 148 -115c0 -67 -47 -130 -142 -189
c15 -39 49 -95 100 -166c57 65 94 147 111 244h110c-11 -59 -31 -119 -60 -181s-64 -113 -103 -153c35 -53 78 -102 128 -149zM314 100c59 0 116 24 148 57c-54 82 -91 143 -112 183c-57 -34 -97 -61 -118 -80c-22 -20 -33 -44 -33 -71c0 -57 46 -89 115 -89zM389 552
c0 -14 8 -36 23 -65c43 28 64 56 64 85c0 24 -11 36 -34 36c-33 0 -53 -21 -53 -56z" />
    <glyph glyph-name="quotesingle" unicode="'" horiz-adv-x="249" 
d="M263 452h-110l46 248h110z" />
    <glyph glyph-name="parenleft" unicode="(" horiz-adv-x="325" 
d="M288 -140l-83 -62c-90 109 -135 235 -135 376c0 203 102 388 307 554l64 -71c-173 -144 -259 -300 -259 -468c0 -122 35 -232 106 -329z" />
    <glyph glyph-name="parenright" unicode=")" horiz-adv-x="324" 
d="M133 666l83 62c90 -109 135 -235 135 -376c0 -203 -102 -388 -307 -554l-64 71c173 144 259 300 259 468c0 122 -35 232 -106 329z" />
    <glyph glyph-name="asterisk" unicode="*" horiz-adv-x="500" 
d="M254 700h115l-5 -123l119 43l33 -107l-121 -34l79 -99l-96 -69l-68 100l-68 -101l-96 69l79 101l-121 34l33 107l121 -43z" />
    <glyph glyph-name="plus" unicode="+" horiz-adv-x="599" 
d="M306 309h-182v101h182v182h106v-182h184v-101h-184v-184h-106v184z" />
    <glyph glyph-name="comma" unicode="," horiz-adv-x="241" 
d="M113 0c-37 -3 -58 28 -58 63c0 44 36 83 83 83s71 -27 71 -80c0 -55 -18 -101 -54 -138c-36 -36 -78 -59 -127 -70l-15 66c17 3 37 13 60 29c23 17 36 32 40 47z" />
    <glyph glyph-name="hyphen" unicode="-" horiz-adv-x="416" 
d="M407 227h-278v101h278v-101z" />
    <glyph glyph-name="period" unicode="." horiz-adv-x="251" 
d="M105 73c0 37 34 73 81 73c44 0 80 -37 80 -73c0 -40 -35 -75 -80 -75c-48 0 -81 35 -81 75z" />
    <glyph glyph-name="slash" unicode="/" horiz-adv-x="357" 
d="M124 -203l-101 39l328 881l102 -33z" />
    <glyph glyph-name="zero" unicode="0" horiz-adv-x="646" 
d="M90 268c0 163 50 297 159 378c55 41 120 61 195 61c159 0 241 -108 241 -275c0 -125 -31 -230 -93 -313c-62 -84 -149 -126 -261 -126c-157 0 -241 108 -241 275zM209 283c0 -117 45 -175 135 -175c73 0 129 31 166 92s56 135 56 222c0 113 -45 170 -135 170
c-69 0 -123 -29 -162 -87c-40 -58 -60 -132 -60 -222z" />
    <glyph glyph-name="one" unicode="1" horiz-adv-x="377" 
d="M133 480l-23 108l244 114h73l-130 -702h-110l101 550z" />
    <glyph glyph-name="two" unicode="2" horiz-adv-x="587" 
d="M223 476l-99 44c56 125 151 187 285 187c147 0 221 -70 221 -189c0 -65 -21 -123 -64 -174s-122 -113 -236 -186l-85 -46h330l-21 -112h-516l16 89l172 115c8 6 25 18 52 37s46 32 57 41c11 8 28 21 51 38c22 17 38 32 49 44c36 38 77 92 71 137c0 56 -38 90 -105 90
c-84 0 -134 -38 -178 -115z" />
    <glyph glyph-name="three" unicode="3" horiz-adv-x="579" 
d="M226 500l-91 52c47 97 147 157 271 157c145 0 230 -60 230 -171c0 -76 -50 -142 -139 -169c65 -19 97 -65 97 -139c0 -72 -26 -130 -78 -173s-121 -65 -206 -65c-65 0 -122 15 -170 44c-49 29 -77 72 -85 131l105 42c16 -64 76 -101 160 -101c97 0 153 43 153 111
c0 63 -54 84 -147 84h-65l20 110h69c104 0 163 42 163 102c0 53 -46 80 -118 80c-73 0 -129 -32 -169 -95z" />
    <glyph glyph-name="four" unicode="4" horiz-adv-x="635" 
d="M504 0h-111l25 133h-376l14 78l483 489h95l-85 -460h113l-20 -107h-113zM485 500l-263 -260h216z" />
    <glyph glyph-name="five" unicode="5" horiz-adv-x="579" 
d="M207 307l-94 10l102 383h434l-21 -113h-334l-43 -155c35 17 75 25 122 25c140 0 212 -74 212 -202c0 -78 -27 -141 -81 -190c-55 -49 -124 -73 -208 -73c-125 0 -220 55 -240 172l109 39c15 -63 63 -95 144 -95c93 0 156 57 156 138c0 64 -46 102 -125 102
c-52 0 -96 -14 -133 -41z" />
    <glyph glyph-name="six" unicode="6" horiz-adv-x="633" 
d="M87 266c0 164 57 301 177 382c60 41 131 61 212 61c96 0 165 -30 208 -91l-77 -83c-40 38 -89 57 -146 57s-109 -19 -155 -58s-75 -93 -88 -163c53 64 140 107 221 107c140 0 215 -74 215 -203c0 -86 -29 -155 -86 -206c-58 -52 -130 -78 -216 -78
c-171 0 -265 96 -265 275zM215 255c-4 -83 41 -148 148 -148c109 0 170 67 170 154c0 67 -44 104 -127 104c-39 0 -77 -12 -116 -36c-39 -25 -64 -49 -75 -74z" />
    <glyph glyph-name="seven" unicode="7" horiz-adv-x="545" 
d="M491 587h-368l20 113h517l-14 -76l-428 -624h-133z" />
    <glyph glyph-name="eight" unicode="8" horiz-adv-x="644" 
d="M384 411h27c89 0 150 42 150 101c0 57 -43 86 -130 86c-93 0 -162 -35 -162 -103c0 -49 44 -84 115 -84zM390 308h-22c-101 0 -173 -42 -173 -111c0 -60 53 -96 148 -96c111 0 186 46 186 115c0 59 -50 92 -139 92zM335 -8c-160 0 -262 68 -262 191c0 85 62 155 143 183
c-45 27 -67 69 -67 126c0 69 28 123 85 160s128 56 214 56c153 0 235 -64 235 -176c0 -82 -43 -139 -130 -170c65 -19 97 -69 97 -132c0 -71 -28 -128 -85 -172s-133 -66 -230 -66z" />
    <glyph glyph-name="nine" unicode="9" horiz-adv-x="627" 
d="M669 445c0 -134 -34 -243 -103 -327c-69 -85 -160 -127 -274 -127c-100 0 -173 38 -210 91l79 85c36 -39 84 -59 144 -59c59 0 109 18 150 55s68 85 79 144c-48 -48 -123 -81 -202 -81c-133 0 -224 73 -224 202c0 83 31 151 93 203s137 78 224 78c152 0 244 -96 244 -264
zM543 432c7 40 -1 77 -26 111c-25 33 -62 50 -113 50c-48 0 -89 -14 -123 -42s-51 -63 -51 -106c0 -72 47 -110 120 -110c43 0 84 10 121 31c37 20 61 42 72 66z" />
    <glyph glyph-name="colon" unicode=":" horiz-adv-x="305" 
d="M88 62c0 48 40 84 88 84c40 0 67 -31 67 -64c0 -48 -39 -84 -88 -84c-43 0 -67 28 -67 64zM158 436c0 48 40 84 88 84c40 0 67 -31 67 -64c0 -48 -39 -84 -88 -84c-43 0 -67 28 -67 64z" />
    <glyph glyph-name="semicolon" unicode=";" horiz-adv-x="304" 
d="M158 436c0 48 40 84 88 84c40 0 67 -31 67 -64c0 -48 -39 -84 -88 -84c-43 0 -67 28 -67 64zM142 0c-37 -3 -58 28 -58 63c0 44 36 83 83 83s71 -27 71 -80c0 -55 -18 -101 -54 -138c-36 -36 -78 -59 -127 -70l-15 66c17 3 37 13 60 29c23 17 36 32 40 47z" />
    <glyph glyph-name="less" unicode="&#x3c;" horiz-adv-x="556" 
d="M541 176v-123l-453 285v47l453 282v-123l-295 -183z" />
    <glyph glyph-name="equal" unicode="=" horiz-adv-x="579" 
d="M516 402h-452v99h452v-99zM516 217h-452v99h452v-99z" />
    <glyph glyph-name="greater" unicode="&#x3e;" horiz-adv-x="556" 
d="M588 385v-47l-453 -285v123l297 185l-297 183v123z" />
    <glyph glyph-name="question" unicode="?" horiz-adv-x="579" 
d="M518 514c0 45 -37 78 -114 78c-85 0 -145 -38 -180 -115l-101 33c39 121 138 198 294 198c148 0 224 -67 224 -175c1 -121 -95 -171 -172 -202c-53 -23 -99 -48 -106 -83c-2 -10 -3 -21 -3 -34l-104 -1v20c0 107 95 146 170 179c51 23 92 55 92 102zM200 62
c0 48 40 84 88 84c40 0 67 -31 67 -64c0 -48 -39 -84 -88 -84c-43 0 -67 28 -67 64z" />
    <glyph glyph-name="at" unicode="@" horiz-adv-x="970" 
d="M732 0h-85v33c-30 -27 -70 -41 -121 -41c-66 0 -120 22 -162 67c-43 44 -64 102 -64 173c0 70 25 129 75 176s113 71 188 71c78 0 144 -20 198 -60v-313c73 11 110 69 110 174c0 87 -29 156 -88 207c-59 50 -135 75 -229 75c-95 0 -175 -31 -238 -92
c-64 -61 -96 -139 -96 -234c0 -93 31 -171 94 -233c63 -63 143 -94 240 -94c48 0 92 6 132 19l8 -103c-45 -13 -91 -19 -140 -19c-133 0 -240 41 -321 122c-81 82 -122 185 -122 308c0 125 42 227 125 308c83 80 189 120 318 120s232 -35 310 -105c77 -70 116 -162 116 -277
c0 -137 -82 -282 -248 -282zM546 94c39 0 81 26 101 58v202c-23 15 -52 23 -85 23c-41 0 -76 -14 -103 -42c-28 -29 -42 -64 -42 -107c0 -81 52 -134 129 -134z" />
    <glyph glyph-name="A" unicode="A" horiz-adv-x="669" 
d="M128 0h-129l421 700h87l163 -700h-118l-36 155h-297zM492 259l-60 260l-152 -260h212z" />
    <glyph glyph-name="B" unicode="B" horiz-adv-x="641" 
d="M348 0h-282l130 700h282c135 0 203 -55 203 -166c0 -73 -40 -138 -112 -169c51 -23 77 -67 77 -132c0 -79 -27 -137 -82 -175c-55 -39 -127 -58 -216 -58zM399 302h-162l-35 -188h154c112 0 168 36 168 108c0 56 -37 80 -125 80zM442 586h-152l-33 -174h165
c81 0 134 35 134 104c0 48 -33 70 -114 70z" />
    <glyph glyph-name="C" unicode="C" horiz-adv-x="657" 
d="M620 200l67 -84c-59 -71 -160 -124 -288 -124c-99 0 -175 28 -230 83s-82 129 -82 222c0 119 39 218 117 295c77 77 174 116 291 116c125 0 211 -48 246 -121l-82 -69c-43 49 -101 74 -173 74c-87 0 -155 -29 -203 -86c-49 -58 -73 -125 -73 -202
c0 -119 77 -196 194 -196c84 0 156 31 216 92z" />
    <glyph glyph-name="D" unicode="D" horiz-adv-x="680" 
d="M262 0h-196l130 700h208c113 0 194 -26 244 -79s75 -120 75 -203c0 -268 -161 -418 -461 -418zM381 586h-91l-88 -472h90c208 0 309 108 309 288c0 123 -64 184 -220 184z" />
    <glyph glyph-name="E" unicode="E" horiz-adv-x="613" 
d="M570 0h-504l130 700h494l-21 -114h-379l-33 -176h355l-21 -110h-354l-35 -186h389z" />
    <glyph glyph-name="F" unicode="F" horiz-adv-x="584" 
d="M181 0h-115l128 700h491l-21 -114h-374l-37 -198h349l-21 -114h-349z" />
    <glyph glyph-name="G" unicode="G" horiz-adv-x="679" 
d="M586 264h-177l21 110h287l-49 -278c-77 -69 -166 -104 -268 -104c-97 0 -174 27 -229 81s-83 127 -83 220c0 125 39 225 118 301s178 114 298 114c112 0 200 -42 237 -114l-83 -71c-39 46 -95 69 -170 69c-81 0 -147 -27 -199 -81c-53 -54 -79 -123 -79 -208
c0 -121 78 -195 198 -195c62 0 115 16 159 48z" />
    <glyph glyph-name="H" unicode="H" horiz-adv-x="712" 
d="M645 0h-116l55 297h-347l-56 -297h-115l130 700h115l-54 -289h348l53 289h116z" />
    <glyph glyph-name="I" unicode="I" horiz-adv-x="248" 
d="M181 0h-115l129 700h116z" />
    <glyph glyph-name="J" unicode="J" horiz-adv-x="462" 
d="M411 700h116l-89 -483c-13 -70 -38 -125 -73 -165s-90 -60 -163 -60c-96 0 -163 53 -184 132l90 63c21 -55 55 -82 101 -82c65 0 100 35 119 135z" />
    <glyph glyph-name="K" unicode="K" horiz-adv-x="646" 
d="M181 0h-115l130 700h115l-57 -307l339 307h166l-356 -319l249 -381h-142l-199 308l-87 -74z" />
    <glyph glyph-name="L" unicode="L" horiz-adv-x="568" 
d="M559 0h-493l129 700h116l-109 -586h377z" />
    <glyph glyph-name="M" unicode="M" horiz-adv-x="802" 
d="M181 0h-115l129 700h92l177 -322l287 322h113l-129 -700h-115l90 485l-254 -278h-29l-156 279z" />
    <glyph glyph-name="N" unicode="N" horiz-adv-x="701" 
d="M764 700l-129 -700h-90l-277 486l-89 -486h-113l130 700h89l276 -490l91 490h112z" />
    <glyph glyph-name="O" unicode="O" horiz-adv-x="743" 
d="M89 290c0 117 38 216 113 297s170 121 287 121c89 0 160 -27 214 -80c53 -53 80 -126 80 -217c0 -117 -36 -216 -109 -297s-170 -122 -289 -122c-91 0 -163 27 -216 80s-80 125 -80 218zM211 307c0 -127 70 -199 183 -199c175 0 267 148 267 285c0 128 -68 199 -180 199
c-113 0 -201 -67 -240 -151c-20 -43 -30 -87 -30 -134z" />
    <glyph glyph-name="P" unicode="P" horiz-adv-x="644" 
d="M226 240l-45 -240h-115l130 700h269c86 0 147 -18 184 -55s55 -85 55 -143c0 -78 -28 -141 -83 -189c-55 -49 -136 -73 -242 -73h-153zM447 587h-157l-43 -234h151c124 0 183 54 183 139c0 63 -45 95 -134 95z" />
    <glyph glyph-name="Q" unicode="Q" horiz-adv-x="743" 
d="M88 287c0 120 38 220 113 301c75 80 171 120 288 120c89 0 160 -28 214 -83c53 -55 80 -127 80 -214c0 -133 -48 -240 -145 -323l44 -76l-95 -62l-47 79c-53 -25 -106 -37 -158 -37c-90 0 -161 27 -214 82s-80 126 -80 213zM210 305c0 -59 17 -106 50 -142
c33 -37 77 -55 131 -55c36 0 69 7 100 20l-42 68l88 62l41 -70c56 56 84 125 84 207c0 117 -65 197 -181 197c-73 0 -137 -27 -190 -82c-54 -55 -81 -123 -81 -205z" />
    <glyph glyph-name="R" unicode="R" horiz-adv-x="649" 
d="M229 257l-48 -257h-115l130 700h261c163 0 227 -76 227 -191c0 -116 -72 -201 -189 -229l148 -280h-133l-131 257h-150zM433 586h-143l-40 -215h149c99 0 162 51 162 131c0 56 -43 84 -128 84z" />
    <glyph glyph-name="S" unicode="S" horiz-adv-x="599" 
d="M488 202c0 75 -128 94 -230 129c-70 24 -126 78 -126 159c0 68 27 121 81 160s122 58 205 58c110 0 193 -34 249 -103l-73 -80c-53 45 -101 70 -186 70c-41 0 -76 -7 -107 -20s-47 -36 -47 -68c0 -74 129 -92 231 -129c70 -25 126 -79 126 -162c0 -67 -25 -121 -74 -162
c-50 -41 -119 -62 -207 -62c-130 0 -224 43 -282 130l79 80c51 -65 124 -97 218 -97c88 0 143 38 143 97z" />
    <glyph glyph-name="T" unicode="T" horiz-adv-x="563" 
d="M332 586h-223l21 114h562l-21 -114h-224l-108 -586h-115z" />
    <glyph glyph-name="U" unicode="U" horiz-adv-x="690" 
d="M670 700h115l-74 -402c-38 -203 -149 -305 -333 -305c-83 0 -147 27 -193 82c-46 54 -60 130 -42 229l73 396h115l-70 -381c-25 -139 25 -213 138 -213c107 0 174 70 200 209z" />
    <glyph glyph-name="V" unicode="V" horiz-adv-x="686" 
d="M689 700h132l-430 -700h-81l-187 700h120l135 -517z" />
    <glyph glyph-name="W" unicode="W" horiz-adv-x="919" 
d="M926 700h121l-326 -700h-96l-72 487l-248 -487h-97l-78 700h116l51 -476l241 476h102l68 -475z" />
    <glyph glyph-name="X" unicode="X" horiz-adv-x="648" 
d="M615 700h148l-305 -347l184 -353h-132l-133 257l-225 -257h-145l317 360l-178 340h130l128 -247z" />
    <glyph glyph-name="Y" unicode="Y" horiz-adv-x="637" 
d="M623 700h150l-342 -397l-56 -303h-115l56 303l-193 397h129l133 -280z" />
    <glyph glyph-name="Z" unicode="Z" horiz-adv-x="601" 
d="M504 586h-368l21 114h545l-15 -81l-477 -505h393l-21 -114h-571l16 81z" />
    <glyph glyph-name="bracketleft" unicode="[" horiz-adv-x="331" 
d="M288 -183h-265l164 892h265l-20 -112h-150l-123 -668h150z" />
    <glyph glyph-name="backslash" unicode="\" horiz-adv-x="357" 
d="M23 684l102 33l328 -881l-101 -39z" />
    <glyph glyph-name="bracketright" unicode="]" horiz-adv-x="331" 
d="M139 709h265l-165 -892h-265l21 112h150l124 668h-150z" />
    <glyph glyph-name="asciicircum" unicode="^" horiz-adv-x="515" 
d="M213 412h-130l200 295h71l198 -295h-131l-103 158z" />
    <glyph glyph-name="underscore" unicode="_" horiz-adv-x="332" 
d="M392 -183h-332v103h332v-103z" />
    <glyph glyph-name="grave" unicode="`" horiz-adv-x="349" 
d="M472 652l-62 -54l-134 154l80 67z" />
    <glyph glyph-name="a" unicode="a" horiz-adv-x="571" 
d="M490 0h-101l13 63c-25 -35 -87 -69 -159 -69c-120 0 -195 84 -195 207c0 99 31 179 93 240c61 61 131 91 209 91c60 0 103 -12 129 -35l4 23h104zM279 99c56 0 110 38 138 83l41 203c-19 28 -55 42 -106 42s-96 -19 -133 -58c-38 -39 -57 -90 -57 -151
c0 -79 45 -119 117 -119z" />
    <glyph glyph-name="b" unicode="b" horiz-adv-x="574" 
d="M36 74l124 656h108l-48 -257c45 39 99 59 162 59c115 0 192 -75 192 -192c0 -109 -31 -194 -94 -256s-139 -93 -229 -93c-87 0 -172 34 -215 83zM338 427c-55 0 -106 -34 -141 -81l-41 -209c23 -27 62 -41 115 -41c51 0 96 20 134 61c37 40 56 91 56 153
c0 75 -46 117 -123 117z" />
    <glyph glyph-name="c" unicode="c" horiz-adv-x="515" 
d="M434 170l73 -60c-52 -83 -143 -119 -236 -119c-66 0 -120 20 -161 61s-62 94 -62 160c0 92 29 168 86 229s128 91 212 91c104 0 175 -52 195 -121l-84 -52c-23 45 -63 68 -119 68c-49 0 -91 -19 -125 -57s-51 -86 -51 -144c0 -83 53 -130 130 -130c54 0 101 25 142 74z
" />
    <glyph glyph-name="d" unicode="d" horiz-adv-x="580" 
d="M500 0h-101l13 63c-13 -17 -33 -32 -62 -47s-59 -22 -90 -22c-132 0 -212 85 -212 218c0 94 31 171 92 231c61 59 131 89 210 89c64 0 109 -12 135 -35l43 233h107zM289 99c56 0 110 38 138 83l37 203c-19 28 -57 42 -112 42s-100 -19 -136 -58s-54 -89 -54 -151
c0 -77 54 -119 127 -119z" />
    <glyph glyph-name="e" unicode="e" horiz-adv-x="533" 
d="M435 159l64 -63c-49 -72 -139 -105 -231 -105c-65 0 -118 20 -159 61c-41 40 -61 93 -61 160c0 91 31 167 92 228s133 92 215 92c117 0 184 -50 184 -143c0 -56 -25 -100 -76 -133s-118 -49 -200 -49c-36 0 -70 3 -101 8c5 -76 54 -119 127 -119c61 0 110 21 146 63z
M347 427c-72 0 -141 -49 -170 -121c24 -3 51 -5 80 -5c108 0 168 35 168 76c0 33 -26 50 -78 50z" />
    <glyph glyph-name="f" unicode="f" horiz-adv-x="321" 
d="M128 420h-80l18 100h81l3 17c25 140 106 201 206 201c55 0 99 -24 118 -61l-71 -70c-11 17 -29 26 -54 26c-50 0 -81 -33 -92 -99l-3 -14h139l-19 -100h-138l-71 -420h-108z" />
    <glyph glyph-name="g" unicode="g" horiz-adv-x="577" 
d="M485 520h108l-88 -478c-31 -169 -129 -251 -274 -251c-107 0 -182 52 -198 135l97 41c13 -40 56 -71 112 -71c85 0 136 44 153 133l5 24c-35 -41 -83 -62 -144 -62c-63 0 -113 20 -151 61c-39 41 -58 91 -58 152c0 99 31 178 92 237s134 88 217 88c55 0 96 -14 123 -41z
M291 96c57 0 108 38 131 83l36 196c-18 33 -53 49 -105 49c-54 0 -99 -19 -136 -58s-56 -87 -56 -144c0 -79 47 -126 130 -126z" />
    <glyph glyph-name="h" unicode="h" horiz-adv-x="554" 
d="M130 0h-107l134 730h108l-47 -260c39 36 101 61 161 61c108 0 169 -54 169 -158c0 -29 -3 -58 -9 -88l-58 -285h-108l57 278c4 24 6 44 6 61c1 59 -29 86 -89 86c-57 0 -122 -34 -154 -86z" />
    <glyph glyph-name="i" unicode="i" horiz-adv-x="225" 
d="M140 0h-108l96 520h108zM163 627c-24 23 -24 61 0 85c23 24 63 24 88 0c41 -36 10 -106 -45 -102c-17 0 -32 6 -43 17z" />
    <glyph glyph-name="j" unicode="j" horiz-adv-x="231" 
d="M136 520h108l-96 -521c-24 -133 -92 -208 -201 -208c-76 0 -122 34 -137 102l98 41c11 -25 27 -38 50 -38c43 0 70 35 83 106zM151 669c0 33 26 61 62 61c35 0 63 -28 63 -61s-28 -59 -63 -59c-36 0 -62 24 -62 59z" />
    <glyph glyph-name="k" unicode="k" horiz-adv-x="506" 
d="M139 0h-107l134 730h108l-77 -415l238 205h149l-272 -236l178 -284h-133l-137 225l-46 -35z" />
    <glyph glyph-name="l" unicode="l" horiz-adv-x="223" 
d="M140 0h-108l135 730h108z" />
    <glyph glyph-name="m" unicode="m" horiz-adv-x="817" 
d="M806 345l-68 -345h-108l62 313c3 20 4 35 4 46c1 40 -21 67 -66 67c-50 0 -92 -27 -126 -81l-65 -345h-108l64 338c11 52 -13 88 -61 88c-57 0 -105 -39 -132 -86l-63 -340h-107l96 520h107l-10 -52c39 42 87 63 146 63c62 0 104 -23 125 -70c47 47 102 70 167 70
c89 0 147 -45 148 -133c0 -14 -2 -32 -5 -53z" />
    <glyph glyph-name="n" unicode="n" horiz-adv-x="563" 
d="M139 0h-107l95 520h108l-8 -50c39 36 101 61 161 61c108 0 169 -54 169 -158c0 -23 -3 -52 -9 -88l-57 -285h-108l56 278c4 24 6 44 6 61c1 60 -30 87 -101 87c-58 0 -105 -29 -142 -87z" />
    <glyph glyph-name="o" unicode="o" horiz-adv-x="589" 
d="M48 206c0 95 31 173 92 234s135 92 221 92c69 0 125 -20 166 -61s62 -92 62 -155c0 -95 -29 -173 -88 -234s-132 -91 -219 -91c-72 0 -129 20 -171 61c-42 40 -63 91 -63 154zM162 229c0 -81 50 -132 134 -132c47 0 88 19 125 57c36 38 54 87 54 147
c0 77 -50 125 -127 125c-46 0 -88 -19 -127 -56s-59 -84 -59 -141z" />
    <glyph glyph-name="p" unicode="p" horiz-adv-x="572" 
d="M94 -200h-106l132 720h107l-9 -47c37 39 86 59 147 59c140 0 207 -90 207 -217c0 -95 -30 -173 -89 -233c-59 -61 -134 -91 -225 -91c-60 0 -100 14 -121 43zM334 427c-57 0 -104 -29 -141 -86l-33 -184c17 -41 52 -61 106 -61c55 0 101 18 138 55s55 85 55 145
c0 79 -42 131 -125 131z" />
    <glyph glyph-name="q" unicode="q" horiz-adv-x="578" 
d="M461 -200h-108l45 241c-33 -33 -78 -50 -135 -50c-140 0 -215 88 -215 224c0 95 30 171 91 228s132 86 214 86c65 0 108 -11 128 -33l5 24h108zM293 96c51 0 100 29 128 70l39 212c-18 31 -56 46 -113 46c-49 0 -92 -18 -129 -55s-56 -81 -56 -134
c0 -93 44 -139 131 -139z" />
    <glyph glyph-name="r" unicode="r" horiz-adv-x="344" 
d="M139 0h-107l96 520h107l-6 -35c17 27 61 46 98 46c43 0 72 -15 89 -46l-77 -83c-7 15 -22 23 -45 23c-35 0 -70 -26 -90 -73z" />
    <glyph glyph-name="s" unicode="s" horiz-adv-x="450" 
d="M312 148c1 88 -225 63 -224 224c0 50 19 89 57 118c37 28 82 42 135 42c93 0 159 -29 198 -87l-73 -74c-28 37 -66 55 -115 55c-52 0 -88 -18 -88 -51c0 -73 224 -52 224 -220c0 -55 -20 -96 -61 -123s-87 -41 -139 -41c-107 0 -190 51 -222 126l86 61
c25 -54 72 -81 143 -81c44 0 79 18 79 51z" />
    <glyph glyph-name="t" unicode="t" horiz-adv-x="376" 
d="M135 420h-93l18 100h94l21 107h107l-21 -107h152l-19 -100h-153l-45 -207c-5 -25 -7 -45 -7 -60c-1 -36 15 -54 46 -54s58 14 83 41l54 -68c-36 -48 -100 -78 -168 -78c-76 0 -129 43 -129 112c0 20 3 45 8 75z" />
    <glyph glyph-name="u" unicode="u" horiz-adv-x="550" 
d="M460 520h108l-98 -520h-108l10 55c-44 -43 -96 -64 -155 -64c-105 0 -168 55 -168 147c0 23 3 51 10 86l62 296h108l-60 -285c-4 -23 -6 -42 -6 -57c1 -55 24 -82 85 -82c59 0 108 30 148 91z" />
    <glyph glyph-name="v" unicode="v" horiz-adv-x="493" 
d="M454 520h123l-315 -520h-80l-134 520h114l86 -347z" />
    <glyph glyph-name="w" unicode="w" horiz-adv-x="704" 
d="M680 520h108l-256 -520h-86l-57 338l-184 -338h-85l-68 520h105l43 -334l179 334h83l57 -335z" />
    <glyph glyph-name="x" unicode="x" horiz-adv-x="527" 
d="M456 520h136l-236 -253l149 -267h-128l-101 184l-170 -184h-133l247 268l-142 252h127l95 -167z" />
    <glyph glyph-name="y" unicode="y" horiz-adv-x="504" 
d="M0 -192l57 95c6 -4 13 -6 21 -6c26 0 57 31 92 92l26 47l-151 484h120l105 -351l196 351h122l-288 -505c-49 -85 -90 -143 -123 -176c-34 -32 -71 -48 -110 -48c-28 0 -50 6 -67 17z" />
    <glyph glyph-name="z" unicode="z" horiz-adv-x="479" 
d="M349 420h-261l17 100h421v-62l-350 -358h272l-18 -100h-430v68z" />
    <glyph glyph-name="braceleft" unicode="{" horiz-adv-x="328" 
d="M84 -38l30 165c11 61 -10 85 -63 85l19 101c56 0 82 16 93 79l31 165c20 108 70 152 178 152h74l-19 -101h-52c-45 0 -66 -23 -77 -79l-30 -166c-10 -53 -35 -88 -74 -103c34 -13 46 -48 36 -106l-31 -162c-11 -56 1 -74 49 -74h52l-19 -101h-85c-93 0 -131 44 -112 145z
" />
    <glyph glyph-name="bar" unicode="|" horiz-adv-x="317" 
d="M277 0h-118v700h118v-700z" />
    <glyph glyph-name="braceright" unicode="}" horiz-adv-x="328" 
d="M259 127l-30 -165c-19 -101 -72 -145 -165 -145h-86l19 101h52c48 0 65 18 76 74l31 172c10 58 35 93 75 106c-34 15 -46 50 -36 103l29 156c11 56 -1 79 -46 79h-54l18 101h75c108 0 142 -44 122 -152l-30 -165c-12 -63 8 -79 63 -79l-18 -101c-53 0 -83 -24 -95 -85z
" />
    <glyph glyph-name="asciitilde" unicode="~" horiz-adv-x="570" 
d="M144 280l-58 77c37 37 57 56 102 73c22 9 45 12 69 11c26 -2 60 -13 101 -34s73 -32 94 -32c38 0 72 20 102 59l50 -80c-41 -48 -98 -77 -146 -77c-33 0 -71 11 -114 34c-43 22 -75 33 -97 33c-34 0 -68 -21 -103 -64z" />
    <glyph glyph-name="uni00A0" unicode="&#xa0;" horiz-adv-x="236" 
 />
    <glyph glyph-name="exclamdown" unicode="&#xa1;" horiz-adv-x="294" 
d="M147 303h112l-89 -485h-112zM308 456c0 -48 -40 -84 -88 -84c-40 0 -67 31 -67 64c0 48 39 84 88 84c43 0 67 -28 67 -64z" />
    <glyph glyph-name="cent" unicode="&#xa2;" horiz-adv-x="511" 
d="M460 171l74 -60c-26 -39 -53 -66 -82 -81s-66 -27 -112 -35l-36 -195h-114l36 202c-101 33 -151 103 -151 210c0 83 23 153 69 210s106 92 181 106l31 172h114l-32 -176c68 -13 115 -62 130 -113l-84 -53c-19 37 -45 58 -77 65l-60 -326c45 7 82 32 113 74zM190 225
c0 -53 23 -100 70 -119l57 315c-76 -20 -127 -99 -127 -196z" />
    <glyph glyph-name="sterling" unicode="&#xa3;" horiz-adv-x="565" 
d="M190 260h-81l18 96h54c-9 49 -13 82 -13 100c0 164 102 251 258 251c85 0 147 -30 186 -89l-71 -82c-37 39 -81 58 -132 58c-79 0 -124 -56 -124 -125c0 -27 13 -82 17 -113h160l-18 -96h-141c0 -6 -1 -13 -3 -21c-7 -42 -22 -75 -45 -98c17 -1 43 -8 78 -21
s62 -20 81 -20c38 0 74 17 107 50l47 -78c-49 -49 -103 -73 -163 -73c-31 0 -68 8 -111 23c-44 15 -78 22 -101 22c-41 0 -82 -18 -124 -54l-37 79c31 33 67 56 106 68c26 29 42 62 49 98c1 8 3 24 3 25z" />
    <glyph glyph-name="currency" unicode="&#xa4;" horiz-adv-x="630" 
d="M135 347c0 48 12 91 37 130l-86 87l74 73l88 -87c39 23 81 35 127 35c47 0 90 -12 127 -35l93 91l74 -73l-91 -92c25 -41 38 -84 38 -129c0 -46 -13 -89 -38 -128l87 -88l-73 -74l-89 89c-35 -24 -78 -36 -128 -36s-93 12 -129 36l-93 -93l-72 73l91 93
c-25 40 -37 83 -37 128zM249 347c0 -73 53 -131 126 -131c75 0 127 56 127 131c0 76 -54 133 -127 133c-75 0 -126 -57 -126 -133z" />
    <glyph glyph-name="yen" unicode="&#xa5;" horiz-adv-x="637" 
d="M316 302h-156l18 99h90l-145 299h130l132 -279l239 279h149l-257 -299h91l-18 -99h-158l-16 -85h158l-18 -99h-158l-22 -118h-115l22 118h-157l18 99h157z" />
    <glyph glyph-name="brokenbar" unicode="&#xa6;" horiz-adv-x="317" 
d="M277 700v-297h-118v297h118zM159 0v297h118v-297h-118z" />
    <glyph glyph-name="section" unicode="&#xa7;" horiz-adv-x="482" 
d="M85 229c0 92 48 170 133 201c-20 19 -36 56 -36 87c0 58 19 103 57 135c37 32 81 48 132 48c68 0 117 -29 148 -86l-84 -68c-17 28 -40 42 -69 42c-41 0 -71 -30 -71 -67c0 -33 16 -58 49 -73c91 -9 147 -70 147 -158c0 -99 -50 -172 -135 -205c24 -26 36 -59 36 -98
c0 -43 -16 -83 -48 -118c-33 -35 -80 -52 -143 -52c-66 0 -114 28 -144 84l78 77c23 -33 50 -49 81 -49c43 0 68 27 68 64c0 33 -22 62 -53 74c-93 9 -146 69 -146 162zM197 242c0 -48 31 -81 78 -81c57 0 104 43 104 114c0 47 -30 80 -79 80c-55 0 -103 -41 -103 -113z" />
    <glyph glyph-name="dieresis" unicode="&#xa8;" horiz-adv-x="449" 
d="M387 669c0 33 26 61 62 61c35 0 63 -28 63 -61s-28 -59 -63 -59c-36 0 -62 24 -62 59zM196 627c-24 23 -24 61 0 85s64 24 89 0c24 -24 24 -62 0 -85c-25 -23 -65 -23 -89 0z" />
    <glyph glyph-name="copyright" unicode="&#xa9;" horiz-adv-x="966" 
d="M112 232c0 119 41 219 124 302c83 82 185 123 307 123c123 0 226 -40 308 -120s123 -182 123 -305c0 -122 -41 -223 -123 -305c-82 -81 -185 -121 -308 -121c-124 0 -227 39 -308 118c-82 80 -123 182 -123 308zM217 232c0 -92 31 -169 94 -233c63 -63 140 -94 232 -94
c94 0 172 31 234 93c61 63 92 141 92 234c0 96 -30 174 -90 235c-61 61 -139 91 -236 91c-91 0 -168 -32 -231 -95s-95 -140 -95 -231zM689 157l62 -71c-39 -56 -119 -94 -191 -94c-75 0 -136 22 -183 67s-71 104 -71 177c0 68 23 126 70 173c46 47 103 70 171 70
c83 0 147 -28 194 -85l-71 -68c-32 33 -70 50 -114 50c-79 0 -130 -56 -130 -137c0 -88 59 -146 140 -146c45 0 86 21 123 64z" />
    <glyph glyph-name="ordfeminine" unicode="&#xaa;" horiz-adv-x="432" 
d="M197 533l-22 74c44 27 97 41 160 41c96 0 146 -52 130 -140l-39 -209h-95l6 36c-25 -27 -61 -40 -108 -40c-63 0 -112 34 -112 99c0 79 66 116 169 116c33 0 61 -3 82 -8c8 40 -6 58 -59 58c-35 0 -72 -9 -112 -27zM271 379c34 0 61 12 80 36l4 19c-20 7 -42 10 -66 10
c-41 0 -70 -13 -70 -36c0 -19 17 -29 52 -29z" />
    <glyph glyph-name="guillemotleft" unicode="&#xab;" horiz-adv-x="525" 
d="M298 102l-79 -64l-135 218l1 6l193 212l66 -71l-138 -152zM498 102l-79 -64l-135 218l1 6l194 212l65 -71l-138 -152z" />
    <glyph glyph-name="logicalnot" unicode="&#xac;" horiz-adv-x="545" 
d="M474 310h-379v99h475v-219h-96v120z" />
    <glyph glyph-name="uni00AD" unicode="&#xad;" horiz-adv-x="416" 
d="M391 227h-278l20 101h278z" />
    <glyph glyph-name="registered" unicode="&#xae;" horiz-adv-x="577" 
d="M98 485c0 67 25 125 74 172s108 71 177 71s128 -24 177 -71c49 -48 73 -105 73 -172c0 -68 -24 -126 -73 -174s-108 -72 -177 -72s-128 24 -177 72c-49 47 -74 105 -74 174zM142 484c0 -57 20 -104 60 -143s89 -58 146 -58c56 0 105 20 146 61s61 87 61 140
c0 56 -21 104 -62 143s-90 58 -145 58c-57 0 -105 -20 -145 -60c-41 -40 -61 -87 -61 -141zM314 422v-81h-83v290h110c86 0 129 -32 129 -96c0 -41 -17 -69 -51 -84l66 -110h-94l-46 81h-31zM381 527c0 20 -12 30 -37 30h-30v-59h32c20 0 35 12 35 29z" />
    <glyph glyph-name="overscore" unicode="&#xaf;" horiz-adv-x="428" 
d="M543 625h-267l18 95h266z" />
    <glyph glyph-name="degree" unicode="&#xb0;" horiz-adv-x="410" 
d="M98 551c0 45 16 84 49 115s72 47 118 47c47 0 86 -15 119 -46c32 -31 48 -70 48 -115s-16 -83 -49 -114c-33 -32 -72 -48 -118 -48s-85 16 -118 47s-49 69 -49 114zM224 592c-24 -21 -24 -61 0 -81c23 -21 59 -21 83 0c23 20 23 60 0 81c-24 21 -60 21 -83 0z" />
    <glyph glyph-name="plusminus" unicode="&#xb1;" horiz-adv-x="552" 
d="M286 382h-175v98h175v183h99v-183h177v-98h-177v-109h-99v109zM562 139h-451v99h451v-99z" />
    <glyph glyph-name="twosuperior" unicode="&#xb2;" horiz-adv-x="400" 
d="M210 567l-67 47c29 65 99 110 184 110c93 0 139 -38 139 -115c0 -65 -47 -125 -141 -182l-55 -33h171l-17 -94h-328l15 81l93 54c99 56 157 103 157 154c0 27 -16 41 -48 41c-40 0 -74 -21 -103 -63z" />
    <glyph glyph-name="threesuperior" unicode="&#xb3;" horiz-adv-x="408" 
d="M208 579l-59 57c37 57 106 89 181 89c97 0 145 -34 145 -101c0 -43 -28 -83 -80 -102c37 -13 56 -38 56 -77c0 -48 -18 -85 -54 -111c-37 -26 -80 -39 -130 -39c-91 0 -147 35 -167 104l78 46c16 -37 47 -56 94 -56c52 0 78 16 78 48c0 23 -22 34 -65 34h-45l15 81h37
c51 0 76 16 76 49c0 20 -16 30 -48 30c-44 0 -81 -17 -112 -52z" />
    <glyph glyph-name="acute" unicode="&#xb4;" horiz-adv-x="425" 
d="M476 819l73 -64l-149 -157l-64 54z" />
    <glyph glyph-name="mu" unicode="&#xb5;" horiz-adv-x="554" 
d="M491 520h108l-96 -520h-108l8 44c-35 -31 -88 -53 -135 -53c-44 0 -78 13 -103 39l-43 -229h-109l133 719h108l-53 -285c-17 -96 8 -138 87 -138c47 0 101 26 136 59z" />
    <glyph glyph-name="mu" unicode="&#x3bc;" horiz-adv-x="554" 
d="M491 520h108l-96 -520h-108l8 44c-35 -31 -88 -53 -135 -53c-44 0 -78 13 -103 39l-43 -229h-109l133 719h108l-53 -285c-17 -96 8 -138 87 -138c47 0 101 26 136 59z" />
    <glyph glyph-name="paragraph" unicode="&#xb6;" horiz-adv-x="446" 
d="M92 470c0 143 86 230 225 230h164v-101h-86v-577c0 -63 -8 -108 -32 -149s-69 -64 -136 -64c-49 0 -101 20 -133 55l50 87c25 -19 52 -29 79 -29c41 0 56 31 56 100v222c-111 15 -187 98 -187 226z" />
    <glyph glyph-name="middot" unicode="&#xb7;" horiz-adv-x="236" 
d="M99 301c0 31 30 61 70 61c36 0 67 -30 67 -61c0 -35 -30 -64 -67 -64c-41 0 -70 29 -70 64z" />
    <glyph glyph-name="cedilla" unicode="&#xb8;" horiz-adv-x="426" 
d="M151 -168l44 59c17 -15 40 -23 71 -23c28 0 42 8 42 24c0 13 -15 20 -44 20h-12l16 88h60l-6 -32c56 -4 84 -28 84 -71c0 -60 -54 -104 -146 -104c-46 0 -82 13 -109 39z" />
    <glyph glyph-name="onesuperior" unicode="&#xb9;" horiz-adv-x="299" 
d="M150 561l-20 92l166 68h73l-77 -421h-100l56 300z" />
    <glyph glyph-name="ordmasculine" unicode="&#xba;" horiz-adv-x="439" 
d="M128 441c0 60 20 110 61 149c40 39 90 58 150 58c91 0 147 -56 147 -144c0 -59 -20 -109 -61 -149s-91 -60 -151 -60c-89 0 -146 59 -146 146zM230 458c0 -40 26 -66 62 -66c52 0 92 39 92 94c0 39 -26 64 -63 64c-51 0 -91 -37 -91 -92z" />
    <glyph glyph-name="guillemotright" unicode="&#xbb;" horiz-adv-x="525" 
d="M313 410l79 64l135 -218l-1 -6l-193 -212l-66 71l138 152zM113 410l79 64l135 -218l-1 -6l-194 -212l-65 71l138 152z" />
    <glyph glyph-name="onequarter" unicode="&#xbc;" horiz-adv-x="842" 
d="M247 -22l-85 70l549 672l83 -66zM166 561l-20 92l166 68h73l-77 -421h-100l56 300zM745 0h-94l14 76h-233l13 73l295 271h83l-47 -253h73l-17 -91h-73zM704 286l-135 -119h113z" />
    <glyph glyph-name="onehalf" unicode="&#xbd;" horiz-adv-x="891" 
d="M247 -22l-85 70l549 672l83 -66zM166 561l-20 92l166 68h73l-77 -421h-100l56 300zM634 267l-67 47c29 65 99 110 184 110c93 0 139 -38 139 -115c0 -65 -47 -125 -141 -182l-55 -33h171l-17 -94h-328l15 81l93 54c99 56 157 103 157 154c0 27 -16 41 -48 41
c-40 0 -74 -21 -103 -63z" />
    <glyph glyph-name="threequarters" unicode="&#xbe;" horiz-adv-x="896" 
d="M301 -22l-85 70l549 672l83 -66zM798 0h-94l14 76h-233l13 73l295 271h83l-47 -253h73l-17 -91h-73zM757 286l-135 -119h113zM208 579l-59 57c37 57 106 89 181 89c97 0 145 -34 145 -101c0 -43 -28 -83 -80 -102c37 -13 56 -38 56 -77c0 -48 -18 -85 -54 -111
c-37 -26 -80 -39 -130 -39c-91 0 -147 35 -167 104l78 46c16 -37 47 -56 94 -56c52 0 78 16 78 48c0 23 -22 34 -65 34h-45l15 81h37c51 0 76 16 76 49c0 20 -16 30 -48 30c-44 0 -81 -17 -112 -52z" />
    <glyph glyph-name="questiondown" unicode="&#xbf;" horiz-adv-x="579" 
d="M156 4c0 -45 37 -78 114 -78c85 0 145 38 180 115l101 -33c-39 -121 -138 -198 -294 -198c-148 0 -224 67 -224 175c-1 121 95 171 172 202c53 23 99 48 106 83c2 10 3 21 3 34l104 1v-20c0 -107 -95 -146 -169 -179c-52 -23 -93 -55 -93 -102zM474 456
c0 -48 -40 -84 -88 -84c-40 0 -67 31 -67 64c0 48 39 84 88 84c43 0 67 -28 67 -64z" />
    <glyph glyph-name="Agrave" unicode="&#xc0;" horiz-adv-x="669" 
d="M128 0h-129l421 700h87l163 -700h-118l-36 155h-297zM492 259l-60 260l-152 -260h212zM576 821l-48 -76l-212 104l61 100z" />
    <glyph glyph-name="Aacute" unicode="&#xc1;" horiz-adv-x="669" 
d="M128 0h-129l421 700h87l163 -700h-118l-36 155h-297zM492 259l-60 260l-152 -260h212zM646 949l41 -96l-224 -108l-36 72z" />
    <glyph glyph-name="Acircumflex" unicode="&#xc2;" horiz-adv-x="669" 
d="M128 0h-129l421 700h87l163 -700h-118l-36 155h-297zM492 259l-60 260l-152 -260h212zM497 928h4l158 -110l-47 -69l-122 79l-143 -79l-37 72z" />
    <glyph glyph-name="Atilde" unicode="&#xc3;" horiz-adv-x="669" 
d="M128 0h-129l421 700h87l163 -700h-118l-36 155h-297zM492 259l-60 260l-152 -260h212zM337 779l-25 72c37 37 79 56 124 56c18 0 40 -6 67 -18c26 -12 47 -18 64 -18c30 0 56 10 78 31l21 -76c-31 -37 -69 -56 -114 -56c-19 0 -44 6 -74 18c-31 12 -55 18 -73 18
c-21 0 -43 -9 -68 -27z" />
    <glyph glyph-name="Adieresis" unicode="&#xc4;" horiz-adv-x="669" 
d="M128 0h-129l421 700h87l163 -700h-118l-36 155h-297zM492 259l-60 260l-152 -260h212zM326 784c-25 24 -25 64 0 88c24 24 62 24 87 0c24 -24 24 -64 0 -88c-25 -24 -63 -24 -87 0zM556 784c-25 24 -25 64 0 88c24 24 62 24 87 0c24 -24 24 -64 0 -88
c-25 -24 -63 -24 -87 0z" />
    <glyph glyph-name="Aring" unicode="&#xc5;" horiz-adv-x="669" 
d="M128 0h-129l421 700h87l163 -700h-118l-36 155h-297zM492 259l-60 260l-152 -260h212zM356 823c0 39 15 70 44 92c29 21 63 32 102 32c75 0 123 -33 123 -94c0 -80 -61 -126 -150 -126c-73 0 -119 33 -119 96zM439 830c0 -25 15 -37 45 -37c37 0 57 23 57 52
c0 23 -15 35 -44 35c-35 0 -58 -19 -58 -50z" />
    <glyph glyph-name="AE" unicode="&#xc6;" horiz-adv-x="1076" 
d="M1034 0h-504l29 155h-279l-138 -155h-142l623 700h530l-21 -114h-379l-32 -176h354l-21 -110h-354l-34 -186h388zM634 560l-265 -301h209z" />
    <glyph glyph-name="Ccedilla" unicode="&#xc7;" horiz-adv-x="657" 
d="M249 -161l47 54c18 -17 42 -25 71 -25c27 0 41 8 41 24c0 13 -14 20 -43 20h-12l15 81c-179 11 -281 127 -281 304c0 119 39 218 117 295c77 77 174 116 291 116c125 0 211 -48 246 -121l-82 -69c-43 49 -101 74 -173 74c-87 0 -155 -29 -203 -86
c-49 -58 -73 -125 -73 -202c0 -119 77 -196 194 -196c84 0 156 31 216 92l67 -84c-53 -65 -145 -115 -260 -123l-4 -25c60 -3 90 -29 90 -79c0 -53 -47 -96 -142 -96c-51 0 -92 15 -122 46z" />
    <glyph glyph-name="Egrave" unicode="&#xc8;" horiz-adv-x="613" 
d="M570 0h-504l130 700h494l-21 -114h-379l-33 -176h355l-21 -110h-354l-35 -186h389zM566 821l-48 -76l-212 104l61 100z" />
    <glyph glyph-name="Eacute" unicode="&#xc9;" horiz-adv-x="613" 
d="M570 0h-504l130 700h494l-21 -114h-379l-33 -176h355l-21 -110h-354l-35 -186h389zM611 949l41 -96l-224 -108l-36 72z" />
    <glyph glyph-name="Ecircumflex" unicode="&#xca;" horiz-adv-x="613" 
d="M570 0h-504l130 700h494l-21 -114h-379l-33 -176h355l-21 -110h-354l-35 -186h389zM484 928h4l158 -110l-47 -69l-122 79l-143 -79l-37 72z" />
    <glyph glyph-name="Edieresis" unicode="&#xcb;" horiz-adv-x="613" 
d="M570 0h-504l130 700h494l-21 -114h-379l-33 -176h355l-21 -110h-354l-35 -186h389zM308 784c-24 24 -24 64 0 88s64 24 88 0s24 -64 0 -88s-64 -24 -88 0zM538 784c-24 24 -24 64 0 88s64 24 88 0s24 -64 0 -88s-64 -24 -88 0z" />
    <glyph glyph-name="Igrave" unicode="&#xcc;" horiz-adv-x="248" 
d="M181 0h-115l129 700h116zM356 821l-48 -76l-212 104l61 100z" />
    <glyph glyph-name="Iacute" unicode="&#xcd;" horiz-adv-x="248" 
d="M181 0h-115l129 700h116zM430 949l41 -96l-224 -108l-36 72z" />
    <glyph glyph-name="Icircumflex" unicode="&#xce;" horiz-adv-x="248" 
d="M181 0h-115l129 700h116zM287 928h4l158 -110l-47 -69l-122 79l-143 -79l-37 72z" />
    <glyph glyph-name="Idieresis" unicode="&#xcf;" horiz-adv-x="248" 
d="M181 0h-115l129 700h116zM116 784c-25 24 -25 64 0 88c24 24 62 24 87 0c24 -24 24 -64 0 -88c-25 -24 -63 -24 -87 0zM346 784c-25 24 -25 64 0 88c24 24 62 24 87 0c24 -24 24 -64 0 -88c-25 -24 -63 -24 -87 0z" />
    <glyph glyph-name="Eth" unicode="&#xd0;" horiz-adv-x="739" 
d="M180 298h-111l19 101h111l56 301h207c110 0 191 -26 242 -78s77 -120 77 -203c0 -271 -157 -419 -460 -419h-196zM439 586h-90l-35 -187h166l-19 -101h-166l-34 -184h90c209 0 308 111 308 288c0 121 -65 184 -220 184z" />
    <glyph glyph-name="Ntilde" unicode="&#xd1;" horiz-adv-x="701" 
d="M764 700l-129 -700h-90l-277 486l-89 -486h-113l130 700h89l276 -490l91 490h112zM354 779l-25 72c37 37 79 56 124 56c18 0 40 -6 67 -18c26 -12 47 -18 64 -18c30 0 56 10 78 31l21 -76c-31 -37 -69 -56 -114 -56c-19 0 -44 6 -74 18c-31 12 -55 18 -73 18
c-21 0 -43 -9 -68 -27z" />
    <glyph glyph-name="Ograve" unicode="&#xd2;" horiz-adv-x="743" 
d="M89 290c0 117 38 216 113 297s170 121 287 121c89 0 160 -27 214 -80c53 -53 80 -126 80 -217c0 -117 -36 -216 -109 -297s-170 -122 -289 -122c-91 0 -163 27 -216 80s-80 125 -80 218zM211 307c0 -127 70 -199 183 -199c175 0 267 148 267 285c0 128 -68 199 -180 199
c-113 0 -201 -67 -240 -151c-20 -43 -30 -87 -30 -134zM616 821l-48 -76l-212 104l61 100z" />
    <glyph glyph-name="Oacute" unicode="&#xd3;" horiz-adv-x="743" 
d="M89 290c0 117 38 216 113 297s170 121 287 121c89 0 160 -27 214 -80c53 -53 80 -126 80 -217c0 -117 -36 -216 -109 -297s-170 -122 -289 -122c-91 0 -163 27 -216 80s-80 125 -80 218zM211 307c0 -127 70 -199 183 -199c175 0 267 148 267 285c0 128 -68 199 -180 199
c-113 0 -201 -67 -240 -151c-20 -43 -30 -87 -30 -134zM674 949l41 -96l-224 -108l-36 72z" />
    <glyph glyph-name="Ocircumflex" unicode="&#xd4;" horiz-adv-x="743" 
d="M89 290c0 117 38 216 113 297s170 121 287 121c89 0 160 -27 214 -80c53 -53 80 -126 80 -217c0 -117 -36 -216 -109 -297s-170 -122 -289 -122c-91 0 -163 27 -216 80s-80 125 -80 218zM211 307c0 -127 70 -199 183 -199c175 0 267 148 267 285c0 128 -68 199 -180 199
c-113 0 -201 -67 -240 -151c-20 -43 -30 -87 -30 -134zM534 928h4l158 -110l-47 -69l-122 79l-143 -79l-37 72z" />
    <glyph glyph-name="Otilde" unicode="&#xd5;" horiz-adv-x="743" 
d="M89 290c0 117 38 216 113 297s170 121 287 121c89 0 160 -27 214 -80c53 -53 80 -126 80 -217c0 -117 -36 -216 -109 -297s-170 -122 -289 -122c-91 0 -163 27 -216 80s-80 125 -80 218zM211 307c0 -127 70 -199 183 -199c175 0 267 148 267 285c0 128 -68 199 -180 199
c-113 0 -201 -67 -240 -151c-20 -43 -30 -87 -30 -134zM374 779l-25 72c37 37 79 56 124 56c18 0 40 -6 67 -18c26 -12 47 -18 64 -18c30 0 56 10 78 31l21 -76c-31 -37 -69 -56 -114 -56c-19 0 -44 6 -74 18c-31 12 -55 18 -73 18c-21 0 -43 -9 -68 -27z" />
    <glyph glyph-name="Odieresis" unicode="&#xd6;" horiz-adv-x="743" 
d="M89 290c0 117 38 216 113 297s170 121 287 121c89 0 160 -27 214 -80c53 -53 80 -126 80 -217c0 -117 -36 -216 -109 -297s-170 -122 -289 -122c-91 0 -163 27 -216 80s-80 125 -80 218zM211 307c0 -127 70 -199 183 -199c175 0 267 148 267 285c0 128 -68 199 -180 199
c-113 0 -201 -67 -240 -151c-20 -43 -30 -87 -30 -134zM364 784c-25 24 -25 64 0 88c24 24 62 24 87 0c24 -24 24 -64 0 -88c-25 -24 -63 -24 -87 0zM594 784c-25 24 -25 64 0 88c24 24 62 24 87 0c24 -24 24 -64 0 -88c-25 -24 -63 -24 -87 0z" />
    <glyph glyph-name="multiply" unicode="&#xd7;" horiz-adv-x="599" 
d="M283 358l-130 130l72 72l129 -129l130 129l72 -72l-129 -130l129 -129l-72 -72l-130 130l-129 -130l-72 72z" />
    <glyph glyph-name="Oslash" unicode="&#xd8;" horiz-adv-x="743" 
d="M145 -23l-67 70l60 62c-33 47 -49 107 -49 180c0 116 38 215 114 297c75 81 171 122 286 122c69 0 128 -16 177 -49l58 60l66 -66l-58 -60c34 -50 51 -111 51 -183c0 -147 -63 -279 -186 -358c-62 -40 -133 -60 -212 -60c-70 0 -130 16 -180 48zM661 392
c0 44 -7 79 -20 105l-348 -365c28 -16 61 -24 98 -24c112 0 201 66 241 151c19 42 29 86 29 133zM210 306c0 -41 6 -75 19 -102l352 365c-26 15 -59 23 -100 23c-176 0 -271 -148 -271 -286z" />
    <glyph glyph-name="Ugrave" unicode="&#xd9;" horiz-adv-x="690" 
d="M670 700h115l-74 -402c-38 -203 -149 -305 -333 -305c-83 0 -147 27 -193 82c-46 54 -60 130 -42 229l73 396h115l-70 -381c-25 -139 25 -213 138 -213c107 0 174 70 200 209zM618 821l-48 -76l-212 104l61 100z" />
    <glyph glyph-name="Uacute" unicode="&#xda;" horiz-adv-x="690" 
d="M670 700h115l-74 -402c-38 -203 -149 -305 -333 -305c-83 0 -147 27 -193 82c-46 54 -60 130 -42 229l73 396h115l-70 -381c-25 -139 25 -213 138 -213c107 0 174 70 200 209zM676 949l41 -96l-224 -108l-36 72z" />
    <glyph glyph-name="Ucircumflex" unicode="&#xdb;" horiz-adv-x="690" 
d="M670 700h115l-74 -402c-38 -203 -149 -305 -333 -305c-83 0 -147 27 -193 82c-46 54 -60 130 -42 229l73 396h115l-70 -381c-25 -139 25 -213 138 -213c107 0 174 70 200 209zM535 928h4l158 -110l-47 -69l-122 79l-143 -79l-37 72z" />
    <glyph glyph-name="Udieresis" unicode="&#xdc;" horiz-adv-x="690" 
d="M670 700h115l-74 -402c-38 -203 -149 -305 -333 -305c-83 0 -147 27 -193 82c-46 54 -60 130 -42 229l73 396h115l-70 -381c-25 -139 25 -213 138 -213c107 0 174 70 200 209zM363 784c-24 24 -24 64 0 88s64 24 88 0s24 -64 0 -88s-64 -24 -88 0zM593 784
c-24 24 -24 64 0 88s64 24 88 0s24 -64 0 -88s-64 -24 -88 0z" />
    <glyph glyph-name="Yacute" unicode="&#xdd;" horiz-adv-x="637" 
d="M623 700h150l-342 -397l-56 -303h-115l56 303l-193 397h129l133 -280zM627 949l41 -96l-224 -108l-36 72z" />
    <glyph glyph-name="Thorn" unicode="&#xde;" horiz-adv-x="625" 
d="M206 133l-25 -133h-115l130 700h115l-20 -107h135c87 0 148 -18 185 -55c36 -37 54 -84 54 -143c0 -79 -28 -142 -85 -190s-137 -72 -240 -72h-134zM408 480h-138l-43 -233h132c124 -1 183 53 183 138c0 63 -45 95 -134 95z" />
    <glyph glyph-name="germandbls" unicode="&#xdf;" horiz-adv-x="533" 
d="M389 738c124 0 187 -62 187 -174c0 -85 -43 -154 -115 -187c58 -22 87 -69 87 -141c0 -151 -90 -246 -242 -246c-45 0 -81 8 -108 25l44 99c21 -11 45 -17 70 -17c73 0 123 45 123 129c0 56 -35 84 -106 84h-48l20 107h24c92 0 138 60 138 129c0 55 -33 86 -85 86
c-65 0 -110 -41 -135 -176l-84 -456h-109l86 461c18 97 46 167 84 211s94 66 169 66z" />
    <glyph glyph-name="agrave" unicode="&#xe0;" horiz-adv-x="571" 
d="M490 0h-101l13 63c-25 -35 -87 -69 -159 -69c-120 0 -195 84 -195 207c0 99 31 179 93 240c61 61 131 91 209 91c60 0 103 -12 129 -35l4 23h104zM279 99c56 0 110 38 138 83l41 203c-19 28 -55 42 -106 42s-96 -19 -133 -58c-38 -39 -57 -90 -57 -151
c0 -79 45 -119 117 -119zM452 652l-62 -54l-134 154l80 67z" />
    <glyph glyph-name="aacute" unicode="&#xe1;" horiz-adv-x="571" 
d="M490 0h-101l13 63c-25 -35 -87 -69 -159 -69c-120 0 -195 84 -195 207c0 99 31 179 93 240c61 61 131 91 209 91c60 0 103 -12 129 -35l4 23h104zM279 99c56 0 110 38 138 83l41 203c-19 28 -55 42 -106 42s-96 -19 -133 -58c-38 -39 -57 -90 -57 -151
c0 -79 45 -119 117 -119zM496 819l73 -64l-149 -157l-64 54z" />
    <glyph glyph-name="acircumflex" unicode="&#xe2;" horiz-adv-x="571" 
d="M490 0h-101l13 63c-25 -35 -87 -69 -159 -69c-120 0 -195 84 -195 207c0 99 31 179 93 240c61 61 131 91 209 91c60 0 103 -12 129 -35l4 23h104zM279 99c56 0 110 38 138 83l41 203c-19 28 -55 42 -106 42s-96 -19 -133 -58c-38 -39 -57 -90 -57 -151
c0 -79 45 -119 117 -119zM413 790h4l133 -135l-63 -66l-84 88l-111 -85l-51 68z" />
    <glyph glyph-name="atilde" unicode="&#xe3;" horiz-adv-x="571" 
d="M490 0h-101l13 63c-25 -35 -87 -69 -159 -69c-120 0 -195 84 -195 207c0 99 31 179 93 240c61 61 131 91 209 91c60 0 103 -12 129 -35l4 23h104zM279 99c56 0 110 38 138 83l41 203c-19 28 -55 42 -106 42s-96 -19 -133 -58c-38 -39 -57 -90 -57 -151
c0 -79 45 -119 117 -119zM262 612l-41 56c31 37 83 68 120 68c21 0 43 -7 66 -22s40 -22 52 -22c22 0 45 10 69 30l35 -60c-39 -43 -78 -64 -119 -64c-21 0 -42 7 -65 22c-23 14 -40 21 -52 21c-18 0 -40 -10 -65 -29z" />
    <glyph glyph-name="adieresis" unicode="&#xe4;" horiz-adv-x="571" 
d="M490 0h-101l13 63c-25 -35 -87 -69 -159 -69c-120 0 -195 84 -195 207c0 99 31 179 93 240c61 61 131 91 209 91c60 0 103 -12 129 -35l4 23h104zM279 99c56 0 110 38 138 83l41 203c-19 28 -55 42 -106 42s-96 -19 -133 -58c-38 -39 -57 -90 -57 -151
c0 -79 45 -119 117 -119zM441 669c0 33 26 61 62 61c35 0 63 -28 63 -61s-28 -59 -63 -59c-36 0 -62 24 -62 59zM250 627c-24 23 -24 61 0 85s64 24 89 0c24 -24 24 -62 0 -85c-25 -23 -65 -23 -89 0z" />
    <glyph glyph-name="aring" unicode="&#xe5;" horiz-adv-x="571" 
d="M490 0h-101l13 63c-25 -35 -87 -69 -159 -69c-120 0 -195 84 -195 207c0 99 31 179 93 240c61 61 131 91 209 91c60 0 103 -12 129 -35l4 23h104zM279 99c56 0 110 38 138 83l41 203c-19 28 -55 42 -106 42s-96 -19 -133 -58c-38 -39 -57 -90 -57 -151
c0 -79 45 -119 117 -119zM286 683c0 79 58 135 135 135c63 0 103 -42 103 -99c0 -77 -59 -133 -135 -133c-64 0 -103 41 -103 97zM360 693c0 -25 12 -37 37 -37c31 0 53 21 53 56c0 23 -14 36 -37 36c-31 0 -53 -23 -53 -55z" />
    <glyph glyph-name="ae" unicode="&#xe6;" horiz-adv-x="856" 
d="M752 159l63 -63c-51 -72 -138 -105 -231 -105c-85 0 -148 32 -187 96c-58 -62 -131 -93 -219 -93c-112 0 -164 58 -164 141c0 59 25 106 75 139s113 49 188 49c43 0 76 -5 101 -14c4 19 5 36 4 51c-4 44 -34 66 -89 66c-48 0 -99 -18 -153 -55l-50 80
c63 54 141 81 234 81c75 0 125 -25 151 -75c59 50 124 75 196 75c117 0 184 -50 184 -143c0 -58 -27 -104 -80 -137c-53 -34 -123 -51 -209 -51c-27 0 -56 2 -86 6c7 -72 53 -110 125 -110c63 0 112 21 147 62zM203 93c67 0 122 38 150 81l7 40c-24 9 -53 14 -88 14
c-83 0 -144 -29 -144 -80c-1 -39 24 -55 75 -55zM664 426c-75 0 -145 -50 -173 -126c24 -1 41 -2 52 -2c127 0 199 35 199 79c0 33 -26 49 -78 49z" />
    <glyph glyph-name="ccedilla" unicode="&#xe7;" horiz-adv-x="515" 
d="M131 -168l44 59c17 -15 40 -23 71 -23c28 0 42 8 42 24c0 13 -15 20 -44 20h-12l14 80c-119 11 -198 96 -198 220c0 92 29 168 86 229s128 91 212 91c104 0 175 -52 195 -121l-84 -52c-23 45 -63 68 -119 68c-49 0 -91 -19 -125 -57s-51 -86 -51 -144
c0 -83 53 -130 130 -130c54 0 101 25 142 74l73 -60c-45 -70 -112 -109 -201 -117l-4 -25c56 -4 84 -28 84 -71c0 -60 -54 -104 -146 -104c-46 0 -82 13 -109 39z" />
    <glyph glyph-name="egrave" unicode="&#xe8;" horiz-adv-x="533" 
d="M435 159l64 -63c-49 -72 -139 -105 -231 -105c-65 0 -118 20 -159 61c-41 40 -61 93 -61 160c0 91 31 167 92 228s133 92 215 92c117 0 184 -50 184 -143c0 -56 -25 -100 -76 -133s-118 -49 -200 -49c-36 0 -70 3 -101 8c5 -76 54 -119 127 -119c61 0 110 21 146 63z
M347 427c-72 0 -141 -49 -170 -121c24 -3 51 -5 80 -5c108 0 168 35 168 76c0 33 -26 50 -78 50zM476 652l-62 -54l-134 154l80 67z" />
    <glyph glyph-name="eacute" unicode="&#xe9;" horiz-adv-x="533" 
d="M435 159l64 -63c-49 -72 -139 -105 -231 -105c-65 0 -118 20 -159 61c-41 40 -61 93 -61 160c0 91 31 167 92 228s133 92 215 92c117 0 184 -50 184 -143c0 -56 -25 -100 -76 -133s-118 -49 -200 -49c-36 0 -70 3 -101 8c5 -76 54 -119 127 -119c61 0 110 21 146 63z
M347 427c-72 0 -141 -49 -170 -121c24 -3 51 -5 80 -5c108 0 168 35 168 76c0 33 -26 50 -78 50zM477 819l73 -64l-149 -157l-64 54z" />
    <glyph glyph-name="ecircumflex" unicode="&#xea;" horiz-adv-x="533" 
d="M435 159l64 -63c-49 -72 -139 -105 -231 -105c-65 0 -118 20 -159 61c-41 40 -61 93 -61 160c0 91 31 167 92 228s133 92 215 92c117 0 184 -50 184 -143c0 -56 -25 -100 -76 -133s-118 -49 -200 -49c-36 0 -70 3 -101 8c5 -76 54 -119 127 -119c61 0 110 21 146 63z
M347 427c-72 0 -141 -49 -170 -121c24 -3 51 -5 80 -5c108 0 168 35 168 76c0 33 -26 50 -78 50zM394 790h4l133 -135l-63 -66l-84 88l-111 -85l-51 68z" />
    <glyph glyph-name="edieresis" unicode="&#xeb;" horiz-adv-x="533" 
d="M435 159l64 -63c-49 -72 -139 -105 -231 -105c-65 0 -118 20 -159 61c-41 40 -61 93 -61 160c0 91 31 167 92 228s133 92 215 92c117 0 184 -50 184 -143c0 -56 -25 -100 -76 -133s-118 -49 -200 -49c-36 0 -70 3 -101 8c5 -76 54 -119 127 -119c61 0 110 21 146 63z
M347 427c-72 0 -141 -49 -170 -121c24 -3 51 -5 80 -5c108 0 168 35 168 76c0 33 -26 50 -78 50zM422 669c0 33 26 61 62 61c35 0 63 -28 63 -61s-28 -59 -63 -59c-36 0 -62 24 -62 59zM231 627c-24 23 -24 61 0 85s64 24 89 0c24 -24 24 -62 0 -85c-25 -23 -65 -23 -89 0z
" />
    <glyph glyph-name="igrave" unicode="&#xec;" horiz-adv-x="240" 
d="M175 0h-109l96 520h109zM293 652l-62 -54l-134 154l80 67z" />
    <glyph glyph-name="iacute" unicode="&#xed;" horiz-adv-x="240" 
d="M175 0h-109l96 520h109zM306 819l73 -64l-149 -157l-64 54z" />
    <glyph glyph-name="icircumflex" unicode="&#xee;" horiz-adv-x="240" 
d="M175 0h-109l96 520h109zM256 790h4l133 -135l-63 -66l-84 88l-111 -85l-51 68z" />
    <glyph glyph-name="idieresis" unicode="&#xef;" horiz-adv-x="240" 
d="M175 0h-109l96 520h109zM258 669c0 33 26 61 62 61c35 0 63 -28 63 -61s-28 -59 -63 -59c-36 0 -62 24 -62 59zM107 627c-24 23 -24 61 0 85s64 24 89 0c24 -24 24 -62 0 -85c-25 -23 -65 -23 -89 0z" />
    <glyph glyph-name="eth" unicode="&#xf0;" horiz-adv-x="584" 
d="M349 728l34 55l69 -32l-31 -50c111 -55 166 -151 166 -288c0 -140 -39 -253 -99 -320c-61 -67 -138 -102 -222 -102c-72 0 -129 21 -170 64c-41 42 -62 94 -62 155c0 66 16 123 48 172c31 49 70 84 117 107c46 22 95 33 148 33c57 0 99 -15 128 -46
c-13 63 -48 109 -106 138l-38 -63l-72 32l36 58c-21 5 -45 8 -74 10l42 95c31 -4 60 -10 86 -18zM148 226c0 -77 50 -129 129 -129c56 0 103 24 140 71s55 101 55 163c0 15 0 25 -1 31c-20 37 -70 60 -126 60c-53 0 -99 -18 -138 -54s-59 -83 -59 -142z" />
    <glyph glyph-name="ntilde" unicode="&#xf1;" horiz-adv-x="563" 
d="M139 0h-107l95 520h108l-8 -50c39 36 101 61 161 61c108 0 169 -54 169 -158c0 -23 -3 -52 -9 -88l-57 -285h-108l56 278c4 24 6 44 6 61c1 60 -30 87 -101 87c-58 0 -105 -29 -142 -87zM258 612l-41 56c31 37 83 68 120 68c21 0 43 -7 66 -22s40 -22 52 -22
c22 0 45 10 69 30l35 -60c-39 -43 -78 -64 -119 -64c-21 0 -42 7 -65 22c-23 14 -40 21 -52 21c-18 0 -40 -10 -65 -29z" />
    <glyph glyph-name="ograve" unicode="&#xf2;" horiz-adv-x="589" 
d="M48 206c0 95 31 173 92 234s135 92 221 92c69 0 125 -20 166 -61s62 -92 62 -155c0 -95 -29 -173 -88 -234s-132 -91 -219 -91c-72 0 -129 20 -171 61c-42 40 -63 91 -63 154zM162 229c0 -81 50 -132 134 -132c47 0 88 19 125 57c36 38 54 87 54 147
c0 77 -50 125 -127 125c-46 0 -88 -19 -127 -56s-59 -84 -59 -141zM481 652l-62 -54l-134 154l80 67z" />
    <glyph glyph-name="oacute" unicode="&#xf3;" horiz-adv-x="589" 
d="M48 206c0 95 31 173 92 234s135 92 221 92c69 0 125 -20 166 -61s62 -92 62 -155c0 -95 -29 -173 -88 -234s-132 -91 -219 -91c-72 0 -129 20 -171 61c-42 40 -63 91 -63 154zM162 229c0 -81 50 -132 134 -132c47 0 88 19 125 57c36 38 54 87 54 147
c0 77 -50 125 -127 125c-46 0 -88 -19 -127 -56s-59 -84 -59 -141zM496 819l73 -64l-149 -157l-64 54z" />
    <glyph glyph-name="ocircumflex" unicode="&#xf4;" horiz-adv-x="589" 
d="M48 206c0 95 31 173 92 234s135 92 221 92c69 0 125 -20 166 -61s62 -92 62 -155c0 -95 -29 -173 -88 -234s-132 -91 -219 -91c-72 0 -129 20 -171 61c-42 40 -63 91 -63 154zM162 229c0 -81 50 -132 134 -132c47 0 88 19 125 57c36 38 54 87 54 147
c0 77 -50 125 -127 125c-46 0 -88 -19 -127 -56s-59 -84 -59 -141zM415 790h4l133 -135l-63 -66l-84 88l-111 -85l-51 68z" />
    <glyph glyph-name="otilde" unicode="&#xf5;" horiz-adv-x="589" 
d="M48 206c0 95 31 173 92 234s135 92 221 92c69 0 125 -20 166 -61s62 -92 62 -155c0 -95 -29 -173 -88 -234s-132 -91 -219 -91c-72 0 -129 20 -171 61c-42 40 -63 91 -63 154zM162 229c0 -81 50 -132 134 -132c47 0 88 19 125 57c36 38 54 87 54 147
c0 77 -50 125 -127 125c-46 0 -88 -19 -127 -56s-59 -84 -59 -141zM267 612l-41 56c31 37 83 68 120 68c21 0 43 -7 66 -22s40 -22 52 -22c22 0 45 10 69 30l35 -60c-39 -43 -78 -64 -119 -64c-21 0 -42 7 -65 22c-23 14 -40 21 -52 21c-18 0 -40 -10 -65 -29z" />
    <glyph glyph-name="odieresis" unicode="&#xf6;" horiz-adv-x="589" 
d="M48 206c0 95 31 173 92 234s135 92 221 92c69 0 125 -20 166 -61s62 -92 62 -155c0 -95 -29 -173 -88 -234s-132 -91 -219 -91c-72 0 -129 20 -171 61c-42 40 -63 91 -63 154zM162 229c0 -81 50 -132 134 -132c47 0 88 19 125 57c36 38 54 87 54 147
c0 77 -50 125 -127 125c-46 0 -88 -19 -127 -56s-59 -84 -59 -141zM438 669c0 33 26 61 62 61c35 0 63 -28 63 -61s-28 -59 -63 -59c-36 0 -62 24 -62 59zM247 627c-24 23 -24 61 0 85s64 24 89 0c24 -24 24 -62 0 -85c-25 -23 -65 -23 -89 0z" />
    <glyph glyph-name="divide" unicode="&#xf7;" horiz-adv-x="566" 
d="M277 552c0 29 28 59 67 59c36 0 64 -30 64 -59c0 -32 -27 -60 -64 -60c-40 0 -67 28 -67 60zM277 167c0 31 28 59 67 59c36 0 64 -28 64 -59c0 -33 -27 -61 -64 -61c-40 0 -67 28 -67 61zM582 309h-478v101h478v-101z" />
    <glyph glyph-name="oslash" unicode="&#xf8;" horiz-adv-x="584" 
d="M70 211c0 90 31 166 92 228s134 93 220 93c45 0 86 -10 124 -31l63 65l66 -66l-61 -63c24 -34 36 -77 36 -129c0 -91 -29 -167 -88 -227s-132 -90 -219 -90c-49 0 -92 10 -127 30l-64 -67l-66 70l59 61c-23 35 -35 77 -35 126zM184 230c0 -23 2 -41 7 -54l233 240
c-18 7 -36 10 -54 10c-51 0 -94 -18 -131 -55s-55 -84 -55 -141zM496 291c0 26 -2 45 -7 57l-232 -242c16 -6 36 -9 60 -9c48 0 90 19 126 57c35 37 53 83 53 137z" />
    <glyph glyph-name="ugrave" unicode="&#xf9;" horiz-adv-x="550" 
d="M460 520h108l-98 -520h-108l10 55c-44 -43 -96 -64 -155 -64c-105 0 -168 55 -168 147c0 23 3 51 10 86l62 296h108l-60 -285c-4 -23 -6 -42 -6 -57c1 -55 24 -82 85 -82c59 0 108 30 148 91zM481 652l-62 -54l-134 154l80 67z" />
    <glyph glyph-name="uacute" unicode="&#xfa;" horiz-adv-x="550" 
d="M460 520h108l-98 -520h-108l10 55c-44 -43 -96 -64 -155 -64c-105 0 -168 55 -168 147c0 23 3 51 10 86l62 296h108l-60 -285c-4 -23 -6 -42 -6 -57c1 -55 24 -82 85 -82c59 0 108 30 148 91zM458 819l73 -64l-149 -157l-64 54z" />
    <glyph glyph-name="ucircumflex" unicode="&#xfb;" horiz-adv-x="550" 
d="M460 520h108l-98 -520h-108l10 55c-44 -43 -96 -64 -155 -64c-105 0 -168 55 -168 147c0 23 3 51 10 86l62 296h108l-60 -285c-4 -23 -6 -42 -6 -57c1 -55 24 -82 85 -82c59 0 108 30 148 91zM387 790h4l133 -135l-63 -66l-84 88l-111 -85l-51 68z" />
    <glyph glyph-name="udieresis" unicode="&#xfc;" horiz-adv-x="550" 
d="M460 520h108l-98 -520h-108l10 55c-44 -43 -96 -64 -155 -64c-105 0 -168 55 -168 147c0 23 3 51 10 86l62 296h108l-60 -285c-4 -23 -6 -42 -6 -57c1 -55 24 -82 85 -82c59 0 108 30 148 91zM413 669c0 33 26 61 62 61c35 0 63 -28 63 -61s-28 -59 -63 -59
c-36 0 -62 24 -62 59zM222 627c-24 23 -24 61 0 85s64 24 89 0c24 -24 24 -62 0 -85c-25 -23 -65 -23 -89 0z" />
    <glyph glyph-name="yacute" unicode="&#xfd;" horiz-adv-x="504" 
d="M0 -192l57 95c6 -4 13 -6 21 -6c26 0 57 31 92 92l26 47l-151 484h120l105 -351l196 351h122l-288 -505c-49 -85 -90 -143 -123 -176c-34 -32 -71 -48 -110 -48c-28 0 -50 6 -67 17zM453 819l73 -64l-149 -157l-64 54z" />
    <glyph glyph-name="thorn" unicode="&#xfe;" horiz-adv-x="560" 
d="M95 -200h-105l171 930h106l-47 -257c37 39 85 59 146 59c65 0 115 -18 148 -55s50 -84 50 -139c0 -105 -29 -189 -88 -252s-129 -95 -208 -95c-61 0 -104 14 -129 43zM336 426c-60 0 -112 -36 -141 -85l-33 -180c16 -43 51 -64 105 -64c47 0 90 19 127 57
c37 37 56 87 56 150c0 81 -38 122 -114 122z" />
    <glyph glyph-name="ydieresis" unicode="&#xff;" horiz-adv-x="504" 
d="M0 -192l57 95c6 -4 13 -6 21 -6c26 0 57 31 92 92l26 47l-151 484h120l105 -351l196 351h122l-288 -505c-49 -85 -90 -143 -123 -176c-34 -32 -71 -48 -110 -48c-28 0 -50 6 -67 17zM371 669c0 33 26 61 62 61c35 0 63 -28 63 -61s-28 -59 -63 -59c-36 0 -62 24 -62 59z
M180 627c-24 23 -24 61 0 85s64 24 89 0c24 -24 24 -62 0 -85c-25 -23 -65 -23 -89 0z" />
    <glyph glyph-name="Amacron" unicode="&#x100;" horiz-adv-x="669" 
d="M128 0h-129l421 700h87l163 -700h-118l-36 155h-297zM492 259l-60 260l-152 -260h212zM624 780h-292l17 95h292z" />
    <glyph glyph-name="amacron" unicode="&#x101;" horiz-adv-x="571" 
d="M490 0h-101l13 63c-25 -35 -87 -69 -159 -69c-120 0 -195 84 -195 207c0 99 31 179 93 240c61 61 131 91 209 91c60 0 103 -12 129 -35l4 23h104zM279 99c56 0 110 38 138 83l41 203c-19 28 -55 42 -106 42s-96 -19 -133 -58c-38 -39 -57 -90 -57 -151
c0 -79 45 -119 117 -119zM525 625h-267l18 95h266z" />
    <glyph glyph-name="Abreve" unicode="&#x102;" horiz-adv-x="669" 
d="M128 0h-129l421 700h87l163 -700h-118l-36 155h-297zM492 259l-60 260l-152 -260h212zM296 869l56 55c28 -41 71 -61 130 -61c53 0 100 20 141 61l47 -60c-51 -69 -116 -103 -194 -103c-93 0 -155 51 -180 108z" />
    <glyph glyph-name="abreve" unicode="&#x103;" horiz-adv-x="571" 
d="M490 0h-101l13 63c-25 -35 -87 -69 -159 -69c-120 0 -195 84 -195 207c0 99 31 179 93 240c61 61 131 91 209 91c60 0 103 -12 129 -35l4 23h104zM279 99c56 0 110 38 138 83l41 203c-19 28 -55 42 -106 42s-96 -19 -133 -58c-38 -39 -57 -90 -57 -151
c0 -79 45 -119 117 -119zM243 717l51 55c23 -35 57 -52 103 -52c45 0 84 18 118 53l40 -57c-42 -62 -96 -93 -163 -93c-71 0 -125 39 -149 94z" />
    <glyph glyph-name="Aogonek" unicode="&#x104;" horiz-adv-x="669" 
d="M617 -97l18 -77c-26 -17 -59 -26 -99 -26c-67 -1 -116 24 -116 84c0 63 53 104 130 124l-34 147h-297l-91 -155h-129l421 700h87l163 -700h-22c-28 -1 -54 -10 -77 -26c-24 -15 -36 -32 -36 -51c0 -20 12 -30 36 -30c15 0 31 3 46 10zM492 259l-60 260l-152 -260h212z
" />
    <glyph glyph-name="aogonek" unicode="&#x105;" horiz-adv-x="571" 
d="M453 -96l19 -73c-25 -21 -58 -31 -101 -31c-61 0 -108 28 -108 81c0 61 52 106 127 127l12 55c-25 -35 -87 -69 -159 -69c-120 0 -195 84 -195 207c0 99 31 179 93 240c61 61 131 91 209 91c60 0 103 -12 129 -35l4 23h104l-97 -520c-26 0 -50 -8 -73 -23
s-35 -33 -35 -52c0 -20 10 -30 30 -30c15 0 28 3 41 9zM279 99c56 0 110 38 138 83l41 203c-19 28 -55 42 -106 42s-96 -19 -133 -58c-38 -39 -57 -90 -57 -151c0 -79 45 -119 117 -119z" />
    <glyph glyph-name="Cacute" unicode="&#x106;" horiz-adv-x="657" 
d="M620 200l67 -84c-59 -71 -160 -124 -288 -124c-99 0 -175 28 -230 83s-82 129 -82 222c0 119 39 218 117 295c77 77 174 116 291 116c125 0 211 -48 246 -121l-82 -69c-43 49 -101 74 -173 74c-87 0 -155 -29 -203 -86c-49 -58 -73 -125 -73 -202
c0 -119 77 -196 194 -196c84 0 156 31 216 92zM658 949l41 -96l-224 -108l-36 72z" />
    <glyph glyph-name="cacute" unicode="&#x107;" horiz-adv-x="515" 
d="M434 170l73 -60c-52 -83 -143 -119 -236 -119c-66 0 -120 20 -161 61s-62 94 -62 160c0 92 29 168 86 229s128 91 212 91c104 0 175 -52 195 -121l-84 -52c-23 45 -63 68 -119 68c-49 0 -91 -19 -125 -57s-51 -86 -51 -144c0 -83 53 -130 130 -130c54 0 101 25 142 74z
M465 819l73 -64l-149 -157l-64 54z" />
    <glyph glyph-name="Ccircumflex" unicode="&#x108;" horiz-adv-x="657" 
d="M620 200l67 -84c-59 -71 -160 -124 -288 -124c-99 0 -175 28 -230 83s-82 129 -82 222c0 119 39 218 117 295c77 77 174 116 291 116c125 0 211 -48 246 -121l-82 -69c-43 49 -101 74 -173 74c-87 0 -155 -29 -203 -86c-49 -58 -73 -125 -73 -202
c0 -119 77 -196 194 -196c84 0 156 31 216 92zM522 928h4l158 -110l-47 -69l-122 79l-143 -79l-37 72z" />
    <glyph glyph-name="ccircumflex" unicode="&#x109;" horiz-adv-x="515" 
d="M434 170l73 -60c-52 -83 -143 -119 -236 -119c-66 0 -120 20 -161 61s-62 94 -62 160c0 92 29 168 86 229s128 91 212 91c104 0 175 -52 195 -121l-84 -52c-23 45 -63 68 -119 68c-49 0 -91 -19 -125 -57s-51 -86 -51 -144c0 -83 53 -130 130 -130c54 0 101 25 142 74z
M395 790h4l133 -135l-63 -66l-84 88l-111 -85l-51 68z" />
    <glyph glyph-name="Cdotaccent" unicode="&#x10a;" horiz-adv-x="657" 
d="M620 200l67 -84c-59 -71 -160 -124 -288 -124c-99 0 -175 28 -230 83s-82 129 -82 222c0 119 39 218 117 295c77 77 174 116 291 116c125 0 211 -48 246 -121l-82 -69c-43 49 -101 74 -173 74c-87 0 -155 -29 -203 -86c-49 -58 -73 -125 -73 -202
c0 -119 77 -196 194 -196c84 0 156 31 216 92zM471 783c-24 23 -24 63 0 87c23 23 63 23 87 0c23 -24 23 -64 0 -87c-24 -24 -64 -24 -87 0z" />
    <glyph glyph-name="cdotaccent" unicode="&#x10b;" horiz-adv-x="515" 
d="M434 170l73 -60c-52 -83 -143 -119 -236 -119c-66 0 -120 20 -161 61s-62 94 -62 160c0 92 29 168 86 229s128 91 212 91c104 0 175 -52 195 -121l-84 -52c-23 45 -63 68 -119 68c-49 0 -91 -19 -125 -57s-51 -86 -51 -144c0 -83 53 -130 130 -130c54 0 101 25 142 74z
M323 627c-24 23 -24 61 0 85c23 24 63 24 88 0c41 -36 10 -106 -45 -102c-17 0 -32 6 -43 17z" />
    <glyph glyph-name="Ccaron" unicode="&#x10c;" horiz-adv-x="657" 
d="M620 200l67 -84c-59 -71 -160 -124 -288 -124c-99 0 -175 28 -230 83s-82 129 -82 222c0 119 39 218 117 295c77 77 174 116 291 116c125 0 211 -48 246 -121l-82 -69c-43 49 -101 74 -173 74c-87 0 -155 -29 -203 -86c-49 -58 -73 -125 -73 -202
c0 -119 77 -196 194 -196c84 0 156 31 216 92zM498 750h-4l-158 110l47 69l122 -79l143 79l37 -72z" />
    <glyph glyph-name="ccaron" unicode="&#x10d;" horiz-adv-x="515" 
d="M434 170l73 -60c-52 -83 -143 -119 -236 -119c-66 0 -120 20 -161 61s-62 94 -62 160c0 92 29 168 86 229s128 91 212 91c104 0 175 -52 195 -121l-84 -52c-23 45 -63 68 -119 68c-49 0 -91 -19 -125 -57s-51 -86 -51 -144c0 -83 53 -130 130 -130c54 0 101 25 142 74z
M381 608h-4l-127 135l63 66l78 -88l111 85l51 -68z" />
    <glyph glyph-name="Dcaron" unicode="&#x10e;" horiz-adv-x="680" 
d="M262 0h-196l130 700h208c113 0 194 -26 244 -79s75 -120 75 -203c0 -268 -161 -418 -461 -418zM381 586h-91l-88 -472h90c208 0 309 108 309 288c0 123 -64 184 -220 184zM428 750h-4l-158 110l47 69l122 -79l143 79l37 -72z" />
    <glyph glyph-name="dcaron" unicode="&#x10f;" horiz-adv-x="580" 
d="M500 0h-101l13 63c-13 -17 -33 -32 -62 -47s-59 -22 -90 -22c-132 0 -212 85 -212 218c0 94 31 171 92 231c61 59 131 89 210 89c64 0 109 -12 135 -35l43 233h107zM289 99c56 0 110 38 138 83l37 203c-19 28 -57 42 -112 42s-100 -19 -136 -58s-54 -89 -54 -151
c0 -77 54 -119 127 -119zM722 731h113c3 -7 4 -19 4 -35c0 -87 -63 -159 -138 -200l-41 47c47 37 71 81 71 132c0 24 -3 43 -9 56z" />
    <glyph glyph-name="Dcroat" unicode="&#x110;" horiz-adv-x="739" 
d="M180 298h-111l19 101h111l56 301h207c110 0 191 -26 242 -78s77 -120 77 -203c0 -271 -157 -419 -460 -419h-196zM439 586h-90l-35 -187h166l-19 -101h-166l-34 -184h90c209 0 308 111 308 288c0 121 -65 184 -220 184z" />
    <glyph glyph-name="dslash" unicode="&#x111;" horiz-adv-x="551" 
d="M655 566h-50l-105 -566h-101l13 63c-13 -17 -33 -32 -62 -47s-59 -22 -90 -22c-132 0 -212 85 -212 218c0 94 31 171 92 231c61 59 131 89 210 89c64 0 109 -12 135 -35l13 69h-106l18 101h106l12 63h107l-11 -63h49zM289 99c56 0 110 38 138 83l37 203
c-19 28 -57 42 -112 42s-100 -19 -136 -58s-54 -89 -54 -151c0 -77 54 -119 127 -119z" />
    <glyph glyph-name="Emacron" unicode="&#x112;" horiz-adv-x="613" 
d="M570 0h-504l130 700h494l-21 -114h-379l-33 -176h355l-21 -110h-354l-35 -186h389zM600 780h-292l17 95h292z" />
    <glyph glyph-name="emacron" unicode="&#x113;" horiz-adv-x="533" 
d="M435 159l64 -63c-49 -72 -139 -105 -231 -105c-65 0 -118 20 -159 61c-41 40 -61 93 -61 160c0 91 31 167 92 228s133 92 215 92c117 0 184 -50 184 -143c0 -56 -25 -100 -76 -133s-118 -49 -200 -49c-36 0 -70 3 -101 8c5 -76 54 -119 127 -119c61 0 110 21 146 63z
M347 427c-72 0 -141 -49 -170 -121c24 -3 51 -5 80 -5c108 0 168 35 168 76c0 33 -26 50 -78 50zM526 625h-267l18 95h266z" />
    <glyph glyph-name="Edotaccent" unicode="&#x116;" horiz-adv-x="613" 
d="M570 0h-504l130 700h494l-21 -114h-379l-33 -176h355l-21 -110h-354l-35 -186h389zM424 783c-24 23 -24 63 0 87c24 23 62 23 86 0c24 -24 24 -64 0 -87c-24 -24 -62 -24 -86 0z" />
    <glyph glyph-name="edotaccent" unicode="&#x117;" horiz-adv-x="533" 
d="M435 159l64 -63c-49 -72 -139 -105 -231 -105c-65 0 -118 20 -159 61c-41 40 -61 93 -61 160c0 91 31 167 92 228s133 92 215 92c117 0 184 -50 184 -143c0 -56 -25 -100 -76 -133s-118 -49 -200 -49c-36 0 -70 3 -101 8c5 -76 54 -119 127 -119c61 0 110 21 146 63z
M347 427c-72 0 -141 -49 -170 -121c24 -3 51 -5 80 -5c108 0 168 35 168 76c0 33 -26 50 -78 50zM327 627c-24 23 -24 61 0 85c23 24 63 24 88 0c41 -36 10 -106 -45 -102c-17 0 -32 6 -43 17z" />
    <glyph glyph-name="Eogonek" unicode="&#x118;" horiz-adv-x="613" 
d="M443 0h-377l130 700h494l-21 -114h-379l-33 -176h355l-21 -110h-354l-35 -186h389l-21 -114h-5c-29 0 -55 -8 -80 -24s-37 -34 -37 -53c0 -20 12 -30 36 -30c16 0 31 3 45 10l19 -78c-25 -17 -60 -25 -104 -25c-65 -1 -112 27 -112 84c0 49 37 88 111 116z" />
    <glyph glyph-name="eogonek" unicode="&#x119;" horiz-adv-x="533" 
d="M281 -8c-5 -1 -10 -1 -13 -1c-65 0 -118 20 -159 61c-41 40 -61 93 -61 160c0 91 31 167 92 228s133 92 215 92c117 0 184 -50 184 -143c0 -56 -25 -100 -76 -133s-118 -49 -200 -49c-36 0 -70 3 -101 8c5 -76 54 -119 127 -119c61 0 110 21 146 63l64 -63
c-24 -35 -65 -65 -123 -91c-45 -32 -68 -59 -68 -80c0 -20 10 -30 30 -30c15 0 28 3 41 9l19 -73c-25 -21 -58 -31 -101 -31c-61 0 -108 28 -108 81c0 48 33 80 92 111zM347 427c-72 0 -141 -49 -170 -121c24 -3 51 -5 80 -5c108 0 168 35 168 76c0 33 -26 50 -78 50z" />
    <glyph glyph-name="Ecaron" unicode="&#x11a;" horiz-adv-x="613" 
d="M570 0h-504l130 700h494l-21 -114h-379l-33 -176h355l-21 -110h-354l-35 -186h389zM460 750h-4l-158 110l47 69l122 -79l143 79l37 -72z" />
    <glyph glyph-name="ecaron" unicode="&#x11b;" horiz-adv-x="533" 
d="M435 159l64 -63c-49 -72 -139 -105 -231 -105c-65 0 -118 20 -159 61c-41 40 -61 93 -61 160c0 91 31 167 92 228s133 92 215 92c117 0 184 -50 184 -143c0 -56 -25 -100 -76 -133s-118 -49 -200 -49c-36 0 -70 3 -101 8c5 -76 54 -119 127 -119c61 0 110 21 146 63z
M347 427c-72 0 -141 -49 -170 -121c24 -3 51 -5 80 -5c108 0 168 35 168 76c0 33 -26 50 -78 50zM380 608h-4l-127 135l63 66l78 -88l111 85l51 -68z" />
    <glyph glyph-name="Gcircumflex" unicode="&#x11c;" horiz-adv-x="679" 
d="M586 264h-177l21 110h287l-49 -278c-77 -69 -166 -104 -268 -104c-97 0 -174 27 -229 81s-83 127 -83 220c0 125 39 225 118 301s178 114 298 114c112 0 200 -42 237 -114l-83 -71c-39 46 -95 69 -170 69c-81 0 -147 -27 -199 -81c-53 -54 -79 -123 -79 -208
c0 -121 78 -195 198 -195c62 0 115 16 159 48zM522 928h4l158 -110l-47 -69l-122 79l-143 -79l-37 72z" />
    <glyph glyph-name="gcircumflex" unicode="&#x11d;" horiz-adv-x="577" 
d="M485 520h108l-88 -478c-31 -169 -129 -251 -274 -251c-107 0 -182 52 -198 135l97 41c13 -40 56 -71 112 -71c85 0 136 44 153 133l5 24c-35 -41 -83 -62 -144 -62c-63 0 -113 20 -151 61c-39 41 -58 91 -58 152c0 99 31 178 92 237s134 88 217 88c55 0 96 -14 123 -41z
M291 96c57 0 108 38 131 83l36 196c-18 33 -53 49 -105 49c-54 0 -99 -19 -136 -58s-56 -87 -56 -144c0 -79 47 -126 130 -126zM417 790h4l133 -135l-63 -66l-84 88l-111 -85l-51 68z" />
    <glyph glyph-name="Gbreve" unicode="&#x11e;" horiz-adv-x="679" 
d="M586 264h-177l21 110h287l-49 -278c-77 -69 -166 -104 -268 -104c-97 0 -174 27 -229 81s-83 127 -83 220c0 125 39 225 118 301s178 114 298 114c112 0 200 -42 237 -114l-83 -71c-39 46 -95 69 -170 69c-81 0 -147 -27 -199 -81c-53 -54 -79 -123 -79 -208
c0 -121 78 -195 198 -195c62 0 115 16 159 48zM350 869l56 55c28 -41 71 -61 130 -61c53 0 100 20 141 61l47 -60c-51 -69 -116 -103 -194 -103c-93 0 -155 51 -180 108z" />
    <glyph glyph-name="gbreve" unicode="&#x11f;" horiz-adv-x="577" 
d="M485 520h108l-88 -478c-31 -169 -129 -251 -274 -251c-107 0 -182 52 -198 135l97 41c13 -40 56 -71 112 -71c85 0 136 44 153 133l5 24c-35 -41 -83 -62 -144 -62c-63 0 -113 20 -151 61c-39 41 -58 91 -58 152c0 99 31 178 92 237s134 88 217 88c55 0 96 -14 123 -41z
M291 96c57 0 108 38 131 83l36 196c-18 33 -53 49 -105 49c-54 0 -99 -19 -136 -58s-56 -87 -56 -144c0 -79 47 -126 130 -126zM249 717l51 55c23 -35 57 -52 103 -52c45 0 84 18 118 53l40 -57c-42 -62 -96 -93 -163 -93c-71 0 -125 39 -149 94z" />
    <glyph glyph-name="Gdotaccent" unicode="&#x120;" horiz-adv-x="679" 
d="M586 264h-177l21 110h287l-49 -278c-77 -69 -166 -104 -268 -104c-97 0 -174 27 -229 81s-83 127 -83 220c0 125 39 225 118 301s178 114 298 114c112 0 200 -42 237 -114l-83 -71c-39 46 -95 69 -170 69c-81 0 -147 -27 -199 -81c-53 -54 -79 -123 -79 -208
c0 -121 78 -195 198 -195c62 0 115 16 159 48zM474 783c-24 23 -24 63 0 87c24 23 62 23 86 0c24 -24 24 -64 0 -87c-24 -24 -62 -24 -86 0z" />
    <glyph glyph-name="gdotaccent" unicode="&#x121;" horiz-adv-x="577" 
d="M485 520h108l-88 -478c-31 -169 -129 -251 -274 -251c-107 0 -182 52 -198 135l97 41c13 -40 56 -71 112 -71c85 0 136 44 153 133l5 24c-35 -41 -83 -62 -144 -62c-63 0 -113 20 -151 61c-39 41 -58 91 -58 152c0 99 31 178 92 237s134 88 217 88c55 0 96 -14 123 -41z
M291 96c57 0 108 38 131 83l36 196c-18 33 -53 49 -105 49c-54 0 -99 -19 -136 -58s-56 -87 -56 -144c0 -79 47 -126 130 -126zM354 627c-24 23 -24 61 0 85c23 24 63 24 88 0c41 -36 10 -106 -45 -102c-17 0 -32 6 -43 17z" />
    <glyph glyph-name="Gcommaaccent" unicode="&#x122;" horiz-adv-x="679" 
d="M586 264h-177l21 110h287l-49 -278c-77 -69 -166 -104 -268 -104c-97 0 -174 27 -229 81s-83 127 -83 220c0 125 39 225 118 301s178 114 298 114c112 0 200 -42 237 -114l-83 -71c-39 46 -95 69 -170 69c-81 0 -147 -27 -199 -81c-53 -54 -79 -123 -79 -208
c0 -121 78 -195 198 -195c62 0 115 16 159 48zM307 -98l98 60c19 -19 29 -43 29 -71c0 -36 -12 -69 -36 -99c-25 -30 -52 -53 -82 -70l-49 48c37 31 55 60 55 85c0 15 -5 30 -15 47z" />
    <glyph glyph-name="gcommaaccent" unicode="&#x123;" horiz-adv-x="577" 
d="M463 633l-101 -61c-19 19 -29 43 -29 71c0 36 12 69 36 99s51 53 81 70l44 -45c-33 -32 -50 -62 -50 -89c0 -12 6 -27 19 -45zM485 520h108l-88 -478c-31 -169 -129 -251 -274 -251c-107 0 -182 52 -198 135l97 41c13 -40 56 -71 112 -71c85 0 136 44 153 133l5 24
c-35 -41 -83 -62 -144 -62c-63 0 -113 20 -151 61c-39 41 -58 91 -58 152c0 99 31 178 92 237s134 88 217 88c55 0 96 -14 123 -41zM291 96c57 0 108 38 131 83l36 196c-18 33 -53 49 -105 49c-54 0 -99 -19 -136 -58s-56 -87 -56 -144c0 -79 47 -126 130 -126z" />
    <glyph glyph-name="Hcircumflex" unicode="&#x124;" horiz-adv-x="712" 
d="M645 0h-116l55 297h-347l-56 -297h-115l130 700h115l-54 -289h348l53 289h116zM518 928h4l158 -110l-47 -69l-122 79l-143 -79l-37 72z" />
    <glyph glyph-name="hcircumflex" unicode="&#x125;" horiz-adv-x="554" 
d="M130 0h-107l134 730h108l-47 -260c39 36 101 61 161 61c108 0 169 -54 169 -158c0 -29 -3 -58 -9 -88l-58 -285h-108l57 278c4 24 6 44 6 61c1 59 -29 86 -89 86c-57 0 -122 -34 -154 -86zM234 918h4l158 -110l-47 -69l-122 79l-143 -79l-37 72z" />
    <glyph glyph-name="Hbar" unicode="&#x126;" horiz-adv-x="712" 
d="M161 509h-67l18 96h67l17 95h115l-17 -95h348l17 95h115l-17 -95h67l-18 -96h-67l-94 -509h-115l55 297h-348l-56 -297h-115zM275 509l-18 -98h349l18 98h-349z" />
    <glyph glyph-name="hbar" unicode="&#x127;" horiz-adv-x="583" 
d="M156 566h-52l19 101h52l11 63h108l-11 -63h105l-19 -101h-105l-18 -96c47 41 101 61 162 61c113 0 169 -54 169 -162c0 -21 -3 -46 -8 -76l-59 -293h-108l58 286c3 21 5 38 5 50c0 59 -28 89 -85 89c-65 0 -123 -33 -158 -86l-63 -339h-109z" />
    <glyph glyph-name="Imacron" unicode="&#x12a;" horiz-adv-x="248" 
d="M181 0h-115l129 700h116zM414 780h-292l17 95h292z" />
    <glyph glyph-name="imacron" unicode="&#x12b;" horiz-adv-x="240" 
d="M175 0h-109l96 520h109zM369 625h-267l18 95h266z" />
    <glyph glyph-name="Iogonek" unicode="&#x12e;" horiz-adv-x="261" 
d="M149 -97l17 -77c-25 -17 -59 -26 -102 -26c-65 -1 -112 26 -112 82s40 97 121 124l129 694h115l-129 -700h-7c-28 0 -54 -8 -78 -25c-25 -16 -37 -33 -37 -52c0 -20 13 -30 38 -30c15 0 30 3 45 10z" />
    <glyph glyph-name="iogonek" unicode="&#x12f;" horiz-adv-x="240" 
d="M135 -96l19 -73c-25 -21 -59 -31 -102 -31c-61 0 -107 28 -107 81c0 60 50 104 122 125l95 514h109l-96 -520h-4c-26 0 -50 -8 -73 -24c-23 -15 -34 -33 -34 -53c0 -19 10 -28 31 -28c14 0 27 3 40 9zM197 627c-24 23 -24 61 0 85c23 24 63 24 88 0
c41 -36 10 -106 -45 -102c-17 0 -32 6 -43 17z" />
    <glyph glyph-name="Idot" unicode="&#x130;" horiz-adv-x="248" 
d="M181 0h-115l129 700h116zM235 783c-24 23 -24 63 0 87c23 23 63 23 87 0c23 -24 23 -64 0 -87c-24 -24 -64 -24 -87 0z" />
    <glyph glyph-name="dotlessi" unicode="&#x131;" horiz-adv-x="240" 
d="M175 0h-109l96 520h109z" />
    <glyph glyph-name="Jcircumflex" unicode="&#x134;" horiz-adv-x="462" 
d="M411 700h116l-89 -483c-13 -70 -38 -125 -73 -165s-90 -60 -163 -60c-96 0 -163 53 -184 132l90 63c21 -55 55 -82 101 -82c65 0 100 35 119 135zM495 928h4l158 -110l-47 -69l-122 79l-143 -79l-37 72z" />
    <glyph glyph-name="jcircumflex" unicode="&#x135;" horiz-adv-x="231" 
d="M136 520h108l-96 -521c-24 -133 -92 -208 -201 -208c-76 0 -122 34 -137 102l98 41c11 -25 27 -38 50 -38c43 0 70 35 83 106zM218 790h4l133 -135l-63 -66l-84 88l-111 -85l-51 68z" />
    <glyph glyph-name="Kcommaaccent" unicode="&#x136;" horiz-adv-x="646" 
d="M181 0h-115l130 700h115l-57 -307l339 307h166l-356 -319l249 -381h-142l-199 308l-87 -74zM224 -98l98 60c19 -19 29 -43 29 -71c0 -36 -12 -69 -36 -99c-25 -30 -52 -53 -82 -70l-49 48c37 31 55 60 55 85c0 15 -5 30 -15 47z" />
    <glyph glyph-name="kcommaaccent" unicode="&#x137;" horiz-adv-x="506" 
d="M139 0h-107l134 730h108l-77 -415l238 205h149l-272 -236l178 -284h-133l-137 225l-46 -35zM160 -96l99 58c19 -22 29 -46 29 -72c0 -35 -12 -68 -36 -98c-25 -30 -52 -53 -82 -70l-47 45c35 31 53 60 53 88c0 16 -5 32 -16 49z" />
    <glyph glyph-name="Lacute" unicode="&#x139;" horiz-adv-x="568" 
d="M559 0h-493l129 700h116l-109 -586h377zM579 949l41 -96l-224 -108l-36 72z" />
    <glyph glyph-name="lacute" unicode="&#x13a;" horiz-adv-x="223" 
d="M140 0h-108l135 730h108zM424 962l41 -96l-224 -108l-36 72z" />
    <glyph glyph-name="Lcommaaccent" unicode="&#x13b;" horiz-adv-x="568" 
d="M559 0h-493l129 700h116l-109 -586h377zM231 -98l98 60c19 -19 29 -43 29 -71c0 -36 -12 -69 -36 -99c-25 -30 -52 -53 -82 -70l-49 48c37 31 55 60 55 85c0 15 -5 30 -15 47z" />
    <glyph glyph-name="lcommaaccent" unicode="&#x13c;" horiz-adv-x="223" 
d="M140 0h-108l135 730h108zM12 -96l99 58c19 -22 29 -46 29 -72c0 -35 -12 -68 -36 -98c-25 -30 -52 -53 -82 -70l-47 45c35 31 53 60 53 88c0 16 -5 32 -16 49z" />
    <glyph glyph-name="Lcaron" unicode="&#x13d;" horiz-adv-x="568" 
d="M559 0h-493l129 700h116l-109 -586h377zM487 701h113c3 -7 4 -19 4 -35c0 -87 -63 -159 -138 -200l-41 47c47 37 71 81 71 132c0 24 -3 43 -9 56z" />
    <glyph glyph-name="lcaron" unicode="&#x13e;" horiz-adv-x="223" 
d="M140 0h-108l135 730h108zM348 731h113c3 -7 4 -19 4 -35c0 -87 -63 -159 -138 -200l-41 47c47 37 71 81 71 132c0 24 -3 43 -9 56z" />
    <glyph glyph-name="Ldot" unicode="&#x13f;" horiz-adv-x="568" 
d="M559 0h-493l129 700h116l-109 -586h377zM409 389c0 31 30 61 70 61c36 0 67 -30 67 -61c0 -35 -30 -64 -67 -64c-41 0 -70 29 -70 64z" />
    <glyph glyph-name="ldot" unicode="&#x140;" horiz-adv-x="304" 
d="M140 0h-108l135 730h108zM260 352c0 31 30 61 70 61c36 0 67 -30 67 -61c0 -35 -30 -64 -67 -64c-41 0 -70 29 -70 64z" />
    <glyph glyph-name="Lslash" unicode="&#x141;" horiz-adv-x="579" 
d="M111 183l-87 -59l23 133l88 59l71 384h115l-55 -296l209 140l-23 -132l-209 -141l-30 -157h377l-21 -114h-492z" />
    <glyph glyph-name="lslash" unicode="&#x142;" horiz-adv-x="296" 
d="M135 233l-106 -71l26 137l106 70l65 361h108l-50 -278l109 74l-25 -136l-110 -74l-58 -316h-108z" />
    <glyph glyph-name="Nacute" unicode="&#x143;" horiz-adv-x="701" 
d="M764 700l-129 -700h-90l-277 486l-89 -486h-113l130 700h89l276 -490l91 490h112zM655 949l41 -96l-224 -108l-36 72z" />
    <glyph glyph-name="nacute" unicode="&#x144;" horiz-adv-x="563" 
d="M139 0h-107l95 520h108l-8 -50c39 36 101 61 161 61c108 0 169 -54 169 -158c0 -23 -3 -52 -9 -88l-57 -285h-108l56 278c4 24 6 44 6 61c1 60 -30 87 -101 87c-58 0 -105 -29 -142 -87zM472 819l73 -64l-149 -157l-64 54z" />
    <glyph glyph-name="Ncommaaccent" unicode="&#x145;" horiz-adv-x="701" 
d="M764 700l-129 -700h-90l-277 486l-89 -486h-113l130 700h89l276 -490l91 490h112zM282 -98l98 60c19 -19 29 -43 29 -71c0 -36 -12 -69 -36 -99c-25 -30 -52 -53 -82 -70l-49 48c37 31 55 60 55 85c0 15 -5 30 -15 47z" />
    <glyph glyph-name="ncommaaccent" unicode="&#x146;" horiz-adv-x="563" 
d="M139 0h-107l95 520h108l-8 -50c39 36 101 61 161 61c108 0 169 -54 169 -158c0 -23 -3 -52 -9 -88l-57 -285h-108l56 278c4 24 6 44 6 61c1 60 -30 87 -101 87c-58 0 -105 -29 -142 -87zM194 -96l99 58c19 -22 29 -46 29 -72c0 -35 -12 -68 -36 -98
c-25 -30 -52 -53 -82 -70l-47 45c35 31 53 60 53 88c0 16 -5 32 -16 49z" />
    <glyph glyph-name="Ncaron" unicode="&#x147;" horiz-adv-x="701" 
d="M764 700l-129 -700h-90l-277 486l-89 -486h-113l130 700h89l276 -490l91 490h112zM493 750h-4l-158 110l47 69l122 -79l143 79l37 -72z" />
    <glyph glyph-name="ncaron" unicode="&#x148;" horiz-adv-x="563" 
d="M139 0h-107l95 520h108l-8 -50c39 36 101 61 161 61c108 0 169 -54 169 -158c0 -23 -3 -52 -9 -88l-57 -285h-108l56 278c4 24 6 44 6 61c1 60 -30 87 -101 87c-58 0 -105 -29 -142 -87zM386 608h-4l-127 135l63 66l78 -88l111 85l51 -68z" />
    <glyph glyph-name="Omacron" unicode="&#x14c;" horiz-adv-x="743" 
d="M89 290c0 117 38 216 113 297s170 121 287 121c89 0 160 -27 214 -80c53 -53 80 -126 80 -217c0 -117 -36 -216 -109 -297s-170 -122 -289 -122c-91 0 -163 27 -216 80s-80 125 -80 218zM211 307c0 -127 70 -199 183 -199c175 0 267 148 267 285c0 128 -68 199 -180 199
c-113 0 -201 -67 -240 -151c-20 -43 -30 -87 -30 -134zM661 780h-292l17 95h292z" />
    <glyph glyph-name="omacron" unicode="&#x14d;" horiz-adv-x="589" 
d="M48 206c0 95 31 173 92 234s135 92 221 92c69 0 125 -20 166 -61s62 -92 62 -155c0 -95 -29 -173 -88 -234s-132 -91 -219 -91c-72 0 -129 20 -171 61c-42 40 -63 91 -63 154zM162 229c0 -81 50 -132 134 -132c47 0 88 19 125 57c36 38 54 87 54 147
c0 77 -50 125 -127 125c-46 0 -88 -19 -127 -56s-59 -84 -59 -141zM544 625h-267l18 95h266z" />
    <glyph glyph-name="Ohungarumlaut" unicode="&#x150;" horiz-adv-x="743" 
d="M89 290c0 117 38 216 113 297s170 121 287 121c89 0 160 -27 214 -80c53 -53 80 -126 80 -217c0 -117 -36 -216 -109 -297s-170 -122 -289 -122c-91 0 -163 27 -216 80s-80 125 -80 218zM211 307c0 -127 70 -199 183 -199c175 0 267 148 267 285c0 128 -68 199 -180 199
c-113 0 -201 -67 -240 -151c-20 -43 -30 -87 -30 -134zM724 921l59 -76l-194 -106l-38 53zM524 921l62 -63l-170 -119l-43 49z" />
    <glyph glyph-name="ohungarumlaut" unicode="&#x151;" horiz-adv-x="589" 
d="M48 206c0 95 31 173 92 234s135 92 221 92c69 0 125 -20 166 -61s62 -92 62 -155c0 -95 -29 -173 -88 -234s-132 -91 -219 -91c-72 0 -129 20 -171 61c-42 40 -63 91 -63 154zM162 229c0 -81 50 -132 134 -132c47 0 88 19 125 57c36 38 54 87 54 147
c0 77 -50 125 -127 125c-46 0 -88 -19 -127 -56s-59 -84 -59 -141zM586 813l61 -58l-161 -157l-49 45zM431 819l62 -53l-152 -168l-50 46z" />
    <glyph glyph-name="OE" unicode="&#x152;" horiz-adv-x="1099" 
d="M1056 0h-503l8 42c-52 -33 -113 -50 -183 -50c-88 0 -158 28 -210 84c-53 55 -79 127 -79 214c0 117 38 216 114 297c75 81 173 121 294 121c68 0 127 -20 176 -60l9 52h494l-21 -114h-379l-32 -176h354l-20 -110h-354l-35 -186h388zM391 108c83 0 149 30 199 90l56 298
c-31 64 -86 96 -165 96c-81 0 -147 -28 -196 -84c-49 -57 -74 -124 -74 -201c0 -127 69 -199 180 -199z" />
    <glyph glyph-name="oe" unicode="&#x153;" horiz-adv-x="898" 
d="M797 159l64 -63c-49 -72 -139 -105 -231 -105c-68 0 -123 22 -164 65c-50 -43 -112 -65 -186 -65c-72 0 -129 20 -171 61c-43 40 -64 91 -64 154c0 94 31 172 93 234c61 61 135 92 220 92c73 0 129 -23 170 -69c57 46 120 69 189 69c117 0 184 -50 184 -143
c0 -56 -25 -100 -76 -133s-118 -49 -200 -49c-36 0 -70 3 -101 8c5 -76 54 -119 127 -119c61 0 110 21 146 63zM294 97c49 0 90 17 123 52c-5 23 -7 44 -7 63c0 59 14 114 43 164c-23 33 -59 50 -108 50c-46 0 -88 -19 -127 -56s-59 -84 -59 -141c0 -81 51 -132 135 -132z
M709 427c-72 0 -141 -49 -170 -121c24 -3 51 -5 80 -5c108 0 168 35 168 76c0 33 -26 50 -78 50z" />
    <glyph glyph-name="Racute" unicode="&#x154;" horiz-adv-x="649" 
d="M229 257l-48 -257h-115l130 700h261c163 0 227 -76 227 -191c0 -116 -72 -201 -189 -229l148 -280h-133l-131 257h-150zM433 586h-143l-40 -215h149c99 0 162 51 162 131c0 56 -43 84 -128 84zM589 949l41 -96l-224 -108l-36 72z" />
    <glyph glyph-name="racute" unicode="&#x155;" horiz-adv-x="344" 
d="M139 0h-107l96 520h107l-6 -35c17 27 61 46 98 46c43 0 72 -15 89 -46l-77 -83c-7 15 -22 23 -45 23c-35 0 -70 -26 -90 -73zM373 819l73 -64l-149 -157l-64 54z" />
    <glyph glyph-name="Rcommaaccent" unicode="&#x156;" horiz-adv-x="649" 
d="M229 257l-48 -257h-115l130 700h261c163 0 227 -76 227 -191c0 -116 -72 -201 -189 -229l148 -280h-133l-131 257h-150zM433 586h-143l-40 -215h149c99 0 162 51 162 131c0 56 -43 84 -128 84zM252 -98l98 60c19 -19 29 -43 29 -71c0 -36 -12 -69 -36 -99
c-25 -30 -52 -53 -82 -70l-49 48c37 31 55 60 55 85c0 15 -5 30 -15 47z" />
    <glyph glyph-name="rcommaaccent" unicode="&#x157;" horiz-adv-x="344" 
d="M139 0h-107l96 520h107l-6 -35c17 27 61 46 98 46c43 0 72 -15 89 -46l-77 -83c-7 15 -22 23 -45 23c-35 0 -70 -26 -90 -73zM19 -96l99 58c19 -22 29 -46 29 -72c0 -35 -12 -68 -36 -98c-25 -30 -52 -53 -82 -70l-47 45c35 31 53 60 53 88c0 16 -5 32 -16 49z" />
    <glyph glyph-name="Rcaron" unicode="&#x158;" horiz-adv-x="649" 
d="M229 257l-48 -257h-115l130 700h261c163 0 227 -76 227 -191c0 -116 -72 -201 -189 -229l148 -280h-133l-131 257h-150zM433 586h-143l-40 -215h149c99 0 162 51 162 131c0 56 -43 84 -128 84zM438 750h-4l-158 110l47 69l122 -79l143 79l37 -72z" />
    <glyph glyph-name="rcaron" unicode="&#x159;" horiz-adv-x="344" 
d="M139 0h-107l96 520h107l-6 -35c17 27 61 46 98 46c43 0 72 -15 89 -46l-77 -83c-7 15 -22 23 -45 23c-35 0 -70 -26 -90 -73zM291 608h-4l-127 135l63 66l78 -88l111 85l51 -68z" />
    <glyph glyph-name="Sacute" unicode="&#x15a;" horiz-adv-x="599" 
d="M488 202c0 75 -128 94 -230 129c-70 24 -126 78 -126 159c0 68 27 121 81 160s122 58 205 58c110 0 193 -34 249 -103l-73 -80c-53 45 -101 70 -186 70c-41 0 -76 -7 -107 -20s-47 -36 -47 -68c0 -74 129 -92 231 -129c70 -25 126 -79 126 -162c0 -67 -25 -121 -74 -162
c-50 -41 -119 -62 -207 -62c-130 0 -224 43 -282 130l79 80c51 -65 124 -97 218 -97c88 0 143 38 143 97zM609 949l41 -96l-224 -108l-36 72z" />
    <glyph glyph-name="sacute" unicode="&#x15b;" horiz-adv-x="450" 
d="M312 148c1 88 -225 63 -224 224c0 50 19 89 57 118c37 28 82 42 135 42c93 0 159 -29 198 -87l-73 -74c-28 37 -66 55 -115 55c-52 0 -88 -18 -88 -51c0 -73 224 -52 224 -220c0 -55 -20 -96 -61 -123s-87 -41 -139 -41c-107 0 -190 51 -222 126l86 61
c25 -54 72 -81 143 -81c44 0 79 18 79 51zM431 819l73 -64l-149 -157l-64 54z" />
    <glyph glyph-name="Scircumflex" unicode="&#x15c;" horiz-adv-x="599" 
d="M488 202c0 75 -128 94 -230 129c-70 24 -126 78 -126 159c0 68 27 121 81 160s122 58 205 58c110 0 193 -34 249 -103l-73 -80c-53 45 -101 70 -186 70c-41 0 -76 -7 -107 -20s-47 -36 -47 -68c0 -74 129 -92 231 -129c70 -25 126 -79 126 -162c0 -67 -25 -121 -74 -162
c-50 -41 -119 -62 -207 -62c-130 0 -224 43 -282 130l79 80c51 -65 124 -97 218 -97c88 0 143 38 143 97zM469 928h4l158 -110l-47 -69l-122 79l-143 -79l-37 72z" />
    <glyph glyph-name="scircumflex" unicode="&#x15d;" horiz-adv-x="450" 
d="M312 148c1 88 -225 63 -224 224c0 50 19 89 57 118c37 28 82 42 135 42c93 0 159 -29 198 -87l-73 -74c-28 37 -66 55 -115 55c-52 0 -88 -18 -88 -51c0 -73 224 -52 224 -220c0 -55 -20 -96 -61 -123s-87 -41 -139 -41c-107 0 -190 51 -222 126l86 61
c25 -54 72 -81 143 -81c44 0 79 18 79 51zM346 790h4l133 -135l-63 -66l-84 88l-111 -85l-51 68z" />
    <glyph glyph-name="Scedilla" unicode="&#x15e;" horiz-adv-x="599" 
d="M174 -161l47 54c18 -17 42 -25 71 -25c27 0 41 8 41 24c0 13 -14 20 -43 20h-12l15 81c-112 8 -194 51 -245 129l79 80c51 -65 124 -97 218 -97c88 0 143 38 143 97c0 75 -128 94 -230 129c-70 24 -126 78 -126 159c0 68 27 121 81 160s122 58 205 58
c110 0 193 -34 249 -103l-73 -80c-53 45 -101 70 -186 70c-41 0 -76 -7 -107 -20s-47 -36 -47 -68c0 -74 129 -92 231 -129c70 -25 126 -79 126 -162c0 -128 -96 -216 -259 -223l-4 -25c60 -3 90 -29 90 -79c0 -53 -47 -96 -142 -96c-51 0 -92 15 -122 46z" />
    <glyph glyph-name="scedilla" unicode="&#x15f;" horiz-adv-x="450" 
d="M68 -168l44 59c17 -15 40 -23 71 -23c28 0 42 8 42 24c0 13 -15 20 -44 20h-12l15 82c-87 12 -152 59 -180 123l86 61c25 -54 72 -81 143 -81c44 0 79 18 79 51c1 88 -225 63 -224 224c0 50 19 89 57 118c37 28 82 42 135 42c93 0 159 -29 198 -87l-73 -74
c-28 37 -66 55 -115 55c-52 0 -88 -18 -88 -51c0 -73 224 -52 224 -220c0 -51 -18 -90 -54 -117c-37 -27 -80 -43 -129 -46l-4 -24c56 -4 84 -28 84 -71c0 -60 -54 -104 -146 -104c-46 0 -82 13 -109 39z" />
    <glyph glyph-name="Scaron" unicode="&#x160;" horiz-adv-x="599" 
d="M488 202c0 75 -128 94 -230 129c-70 24 -126 78 -126 159c0 68 27 121 81 160s122 58 205 58c110 0 193 -34 249 -103l-73 -80c-53 45 -101 70 -186 70c-41 0 -76 -7 -107 -20s-47 -36 -47 -68c0 -74 129 -92 231 -129c70 -25 126 -79 126 -162c0 -67 -25 -121 -74 -162
c-50 -41 -119 -62 -207 -62c-130 0 -224 43 -282 130l79 80c51 -65 124 -97 218 -97c88 0 143 38 143 97zM442 750h-4l-158 110l47 69l122 -79l143 79l37 -72z" />
    <glyph glyph-name="scaron" unicode="&#x161;" horiz-adv-x="450" 
d="M312 148c1 88 -225 63 -224 224c0 50 19 89 57 118c37 28 82 42 135 42c93 0 159 -29 198 -87l-73 -74c-28 37 -66 55 -115 55c-52 0 -88 -18 -88 -51c0 -73 224 -52 224 -220c0 -55 -20 -96 -61 -123s-87 -41 -139 -41c-107 0 -190 51 -222 126l86 61
c25 -54 72 -81 143 -81c44 0 79 18 79 51zM325 608h-4l-127 135l63 66l78 -88l111 85l51 -68z" />
    <glyph glyph-name="Tcedilla" unicode="&#x162;" horiz-adv-x="563" 
d="M130 -161l47 54c18 -17 42 -25 71 -25c27 0 41 8 41 24c0 13 -14 20 -43 20h-12l17 88h-27l108 586h-223l21 114h562l-21 -114h-224l-108 -586h-29l-6 -32c60 -3 90 -29 90 -79c0 -53 -47 -96 -142 -96c-51 0 -92 15 -122 46z" />
    <glyph glyph-name="tcedilla" unicode="&#x163;" horiz-adv-x="376" 
d="M56 -168l44 59c17 -15 40 -23 71 -23c28 0 42 8 42 24c0 13 -15 20 -44 20h-12l15 85c-59 9 -97 49 -97 109c0 20 3 45 8 75l52 239h-93l18 100h94l21 107h107l-21 -107h152l-19 -100h-153l-45 -207c-5 -25 -7 -45 -7 -60c-1 -36 15 -54 46 -54s58 14 83 41l54 -68
c-32 -43 -79 -68 -140 -76l-5 -28c56 -4 84 -28 84 -71c0 -60 -54 -104 -146 -104c-46 0 -82 13 -109 39z" />
    <glyph glyph-name="Tcaron" unicode="&#x164;" horiz-adv-x="563" 
d="M332 586h-223l21 114h562l-21 -114h-224l-108 -586h-115zM415 750h-4l-158 110l47 69l122 -79l143 79l37 -72z" />
    <glyph glyph-name="tcaron" unicode="&#x165;" horiz-adv-x="392" 
d="M134 419h-92l18 101h94l19 107h108c-9 -49 -21 -111 -36 -187c-16 -77 -29 -141 -40 -192s-16 -82 -16 -93c0 -37 14 -55 51 -55c27 0 53 13 78 40l54 -67c-37 -53 -91 -79 -162 -79c-84 0 -135 42 -135 115c0 31 12 96 35 197c11 50 19 88 24 113zM366 711h113
c3 -7 4 -19 4 -35c0 -87 -63 -157 -138 -200l-40 47c47 37 71 81 71 132c0 25 -3 44 -10 56z" />
    <glyph glyph-name="Umacron" unicode="&#x16a;" horiz-adv-x="690" 
d="M670 700h115l-74 -402c-38 -203 -149 -305 -333 -305c-83 0 -147 27 -193 82c-46 54 -60 130 -42 229l73 396h115l-70 -381c-25 -139 25 -213 138 -213c107 0 174 70 200 209zM662 780h-292l17 95h292z" />
    <glyph glyph-name="umacron" unicode="&#x16b;" horiz-adv-x="550" 
d="M460 520h108l-98 -520h-108l10 55c-44 -43 -96 -64 -155 -64c-105 0 -168 55 -168 147c0 23 3 51 10 86l62 296h108l-60 -285c-4 -23 -6 -42 -6 -57c1 -55 24 -82 85 -82c59 0 108 30 148 91zM523 625h-267l18 95h266z" />
    <glyph glyph-name="Ubreve" unicode="&#x16c;" horiz-adv-x="690" 
d="M670 700h115l-74 -402c-38 -203 -149 -305 -333 -305c-83 0 -147 27 -193 82c-46 54 -60 130 -42 229l73 396h115l-70 -381c-25 -139 25 -213 138 -213c107 0 174 70 200 209zM342 869l56 55c28 -41 71 -61 130 -61c53 0 100 20 141 61l47 -60
c-51 -69 -116 -103 -194 -103c-93 0 -155 51 -180 108z" />
    <glyph glyph-name="ubreve" unicode="&#x16d;" horiz-adv-x="550" 
d="M460 520h108l-98 -520h-108l10 55c-44 -43 -96 -64 -155 -64c-105 0 -168 55 -168 147c0 23 3 51 10 86l62 296h108l-60 -285c-4 -23 -6 -42 -6 -57c1 -55 24 -82 85 -82c59 0 108 30 148 91zM220 717l51 55c23 -35 57 -52 103 -52c45 0 84 18 118 53l40 -57
c-42 -62 -96 -93 -163 -93c-71 0 -125 39 -149 94z" />
    <glyph glyph-name="Uring" unicode="&#x16e;" horiz-adv-x="690" 
d="M670 700h115l-74 -402c-38 -203 -149 -305 -333 -305c-83 0 -147 27 -193 82c-46 54 -60 130 -42 229l73 396h115l-70 -381c-25 -139 25 -213 138 -213c107 0 174 70 200 209zM390 823c0 39 15 70 44 92c29 21 63 32 102 32c75 0 123 -33 123 -94
c0 -80 -61 -126 -150 -126c-73 0 -119 33 -119 96zM473 830c0 -25 15 -37 45 -37c37 0 57 23 57 52c0 23 -15 35 -44 35c-35 0 -58 -19 -58 -50z" />
    <glyph glyph-name="uring" unicode="&#x16f;" horiz-adv-x="550" 
d="M460 520h108l-98 -520h-108l10 55c-44 -43 -96 -64 -155 -64c-105 0 -168 55 -168 147c0 23 3 51 10 86l62 296h108l-60 -285c-4 -23 -6 -42 -6 -57c1 -55 24 -82 85 -82c59 0 108 30 148 91zM258 683c0 79 58 135 135 135c63 0 103 -42 103 -99
c0 -77 -59 -133 -135 -133c-64 0 -103 41 -103 97zM332 693c0 -25 12 -37 37 -37c31 0 53 21 53 56c0 23 -14 36 -37 36c-31 0 -53 -23 -53 -55z" />
    <glyph glyph-name="Uhungarumlaut" unicode="&#x170;" horiz-adv-x="690" 
d="M670 700h115l-74 -402c-38 -203 -149 -305 -333 -305c-83 0 -147 27 -193 82c-46 54 -60 130 -42 229l73 396h115l-70 -381c-25 -139 25 -213 138 -213c107 0 174 70 200 209zM719 921l59 -76l-194 -106l-38 53zM519 921l62 -63l-170 -119l-43 49z" />
    <glyph glyph-name="uhungarumlaut" unicode="&#x171;" horiz-adv-x="550" 
d="M460 520h108l-98 -520h-108l10 55c-44 -43 -96 -64 -155 -64c-105 0 -168 55 -168 147c0 23 3 51 10 86l62 296h108l-60 -285c-4 -23 -6 -42 -6 -57c1 -55 24 -82 85 -82c59 0 108 30 148 91zM560 813l61 -58l-161 -157l-49 45zM405 819l62 -53l-152 -168l-50 46z" />
    <glyph glyph-name="Uogonek" unicode="&#x172;" horiz-adv-x="690" 
d="M371 -7c-79 0 -142 27 -187 82c-45 54 -59 130 -41 229l73 396h115l-70 -381c-25 -139 25 -213 138 -213c107 0 174 70 200 209l71 385h115l-74 -402c-33 -177 -122 -277 -268 -300c-25 -15 -46 -48 -46 -75c0 -20 12 -30 36 -30c16 0 31 3 46 10l18 -77
c-26 -17 -59 -26 -99 -26c-67 -1 -116 24 -116 84c0 40 30 76 89 109z" />
    <glyph glyph-name="uogonek" unicode="&#x173;" horiz-adv-x="550" 
d="M429 -96l19 -73c-25 -21 -58 -31 -101 -31c-61 0 -108 28 -108 81c0 60 52 105 124 126l9 48c-44 -43 -96 -64 -155 -64c-105 0 -168 55 -168 147c0 23 3 51 10 86l62 296h108l-60 -285c-4 -23 -6 -42 -6 -57c1 -55 24 -82 85 -82c59 0 108 30 148 91l64 333h108
l-98 -520h-4c-26 0 -50 -8 -73 -23s-35 -33 -35 -52c0 -20 10 -30 30 -30c15 0 28 3 41 9z" />
    <glyph glyph-name="Ydieresis" unicode="&#x178;" horiz-adv-x="637" 
d="M623 700h150l-342 -397l-56 -303h-115l56 303l-193 397h129l133 -280zM298 784c-25 24 -25 64 0 88c24 24 62 24 87 0c24 -24 24 -64 0 -88c-25 -24 -63 -24 -87 0zM528 784c-25 24 -25 64 0 88c24 24 62 24 87 0c24 -24 24 -64 0 -88c-25 -24 -63 -24 -87 0z" />
    <glyph glyph-name="Zacute" unicode="&#x179;" horiz-adv-x="601" 
d="M504 586h-368l21 114h545l-15 -81l-477 -505h393l-21 -114h-571l16 81zM592 949l41 -96l-224 -108l-36 72z" />
    <glyph glyph-name="zacute" unicode="&#x17a;" horiz-adv-x="479" 
d="M349 420h-261l17 100h421v-62l-350 -358h272l-18 -100h-430v68zM431 819l73 -64l-149 -157l-64 54z" />
    <glyph glyph-name="Zdotaccent" unicode="&#x17b;" horiz-adv-x="601" 
d="M504 586h-368l21 114h545l-15 -81l-477 -505h393l-21 -114h-571l16 81zM410 783c-24 23 -24 63 0 87c24 23 62 23 86 0c24 -24 24 -64 0 -87c-24 -24 -62 -24 -86 0z" />
    <glyph glyph-name="zdotaccent" unicode="&#x17c;" horiz-adv-x="479" 
d="M349 420h-261l17 100h421v-62l-350 -358h272l-18 -100h-430v68zM282 627c-24 23 -24 61 0 85c23 24 63 24 88 0c41 -36 10 -106 -45 -102c-17 0 -32 6 -43 17z" />
    <glyph glyph-name="Zcaron" unicode="&#x17d;" horiz-adv-x="601" 
d="M504 586h-368l21 114h545l-15 -81l-477 -505h393l-21 -114h-571l16 81zM443 750h-4l-158 110l47 69l122 -79l143 79l37 -72z" />
    <glyph glyph-name="zcaron" unicode="&#x17e;" horiz-adv-x="479" 
d="M349 420h-261l17 100h421v-62l-350 -358h272l-18 -100h-430v68zM355 608h-4l-127 135l63 66l78 -88l111 85l51 -68z" />
    <glyph glyph-name="uni018F" unicode="&#x18f;" horiz-adv-x="723" 
d="M78 253c0 54 13 108 39 161h527c3 111 -58 181 -191 181c-68 0 -156 -35 -216 -99l-68 82c68 80 174 130 297 130c197 0 299 -112 299 -289c0 -127 -37 -229 -111 -308s-172 -119 -293 -119c-83 0 -150 24 -203 73c-53 48 -80 111 -80 188zM628 301h-431
c-1 -13 -2 -23 -2 -30c0 -107 69 -166 178 -166c61 0 115 18 162 54s78 83 93 142z" />
    <glyph glyph-name="florin" unicode="&#x192;" horiz-adv-x="555" 
d="M335 481l-5 -24h144v-105h-162l-61 -342c-12 -64 -24 -105 -51 -150c-27 -44 -72 -68 -133 -68c-50 0 -90 16 -121 48l38 88c21 -20 45 -30 73 -30c40 0 65 30 76 89l66 365h-134v105h153l7 42c22 140 90 210 204 210c53 0 96 -13 127 -40l-41 -90c-23 16 -49 24 -78 24
c-59 0 -83 -33 -102 -122z" />
    <glyph glyph-name="uni01DD" unicode="&#x1dd;" horiz-adv-x="512" 
d="M132 367l-55 73c49 60 132 92 219 92c65 0 118 -20 159 -60c40 -41 60 -94 60 -161c0 -91 -30 -167 -90 -228s-132 -92 -216 -92c-109 0 -184 53 -184 148c0 55 23 100 69 135s109 53 188 53c39 0 78 -7 119 -21c-3 77 -51 120 -126 120c-54 0 -102 -20 -143 -59zM217 97
c71 0 135 42 166 109c-33 13 -68 19 -104 19c-84 0 -140 -32 -140 -72c0 -37 26 -56 78 -56z" />
    <glyph glyph-name="Scommaaccent" unicode="&#x218;" horiz-adv-x="599" 
d="M488 202c0 75 -128 94 -230 129c-70 24 -126 78 -126 159c0 68 27 121 81 160s122 58 205 58c110 0 193 -34 249 -103l-73 -80c-53 45 -101 70 -186 70c-41 0 -76 -7 -107 -20s-47 -36 -47 -68c0 -74 129 -92 231 -129c70 -25 126 -79 126 -162c0 -67 -25 -121 -74 -162
c-50 -41 -119 -62 -207 -62c-130 0 -224 43 -282 130l79 80c51 -65 124 -97 218 -97c88 0 143 38 143 97zM249 -98l98 60c19 -19 29 -43 29 -71c0 -36 -12 -69 -36 -99c-25 -30 -52 -53 -82 -70l-49 48c37 31 55 60 55 85c0 15 -5 30 -15 47z" />
    <glyph glyph-name="scommaaccent" unicode="&#x219;" horiz-adv-x="450" 
d="M312 148c1 88 -225 63 -224 224c0 50 19 89 57 118c37 28 82 42 135 42c93 0 159 -29 198 -87l-73 -74c-28 37 -66 55 -115 55c-52 0 -88 -18 -88 -51c0 -73 224 -52 224 -220c0 -55 -20 -96 -61 -123s-87 -41 -139 -41c-107 0 -190 51 -222 126l86 61
c25 -54 72 -81 143 -81c44 0 79 18 79 51zM143 -96l99 58c19 -22 29 -46 29 -72c0 -35 -12 -68 -36 -98c-25 -30 -52 -53 -82 -70l-47 45c35 31 53 60 53 88c0 16 -5 32 -16 49z" />
    <glyph glyph-name="Tcommaaccent" unicode="&#x21a;" horiz-adv-x="563" 
d="M332 586h-223l21 114h562l-21 -114h-224l-108 -586h-115zM203 -98l98 60c19 -19 29 -43 29 -71c0 -36 -12 -69 -36 -99c-25 -30 -52 -53 -82 -70l-49 48c37 31 55 60 55 85c0 15 -5 30 -15 47z" />
    <glyph glyph-name="tcommaaccent" unicode="&#x21b;" horiz-adv-x="376" 
d="M135 420h-93l18 100h94l21 107h107l-21 -107h152l-19 -100h-153l-45 -207c-5 -25 -7 -45 -7 -60c-1 -36 15 -54 46 -54s58 14 83 41l54 -68c-36 -48 -100 -78 -168 -78c-76 0 -129 43 -129 112c0 20 3 45 8 75zM139 -96l99 58c19 -22 29 -46 29 -72
c0 -35 -12 -68 -36 -98c-25 -30 -52 -53 -82 -70l-47 45c35 31 53 60 53 88c0 16 -5 32 -16 49z" />
    <glyph glyph-name="uni0237" unicode="&#x237;" horiz-adv-x="231" 
d="M136 520h108l-96 -521c-24 -133 -92 -208 -201 -208c-76 0 -122 34 -137 102l98 41c11 -25 27 -38 50 -38c43 0 70 35 83 106z" />
    <glyph glyph-name="uni0259" unicode="&#x259;" horiz-adv-x="512" 
d="M132 367l-55 73c49 60 132 92 219 92c65 0 118 -20 159 -60c40 -41 60 -94 60 -161c0 -91 -30 -167 -90 -228s-132 -92 -216 -92c-109 0 -184 53 -184 148c0 55 23 100 69 135s109 53 188 53c39 0 78 -7 119 -21c-3 77 -51 120 -126 120c-54 0 -102 -20 -143 -59zM217 97
c71 0 135 42 166 109c-33 13 -68 19 -104 19c-84 0 -140 -32 -140 -72c0 -37 26 -56 78 -56z" />
    <glyph glyph-name="afii57929" unicode="&#x2bc;" horiz-adv-x="188" 
d="M183 679l98 58c18 -20 27 -46 27 -77c0 -79 -61 -144 -136 -188l-41 49c43 35 65 70 65 104c0 21 -4 39 -13 54z" />
    <glyph glyph-name="circumflex" unicode="&#x2c6;" horiz-adv-x="438" 
d="M430 790h4l133 -135l-63 -66l-84 88l-111 -85l-51 68z" />
    <glyph glyph-name="caron" unicode="&#x2c7;" horiz-adv-x="435" 
d="M400 608h-4l-127 135l63 66l78 -88l111 85l51 -68z" />
    <glyph glyph-name="breve" unicode="&#x2d8;" horiz-adv-x="439" 
d="M271 717l51 55c23 -35 57 -52 103 -52c45 0 84 18 118 53l40 -57c-42 -62 -96 -93 -163 -93c-71 0 -125 39 -149 94z" />
    <glyph glyph-name="dotaccent" unicode="&#x2d9;" horiz-adv-x="237" 
d="M163 627c-24 23 -24 61 0 85c23 24 63 24 88 0c41 -36 10 -106 -45 -102c-17 0 -32 6 -43 17z" />
    <glyph glyph-name="ring" unicode="&#x2da;" horiz-adv-x="408" 
d="M302 683c0 79 58 135 135 135c63 0 103 -42 103 -99c0 -77 -59 -133 -135 -133c-64 0 -103 41 -103 97zM376 693c0 -25 12 -37 37 -37c31 0 53 21 53 56c0 23 -14 36 -37 36c-31 0 -53 -23 -53 -55z" />
    <glyph glyph-name="ogonek" unicode="&#x2db;" horiz-adv-x="365" 
d="M314 -96l19 -73c-25 -21 -58 -31 -101 -31c-61 0 -108 28 -108 81c0 61 60 109 128 129c34 9 68 14 103 13l-4 -23c-26 0 -50 -8 -73 -23s-35 -33 -35 -52c0 -20 10 -30 30 -30c15 0 28 3 41 9z" />
    <glyph glyph-name="tilde" unicode="&#x2dc;" horiz-adv-x="443" 
d="M272 612l-41 56c31 37 83 68 120 68c21 0 43 -7 66 -22s40 -22 52 -22c22 0 45 10 69 30l35 -60c-39 -43 -78 -64 -119 -64c-21 0 -42 7 -65 22c-23 14 -40 21 -52 21c-18 0 -40 -10 -65 -29z" />
    <glyph glyph-name="hungarumlaut" unicode="&#x2dd;" horiz-adv-x="510" 
d="M589 813l61 -58l-161 -157l-49 45zM434 819l62 -53l-152 -168l-50 46z" />
    <glyph glyph-name="gravecomb" unicode="&#x300;" horiz-adv-x="0" 
d="M-102 652l-62 -54l-134 154l80 67z" />
    <glyph glyph-name="acutecomb" unicode="&#x301;" horiz-adv-x="0" 
d="M-86 819l73 -64l-149 -157l-64 54z" />
    <glyph glyph-name="uni0394" unicode="&#x394;" horiz-adv-x="726" 
d="M768 0h-690l303 707h78zM597 103l-177 406l-173 -406h350z" />
    <glyph glyph-name="uni0394" unicode="&#x2206;" horiz-adv-x="726" 
d="M768 0h-690l303 707h78zM597 103l-177 406l-173 -406h350z" />
    <glyph glyph-name="uni03A9" unicode="&#x3a9;" horiz-adv-x="821" 
d="M430 0h-311v117h124c-29 11 -56 41 -82 90s-39 105 -39 169c0 100 33 181 99 242c65 61 149 92 250 92c102 0 186 -30 251 -91s97 -142 97 -243c0 -67 -13 -122 -40 -167s-57 -76 -89 -92h132v-117h-312v117c51 15 94 46 130 92c36 45 54 98 54 157c0 61 -21 114 -62 159
c-42 45 -96 68 -161 68c-69 0 -123 -22 -163 -65c-41 -44 -61 -99 -61 -164c0 -59 18 -112 55 -159c36 -47 79 -76 128 -88v-117z" />
    <glyph glyph-name="uni03A9" unicode="&#x2126;" horiz-adv-x="821" 
d="M430 0h-311v117h124c-29 11 -56 41 -82 90s-39 105 -39 169c0 100 33 181 99 242c65 61 149 92 250 92c102 0 186 -30 251 -91s97 -142 97 -243c0 -67 -13 -122 -40 -167s-57 -76 -89 -92h132v-117h-312v117c51 15 94 46 130 92c36 45 54 98 54 157c0 61 -21 114 -62 159
c-42 45 -96 68 -161 68c-69 0 -123 -22 -163 -65c-41 -44 -61 -99 -61 -164c0 -59 18 -112 55 -159c36 -47 79 -76 128 -88v-117z" />
    <glyph glyph-name="pi" unicode="&#x3c0;" horiz-adv-x="667" 
d="M203 414h-101v106h583v-106h-94v-257c0 -44 13 -61 41 -61c17 0 35 7 56 22l26 -86c-35 -28 -75 -42 -120 -42c-77 0 -116 50 -116 151v273h-162v-63c-5 -294 -59 -358 -224 -360l-9 109c73 0 116 26 119 232z" />
    <glyph glyph-name="afii10023" unicode="&#x401;" horiz-adv-x="613" 
d="M570 0h-504l130 700h494l-21 -114h-379l-33 -176h355l-21 -110h-354l-35 -186h389zM298 784c-25 24 -25 64 0 88c24 24 62 24 87 0c24 -24 24 -64 0 -88c-25 -24 -63 -24 -87 0zM528 784c-25 24 -25 64 0 88c24 24 62 24 87 0c24 -24 24 -64 0 -88c-25 -24 -63 -24 -87 0
z" />
    <glyph glyph-name="afii10051" unicode="&#x402;" horiz-adv-x="716" 
d="M609 234c0 63 -33 99 -90 99c-51 0 -102 -26 -133 -66l-50 -267h-115l109 587h-221l21 113h558l-21 -113h-222l-36 -190c40 33 91 49 152 49c117 0 170 -76 170 -196c0 -75 -20 -136 -59 -185s-92 -74 -158 -74c-55 0 -96 19 -123 57l72 81c17 -17 35 -25 56 -25
c55 0 90 53 90 130z" />
    <glyph glyph-name="afii10052" unicode="&#x403;" horiz-adv-x="551" 
d="M181 0h-115l129 700h485l-21 -114h-369zM595 949l41 -96l-224 -108l-36 72z" />
    <glyph glyph-name="afii10053" unicode="&#x404;" horiz-adv-x="653" 
d="M228 413h308l-21 -113h-305c-8 -129 68 -195 188 -195c83 0 150 29 202 88l82 -65c-66 -91 -165 -136 -297 -136c-185 0 -297 114 -297 305c0 122 39 221 117 297c77 76 176 114 295 114c51 0 99 -10 144 -31c44 -21 74 -53 90 -94l-91 -62c-33 49 -86 74 -161 74
c-112 0 -210 -69 -254 -182z" />
    <glyph glyph-name="afii10054" unicode="&#x405;" horiz-adv-x="599" 
d="M488 202c0 75 -128 94 -230 129c-70 24 -126 78 -126 159c0 68 27 121 81 160s122 58 205 58c110 0 193 -34 249 -103l-73 -80c-53 45 -101 70 -186 70c-41 0 -76 -7 -107 -20s-47 -36 -47 -68c0 -74 129 -92 231 -129c70 -25 126 -79 126 -162c0 -67 -25 -121 -74 -162
c-50 -41 -119 -62 -207 -62c-130 0 -224 43 -282 130l79 80c51 -65 124 -97 218 -97c88 0 143 38 143 97z" />
    <glyph glyph-name="afii10055" unicode="&#x406;" horiz-adv-x="248" 
d="M181 0h-115l129 700h116z" />
    <glyph glyph-name="afii10056" unicode="&#x407;" horiz-adv-x="261" 
d="M188 0h-115l129 700h115zM153 764c-24 23 -24 59 0 83c23 23 59 23 83 0c23 -24 23 -60 0 -83c-24 -24 -60 -24 -83 0zM323 764c-24 23 -24 59 0 83c23 23 59 23 83 0c23 -24 23 -60 0 -83c-24 -24 -60 -24 -83 0z" />
    <glyph glyph-name="afii10057" unicode="&#x408;" horiz-adv-x="462" 
d="M411 700h116l-89 -483c-13 -70 -38 -125 -73 -165s-90 -60 -163 -60c-96 0 -163 53 -184 132l90 63c21 -55 55 -82 101 -82c65 0 100 35 119 135z" />
    <glyph glyph-name="afii10058" unicode="&#x409;" horiz-adv-x="994" 
d="M484 0l109 586h-234l-17 -94c-33 -187 -72 -316 -116 -388c-44 -73 -102 -109 -173 -109c-3 0 -21 1 -53 4l22 117c49 -5 77 6 113 64c35 58 65 172 101 365l28 155h465l-46 -250h112c150 0 225 -63 225 -189c0 -194 -137 -261 -320 -261h-216zM772 336h-110l-42 -222
h105c115 0 173 43 173 130c0 65 -42 92 -126 92z" />
    <glyph glyph-name="afii10059" unicode="&#x40a;" horiz-adv-x="995" 
d="M734 700l-49 -268h112c147 0 221 -60 221 -181c0 -169 -115 -251 -311 -251h-217l59 318h-309l-59 -318h-115l130 700h115l-50 -268h309l49 268h115zM775 318h-111l-38 -204h105c110 0 165 41 165 122c0 59 -38 82 -121 82z" />
    <glyph glyph-name="afii10060" unicode="&#x40b;" horiz-adv-x="698" 
d="M330 586h-221l21 114h558l-21 -114h-222l-35 -185c47 30 92 45 137 45c103 0 166 -54 166 -155c0 -31 -3 -61 -9 -91l-37 -200h-115l34 195c4 24 6 43 6 58c0 53 -28 80 -84 80c-40 0 -89 -23 -121 -59l-51 -274h-115z" />
    <glyph glyph-name="afii10061" unicode="&#x40c;" horiz-adv-x="646" 
d="M181 0h-115l130 700h115l-57 -307l339 307h166l-356 -319l249 -381h-142l-199 308l-87 -74zM594 949l41 -96l-224 -108l-36 72z" />
    <glyph glyph-name="afii10062" unicode="&#x40e;" horiz-adv-x="672" 
d="M187 14l45 103c9 -5 19 -7 30 -7c23 0 51 27 84 81l-217 509h127l161 -393l248 393h136l-345 -538c-37 -58 -69 -100 -98 -126s-64 -39 -105 -39c-27 0 -49 6 -66 17zM315 908h106c6 -39 32 -59 77 -59c46 0 76 20 89 59h108c-17 -93 -89 -158 -204 -158
c-111 0 -177 65 -176 158z" />
    <glyph glyph-name="afii10145" unicode="&#x40f;" horiz-adv-x="696" 
d="M293 0h-227l130 700h115l-109 -587h334l108 587h115l-129 -700h-226l-27 -144h-111z" />
    <glyph glyph-name="afii10017" unicode="&#x410;" horiz-adv-x="669" 
d="M128 0h-129l421 700h87l163 -700h-118l-36 155h-297zM492 259l-60 260l-152 -260h212z" />
    <glyph glyph-name="afii10018" unicode="&#x411;" horiz-adv-x="629" 
d="M196 700h486l-21 -114h-371l-30 -159h173c142 0 213 -59 213 -178c0 -171 -106 -249 -315 -249h-265zM400 313h-161l-37 -199h155c111 0 167 41 167 122c0 51 -41 77 -124 77z" />
    <glyph glyph-name="afii10019" unicode="&#x412;" horiz-adv-x="641" 
d="M348 0h-282l130 700h282c135 0 203 -55 203 -166c0 -73 -40 -138 -112 -169c51 -23 77 -67 77 -132c0 -79 -27 -137 -82 -175c-55 -39 -127 -58 -216 -58zM399 302h-162l-35 -188h154c112 0 168 36 168 108c0 56 -37 80 -125 80zM442 586h-152l-33 -174h165
c81 0 134 35 134 104c0 48 -33 70 -114 70z" />
    <glyph glyph-name="afii10020" unicode="&#x413;" horiz-adv-x="551" 
d="M181 0h-115l129 700h485l-21 -114h-369z" />
    <glyph glyph-name="afii10021" unicode="&#x414;" horiz-adv-x="706" 
d="M88 -123h-111l44 236h71c31 39 60 93 86 164c25 70 51 177 78 321l19 102h470l-109 -587h81l-43 -236h-112l23 123h-474zM609 587h-240l-9 -44c-40 -213 -86 -357 -139 -430h301z" />
    <glyph glyph-name="afii10022" unicode="&#x415;" horiz-adv-x="613" 
d="M570 0h-504l130 700h494l-21 -114h-379l-33 -176h355l-21 -110h-354l-35 -186h389z" />
    <glyph glyph-name="afii10024" unicode="&#x416;" horiz-adv-x="901" 
d="M0 0l347 396l-213 304h138l197 -281l53 281h114l-52 -281l291 281h153l-334 -318l207 -382h-135l-167 312l-40 -36l-52 -276h-115l53 284l-26 32l-277 -316h-142z" />
    <glyph glyph-name="afii10025" unicode="&#x417;" horiz-adv-x="617" 
d="M320 -10c-137 0 -239 53 -282 152l96 63c37 -68 103 -102 198 -102c101 0 174 47 174 119c0 52 -46 78 -139 78h-111l20 114h106c103 0 157 44 157 103c0 55 -56 80 -133 80c-74 0 -139 -30 -196 -90l-81 67c70 91 168 136 294 136c145 0 234 -64 234 -176
c0 -79 -40 -136 -121 -170c59 -22 88 -66 88 -131c0 -76 -28 -135 -83 -178c-56 -43 -130 -65 -221 -65z" />
    <glyph glyph-name="afii10026" unicode="&#x418;" horiz-adv-x="710" 
d="M615 475l-453 -475h-96l129 700h116l-88 -476l452 476h97l-129 -700h-115z" />
    <glyph glyph-name="afii10027" unicode="&#x419;" horiz-adv-x="710" 
d="M615 475l-453 -475h-96l129 700h116l-88 -476l452 476h97l-129 -700h-115zM324 908h106c6 -39 32 -59 77 -59c46 0 76 20 89 59h108c-17 -93 -89 -158 -204 -158c-111 0 -177 65 -176 158z" />
    <glyph glyph-name="afii10028" unicode="&#x41a;" horiz-adv-x="646" 
d="M181 0h-115l130 700h115l-57 -307l339 307h166l-356 -319l249 -381h-142l-199 308l-87 -74z" />
    <glyph glyph-name="afii10029" unicode="&#x41b;" horiz-adv-x="682" 
d="M616 0h-115l108 587h-250l-17 -95c-72 -385 -147 -496 -289 -497c-3 0 -21 1 -53 4l22 117c4 -1 11 -1 21 -1c27 0 50 10 69 30s39 62 60 126s42 155 64 274l28 155h481z" />
    <glyph glyph-name="afii10030" unicode="&#x41c;" horiz-adv-x="802" 
d="M181 0h-115l129 700h92l177 -322l287 322h113l-129 -700h-115l90 485l-254 -278h-29l-156 279z" />
    <glyph glyph-name="afii10031" unicode="&#x41d;" horiz-adv-x="712" 
d="M645 0h-116l55 297h-347l-56 -297h-115l130 700h115l-54 -289h348l53 289h116z" />
    <glyph glyph-name="afii10032" unicode="&#x41e;" horiz-adv-x="743" 
d="M89 290c0 117 38 216 113 297s170 121 287 121c89 0 160 -27 214 -80c53 -53 80 -126 80 -217c0 -117 -36 -216 -109 -297s-170 -122 -289 -122c-91 0 -163 27 -216 80s-80 125 -80 218zM211 307c0 -127 70 -199 183 -199c175 0 267 148 267 285c0 128 -68 199 -180 199
c-113 0 -201 -67 -240 -151c-20 -43 -30 -87 -30 -134z" />
    <glyph glyph-name="afii10033" unicode="&#x41f;" horiz-adv-x="709" 
d="M642 0h-115l109 586h-346l-109 -586h-115l130 700h575z" />
    <glyph glyph-name="afii10034" unicode="&#x420;" horiz-adv-x="644" 
d="M226 240l-45 -240h-115l130 700h269c86 0 147 -18 184 -55s55 -85 55 -143c0 -78 -28 -141 -83 -189c-55 -49 -136 -73 -242 -73h-153zM447 587h-157l-43 -234h151c124 0 183 54 183 139c0 63 -45 95 -134 95z" />
    <glyph glyph-name="afii10035" unicode="&#x421;" horiz-adv-x="657" 
d="M620 200l67 -84c-59 -71 -160 -124 -288 -124c-99 0 -175 28 -230 83s-82 129 -82 222c0 119 39 218 117 295c77 77 174 116 291 116c125 0 211 -48 246 -121l-82 -69c-43 49 -101 74 -173 74c-87 0 -155 -29 -203 -86c-49 -58 -73 -125 -73 -202
c0 -119 77 -196 194 -196c84 0 156 31 216 92z" />
    <glyph glyph-name="afii10036" unicode="&#x422;" horiz-adv-x="563" 
d="M332 586h-223l21 114h562l-21 -114h-224l-108 -586h-115z" />
    <glyph glyph-name="afii10037" unicode="&#x423;" horiz-adv-x="672" 
d="M187 14l45 103c9 -5 19 -7 30 -7c23 0 51 27 84 81l-217 509h127l161 -393l248 393h136l-345 -538c-37 -58 -69 -100 -98 -126s-64 -39 -105 -39c-27 0 -49 6 -66 17z" />
    <glyph glyph-name="afii10038" unicode="&#x424;" horiz-adv-x="833" 
d="M471 -15h-114l15 83h-3c-84 0 -152 22 -204 67c-53 44 -79 107 -79 188c0 147 82 251 198 296c58 22 124 33 197 33l11 63h114l-11 -63c93 0 164 -23 213 -69c49 -47 73 -107 73 -181c0 -108 -37 -191 -110 -248c-74 -57 -167 -86 -280 -86h-5zM576 539h-2l-67 -358h5
c73 0 132 19 178 56s69 87 69 152c0 100 -61 150 -183 150zM208 331c0 -96 62 -150 181 -150h4l67 358c-74 0 -134 -18 -181 -53c-47 -36 -71 -88 -71 -155z" />
    <glyph glyph-name="afii10039" unicode="&#x425;" horiz-adv-x="648" 
d="M615 700h148l-305 -347l184 -353h-132l-133 257l-225 -257h-145l317 360l-178 340h130l128 -247z" />
    <glyph glyph-name="afii10040" unicode="&#x426;" horiz-adv-x="710" 
d="M589 0h-523l129 700h116l-109 -586h323l108 586h116l-109 -586h81l-44 -237h-111z" />
    <glyph glyph-name="afii10041" unicode="&#x427;" horiz-adv-x="661" 
d="M610 700h115l-129 -700h-115l52 281c-56 -29 -118 -44 -186 -44c-135 0 -225 57 -225 177c0 17 2 37 6 58l42 228h115l-30 -159c-9 -47 -13 -79 -13 -96c0 -63 48 -95 128 -95c69 0 131 16 184 49z" />
    <glyph glyph-name="afii10042" unicode="&#x428;" horiz-adv-x="879" 
d="M812 0h-746l130 700h115l-109 -586h201l108 586h115l-108 -586h200l108 586h115z" />
    <glyph glyph-name="afii10043" unicode="&#x429;" horiz-adv-x="902" 
d="M782 0h-716l130 700h115l-109 -586h201l108 586h115l-108 -586h200l108 586h115l-108 -586h81l-44 -237h-111z" />
    <glyph glyph-name="afii10044" unicode="&#x42a;" horiz-adv-x="712" 
d="M261 587h-153l21 113h268l-46 -247h149c158 0 237 -63 237 -189c0 -179 -108 -264 -329 -264h-255zM477 340h-146l-42 -226h143c123 0 183 41 183 136c0 60 -46 90 -138 90z" />
    <glyph glyph-name="afii10045" unicode="&#x42b;" horiz-adv-x="822" 
d="M756 0h-115l129 700h115zM369 340h-125l-42 -226h119c124 0 182 41 182 136c0 60 -45 90 -134 90zM196 700h115l-46 -247h124c158 0 237 -65 237 -196c0 -192 -148 -257 -330 -257h-230z" />
    <glyph glyph-name="afii10046" unicode="&#x42c;" horiz-adv-x="628" 
d="M397 340h-153l-42 -226h147c120 0 182 40 182 136c0 60 -45 90 -134 90zM196 700h115l-46 -247h151c159 0 238 -65 238 -195c0 -179 -125 -258 -329 -258h-259z" />
    <glyph glyph-name="afii10047" unicode="&#x42d;" horiz-adv-x="666" 
d="M573 301h-323l21 113h318c3 112 -64 181 -187 181c-83 0 -156 -31 -219 -93l-67 77c77 86 177 129 300 129c188 0 293 -107 293 -283c0 -125 -36 -229 -109 -310c-73 -82 -172 -123 -296 -123c-135 0 -225 46 -272 139l87 69c52 -72 112 -95 195 -95c71 0 128 19 172 57
s73 84 87 139z" />
    <glyph glyph-name="afii10048" unicode="&#x42e;" horiz-adv-x="947" 
d="M181 0h-115l130 700h115l-54 -291h77c25 87 70 159 134 215s143 84 237 84c90 0 160 -26 209 -79s74 -124 74 -211c0 -119 -35 -219 -106 -302s-163 -124 -275 -124c-95 0 -169 30 -221 90c-52 59 -75 133 -69 222h-80zM439 302c0 -119 69 -197 178 -197
c74 0 134 29 180 88c46 58 69 127 69 208c0 117 -64 194 -167 194c-79 0 -142 -30 -189 -89s-71 -127 -71 -204z" />
    <glyph glyph-name="afii10049" unicode="&#x42f;" horiz-adv-x="656" 
d="M590 0h-115l46 246h-138l-232 -246h-148l255 267c-84 31 -126 91 -126 179c0 81 29 143 87 188c58 44 134 66 229 66h271zM366 359h175l42 228h-164c-112 0 -164 -54 -164 -131c0 -55 40 -93 111 -97z" />
    <glyph glyph-name="afii10065" unicode="&#x430;" horiz-adv-x="571" 
d="M490 0h-101l13 63c-25 -35 -87 -69 -159 -69c-120 0 -195 84 -195 207c0 99 31 179 93 240c61 61 131 91 209 91c60 0 103 -12 129 -35l4 23h104zM279 99c56 0 110 38 138 83l41 203c-19 28 -55 42 -106 42s-96 -19 -133 -58c-38 -39 -57 -90 -57 -151
c0 -79 45 -119 117 -119z" />
    <glyph glyph-name="afii10066" unicode="&#x431;" horiz-adv-x="579" 
d="M603 743v-98c-25 -7 -72 -13 -139 -17c-68 -5 -120 -14 -155 -29c-31 -13 -59 -37 -83 -72s-41 -71 -50 -110c41 64 123 106 210 106c127 0 197 -76 197 -199c0 -101 -29 -181 -87 -242c-59 -61 -129 -92 -210 -92c-71 0 -128 23 -169 70c-42 46 -63 104 -63 174
c0 108 18 203 55 285c36 82 90 139 161 172c67 31 148 38 234 42c43 2 76 5 99 10zM175 294c-7 -21 -10 -40 -10 -56c0 -84 54 -142 131 -142c47 0 87 20 121 59s51 88 51 145c0 68 -34 117 -109 117c-36 0 -72 -12 -107 -36c-35 -25 -61 -54 -77 -87z" />
    <glyph glyph-name="afii10067" unicode="&#x432;" horiz-adv-x="535" 
d="M538 393c0 -49 -27 -89 -80 -121c41 -20 62 -51 62 -92c0 -56 -23 -102 -69 -137c-47 -36 -106 -54 -178 -54c-144 0 -225 87 -225 223c0 91 31 167 92 229s133 93 215 93c117 0 183 -48 183 -141zM406 179c0 24 -17 40 -52 48c-53 -15 -117 -27 -190 -36
c10 -64 49 -96 117 -96c71 0 126 36 125 84zM366 428c-89 0 -165 -53 -193 -133c67 7 125 19 176 36c50 16 75 35 75 56c0 27 -19 41 -58 41z" />
    <glyph glyph-name="afii10068" unicode="&#x433;" horiz-adv-x="472" 
d="M143 142c0 -25 25 -45 70 -45c89 0 159 33 195 82l56 -74c-47 -65 -138 -114 -238 -114c-127 0 -196 62 -196 147c0 106 82 145 167 167c83 25 166 27 166 77c0 27 -26 46 -71 46c-63 0 -117 -22 -161 -65l-62 72c41 59 133 99 232 99c103 0 176 -44 176 -139
c2 -128 -122 -164 -216 -181c-65 -14 -118 -35 -118 -72z" />
    <glyph glyph-name="afii10069" unicode="&#x434;" horiz-adv-x="571" 
d="M39 201c0 95 30 173 90 236c59 63 130 94 213 94c61 0 103 -13 126 -39c-13 89 -106 136 -242 123l11 96c99 5 177 -11 242 -54c65 -44 103 -125 103 -240c0 -125 -29 -228 -86 -308c-58 -80 -136 -120 -233 -120c-65 0 -119 19 -161 56s-63 89 -63 156zM152 214
c0 -77 54 -118 114 -118c57 0 104 25 143 76c39 50 58 113 59 189c-13 37 -68 64 -128 64c-49 0 -93 -20 -131 -59s-57 -90 -57 -152z" />
    <glyph glyph-name="afii10070" unicode="&#x435;" horiz-adv-x="533" 
d="M435 159l64 -63c-49 -72 -139 -105 -231 -105c-65 0 -118 20 -159 61c-41 40 -61 93 -61 160c0 91 31 167 92 228s133 92 215 92c117 0 184 -50 184 -143c0 -56 -25 -100 -76 -133s-118 -49 -200 -49c-36 0 -70 3 -101 8c5 -76 54 -119 127 -119c61 0 110 21 146 63z
M347 427c-72 0 -141 -49 -170 -121c24 -3 51 -5 80 -5c108 0 168 35 168 76c0 33 -26 50 -78 50z" />
    <glyph glyph-name="afii10072" unicode="&#x436;" horiz-adv-x="722" 
d="M-26 0l258 291l-151 229h125l134 -203l38 203h107l-37 -204l212 204h131l-247 -239l155 -281h-119l-120 217l-36 -30l-34 -187h-108l35 186l-20 27l-194 -213h-129z" />
    <glyph glyph-name="afii10073" unicode="&#x437;" horiz-adv-x="482" 
d="M223 -10c-109 0 -180 43 -213 130l84 54c19 -51 70 -81 138 -81c64 0 118 28 119 75c1 35 -20 47 -79 47h-101l18 99h105c41 0 80 27 80 66c0 33 -29 50 -86 50c-58 0 -109 -23 -153 -68l-60 70c61 67 141 101 240 101c112 0 172 -48 172 -124c0 -59 -26 -103 -78 -133
c37 -15 56 -46 56 -94c0 -56 -23 -102 -70 -138s-104 -54 -172 -54z" />
    <glyph glyph-name="afii10074" unicode="&#x438;" horiz-adv-x="550" 
d="M460 520h108l-98 -520h-108l10 55c-44 -43 -96 -64 -155 -64c-105 0 -168 55 -168 147c0 23 3 51 10 86l62 296h108l-60 -285c-4 -23 -6 -42 -6 -57c1 -55 24 -82 85 -82c59 0 108 30 148 91z" />
    <glyph glyph-name="afii10075" unicode="&#x439;" horiz-adv-x="550" 
d="M460 520h108l-98 -520h-108l10 55c-44 -43 -96 -64 -155 -64c-105 0 -168 55 -168 147c0 23 3 51 10 86l62 296h108l-60 -285c-4 -23 -6 -42 -6 -57c1 -55 24 -82 85 -82c59 0 108 30 148 91zM210 741h95c-7 -41 13 -68 57 -68c43 0 70 23 80 68h98
c-15 -91 -75 -156 -191 -156c-93 0 -156 57 -139 156z" />
    <glyph glyph-name="afii10076" unicode="&#x43a;" horiz-adv-x="509" 
d="M129 0h-107l100 520h107l-41 -213l250 213h146l-283 -241l192 -279h-128l-152 217l-47 -40z" />
    <glyph glyph-name="afii10077" unicode="&#x43b;" horiz-adv-x="560" 
d="M477 0h-108l79 414h-166l-18 -82c-31 -137 -73 -232 -123 -278s-96 -61 -155 -58l11 108c25 -2 64 5 103 69c24 39 51 115 70 218l24 129h382z" />
    <glyph glyph-name="afii10078" unicode="&#x43c;" horiz-adv-x="646" 
d="M139 0h-107l99 520h91l128 -235l215 235h97l-99 -520h-107l63 324l-189 -205l-127 213z" />
    <glyph glyph-name="afii10079" unicode="&#x43d;" horiz-adv-x="566" 
d="M486 0h-108l39 211h-238l-39 -211h-108l96 520h108l-38 -204h239l37 204h108z" />
    <glyph glyph-name="afii10080" unicode="&#x43e;" horiz-adv-x="589" 
d="M48 206c0 95 31 173 92 234s135 92 221 92c69 0 125 -20 166 -61s62 -92 62 -155c0 -95 -29 -173 -88 -234s-132 -91 -219 -91c-72 0 -129 20 -171 61c-42 40 -63 91 -63 154zM162 229c0 -81 50 -132 134 -132c47 0 88 19 125 57c36 38 54 87 54 147
c0 77 -50 125 -127 125c-46 0 -88 -19 -127 -56s-59 -84 -59 -141z" />
    <glyph glyph-name="afii10081" unicode="&#x43f;" horiz-adv-x="563" 
d="M139 0h-107l95 520h108l-8 -50c39 36 101 61 161 61c108 0 169 -54 169 -158c0 -23 -3 -52 -9 -88l-57 -285h-108l56 278c4 24 6 44 6 61c1 60 -30 87 -101 87c-58 0 -105 -29 -142 -87z" />
    <glyph glyph-name="afii10082" unicode="&#x440;" horiz-adv-x="572" 
d="M94 -200h-106l132 720h107l-9 -47c37 39 86 59 147 59c140 0 207 -90 207 -217c0 -95 -30 -173 -89 -233c-59 -61 -134 -91 -225 -91c-60 0 -100 14 -121 43zM334 427c-57 0 -104 -29 -141 -86l-33 -184c17 -41 52 -61 106 -61c55 0 101 18 138 55s55 85 55 145
c0 79 -42 131 -125 131z" />
    <glyph glyph-name="afii10083" unicode="&#x441;" horiz-adv-x="515" 
d="M434 170l73 -60c-52 -83 -143 -119 -236 -119c-66 0 -120 20 -161 61s-62 94 -62 160c0 92 29 168 86 229s128 91 212 91c104 0 175 -52 195 -121l-84 -52c-23 45 -63 68 -119 68c-49 0 -91 -19 -125 -57s-51 -86 -51 -144c0 -83 53 -130 130 -130c54 0 101 25 142 74z
" />
    <glyph glyph-name="afii10084" unicode="&#x442;" horiz-adv-x="817" 
d="M806 345l-68 -345h-108l62 313c3 20 4 35 4 46c1 40 -21 67 -66 67c-50 0 -92 -27 -126 -81l-65 -345h-108l64 338c11 52 -13 88 -61 88c-57 0 -105 -39 -132 -86l-63 -340h-107l96 520h107l-10 -52c39 42 87 63 146 63c62 0 104 -23 125 -70c47 47 102 70 167 70
c89 0 147 -45 148 -133c0 -14 -2 -32 -5 -53z" />
    <glyph glyph-name="afii10085" unicode="&#x443;" horiz-adv-x="504" 
d="M0 -192l57 95c6 -4 13 -6 21 -6c26 0 57 31 92 92l26 47l-151 484h120l105 -351l196 351h122l-288 -505c-49 -85 -90 -143 -123 -176c-34 -32 -71 -48 -110 -48c-28 0 -50 6 -67 17z" />
    <glyph glyph-name="afii10086" unicode="&#x444;" horiz-adv-x="708" 
d="M347 -200h-108l35 190c-69 0 -123 21 -164 63s-62 95 -62 160c0 89 31 164 92 225s135 91 222 91h12l37 201h108l-37 -201c152 0 226 -87 226 -214c0 -97 -31 -176 -94 -235c-63 -60 -138 -90 -226 -90h-6zM162 222c0 -77 44 -126 132 -126l60 327h-7
c-55 0 -99 -19 -133 -56c-35 -38 -52 -86 -52 -145zM461 423l-60 -327h6c54 0 99 19 135 58c35 38 53 88 53 150c0 69 -38 119 -134 119z" />
    <glyph glyph-name="afii10087" unicode="&#x445;" horiz-adv-x="527" 
d="M456 520h136l-236 -253l149 -267h-128l-101 184l-170 -184h-133l247 268l-142 252h127l95 -167z" />
    <glyph glyph-name="afii10088" unicode="&#x446;" horiz-adv-x="560" 
d="M462 520h108l-80 -414h75l-42 -225h-101l23 119h-83l10 55c-44 -43 -96 -64 -155 -64c-105 0 -168 55 -168 147c0 23 3 51 10 86l64 296h108l-62 -285c-4 -23 -6 -42 -6 -57c1 -55 24 -82 85 -82c59 0 108 30 148 91z" />
    <glyph glyph-name="afii10089" unicode="&#x447;" horiz-adv-x="526" 
d="M434 520h108l-100 -520h-108l38 204c-39 -32 -91 -48 -155 -48c-93 0 -153 46 -153 141c0 23 2 45 7 66l34 157h108l-27 -118c-6 -33 -9 -58 -9 -75c1 -44 31 -65 78 -65c59 0 105 20 139 59z" />
    <glyph glyph-name="afii10090" unicode="&#x448;" horiz-adv-x="776" 
d="M53 175l68 345h108l-61 -313c-3 -17 -5 -32 -5 -46c0 -44 18 -66 53 -66c47 0 86 27 119 80l67 345h108l-66 -338c-11 -58 5 -87 48 -87c51 0 92 28 125 85l67 340h108l-100 -520h-108l9 48c-37 -39 -83 -59 -138 -59c-60 0 -89 22 -112 70c-48 -49 -92 -70 -160 -70
c-80 0 -133 45 -134 133c0 19 1 36 4 53z" />
    <glyph glyph-name="afii10091" unicode="&#x449;" horiz-adv-x="782" 
d="M53 175l68 345h108l-61 -313c-3 -17 -5 -32 -5 -46c0 -44 18 -66 53 -66c47 0 86 27 119 80l67 345h108l-66 -338c-11 -58 5 -87 48 -87c51 0 92 28 125 85l67 340h108l-80 -414h65l-42 -225h-100l22 119h-73l9 48c-37 -39 -83 -59 -138 -59c-60 0 -89 22 -112 70
c-48 -49 -92 -70 -160 -70c-80 0 -133 45 -134 133c0 19 1 36 4 53z" />
    <glyph glyph-name="afii10092" unicode="&#x44a;" horiz-adv-x="544" 
d="M163 420h-121l18 100h229l-27 -149h81c134 0 201 -48 201 -144c0 -143 -95 -227 -288 -227h-176zM330 265h-88l-35 -165h89c81 0 133 41 133 97c0 49 -19 68 -99 68z" />
    <glyph glyph-name="afii10093" unicode="&#x44b;" horiz-adv-x="672" 
d="M213 0h-181l96 520h108l-28 -151h72c139 0 193 -50 193 -145c0 -137 -95 -224 -260 -224zM262 269h-73l-31 -169h76c79 0 126 41 126 104c0 43 -33 65 -98 65zM592 0h-107l96 520h107z" />
    <glyph glyph-name="afii10094" unicode="&#x44c;" horiz-adv-x="491" 
d="M231 0h-199l96 520h108l-28 -151h89c139 0 194 -50 194 -145c0 -136 -95 -224 -260 -224zM279 269h-90l-31 -169h94c77 0 125 41 125 104c0 43 -33 65 -98 65z" />
    <glyph glyph-name="afii10095" unicode="&#x44d;" horiz-adv-x="522" 
d="M395 216h-232l19 99h229c-1 75 -43 112 -128 112c-55 0 -116 -25 -159 -77l-69 68c65 76 146 114 242 114c151 0 225 -89 225 -216c0 -99 -29 -178 -88 -237c-59 -60 -134 -90 -224 -90c-102 0 -171 39 -208 118l84 57c28 -47 69 -70 124 -70c93 0 161 47 185 122z" />
    <glyph glyph-name="afii10096" unicode="&#x44e;" horiz-adv-x="773" 
d="M140 0h-108l96 520h108l-38 -202h74c20 65 56 117 109 156c52 39 109 58 172 58c71 0 125 -20 163 -59c38 -40 57 -90 57 -150c0 -105 -29 -186 -86 -244c-58 -59 -128 -88 -209 -88c-137 0 -226 84 -225 224h-74zM365 220c0 -73 49 -124 125 -124c45 0 85 19 119 56
c33 37 50 86 50 147c0 79 -43 128 -120 128c-46 0 -86 -20 -121 -59s-53 -89 -53 -148z" />
    <glyph glyph-name="afii10097" unicode="&#x44f;" horiz-adv-x="518" 
d="M330 520h204l-99 -520h-107l33 171h-87l-159 -171h-131l177 190c-55 21 -87 73 -87 133c0 56 21 103 64 141c43 37 107 56 192 56zM188 335c0 -37 26 -64 81 -64h109l30 149h-105c-69 0 -115 -37 -115 -85z" />
    <glyph glyph-name="afii10071" unicode="&#x451;" horiz-adv-x="533" 
d="M435 159l64 -63c-49 -72 -139 -105 -231 -105c-65 0 -118 20 -159 61c-41 40 -61 93 -61 160c0 91 31 167 92 228s133 92 215 92c117 0 184 -50 184 -143c0 -56 -25 -100 -76 -133s-118 -49 -200 -49c-36 0 -70 3 -101 8c5 -76 54 -119 127 -119c61 0 110 21 146 63z
M347 427c-72 0 -141 -49 -170 -121c24 -3 51 -5 80 -5c108 0 168 35 168 76c0 33 -26 50 -78 50zM422 669c0 33 26 61 62 61c35 0 63 -28 63 -61s-28 -59 -63 -59c-36 0 -62 24 -62 59zM231 627c-24 23 -24 61 0 85s64 24 89 0c24 -24 24 -62 0 -85c-25 -23 -65 -23 -89 0z
" />
    <glyph glyph-name="afii10099" unicode="&#x452;" horiz-adv-x="563" 
d="M142 520h-123l20 103h122l20 107h107l-19 -107h199l-19 -103h-200l-29 -156c45 38 97 57 154 57c121 0 175 -66 175 -166c0 -97 -27 -186 -82 -270c-55 -83 -126 -147 -211 -192l-49 79c70 39 125 90 166 153c40 63 60 127 60 193c0 61 -20 98 -99 98
c-48 0 -107 -38 -138 -86l-42 -230h-108z" />
    <glyph glyph-name="afii10100" unicode="&#x453;" horiz-adv-x="472" 
d="M143 142c0 -25 25 -45 70 -45c89 0 159 33 195 82l56 -74c-47 -65 -138 -114 -238 -114c-127 0 -196 62 -196 147c0 106 82 145 167 167c83 25 166 27 166 77c0 27 -26 46 -71 46c-63 0 -117 -22 -161 -65l-62 72c41 59 133 99 232 99c103 0 176 -44 176 -139
c2 -128 -122 -164 -216 -181c-65 -14 -118 -35 -118 -72zM445 819l73 -64l-149 -157l-64 54z" />
    <glyph glyph-name="afii10101" unicode="&#x454;" horiz-adv-x="514" 
d="M171 315h210l-17 -99h-214c0 -81 54 -120 135 -120c54 0 100 22 138 67l73 -55c-51 -78 -130 -117 -237 -117c-67 0 -121 21 -160 62s-59 92 -59 151c0 99 30 178 91 238s138 90 231 90c95 0 158 -35 187 -106l-88 -56c-23 38 -60 57 -111 57c-87 0 -147 -37 -179 -112z
" />
    <glyph glyph-name="afii10102" unicode="&#x455;" horiz-adv-x="450" 
d="M312 148c1 88 -225 63 -224 224c0 50 19 89 57 118c37 28 82 42 135 42c93 0 159 -29 198 -87l-73 -74c-28 37 -66 55 -115 55c-52 0 -88 -18 -88 -51c0 -73 224 -52 224 -220c0 -55 -20 -96 -61 -123s-87 -41 -139 -41c-107 0 -190 51 -222 126l86 61
c25 -54 72 -81 143 -81c44 0 79 18 79 51z" />
    <glyph glyph-name="afii10103" unicode="&#x456;" horiz-adv-x="225" 
d="M140 0h-108l96 520h108zM163 627c-24 23 -24 61 0 85c23 24 63 24 88 0c41 -36 10 -106 -45 -102c-17 0 -32 6 -43 17z" />
    <glyph glyph-name="afii10104" unicode="&#x457;" horiz-adv-x="240" 
d="M175 0h-109l96 520h109zM258 669c0 33 26 61 62 61c35 0 63 -28 63 -61s-28 -59 -63 -59c-36 0 -62 24 -62 59zM107 627c-24 23 -24 61 0 85s64 24 89 0c24 -24 24 -62 0 -85c-25 -23 -65 -23 -89 0z" />
    <glyph glyph-name="afii10105" unicode="&#x458;" horiz-adv-x="231" 
d="M136 520h108l-96 -521c-24 -133 -92 -208 -201 -208c-76 0 -122 34 -137 102l98 41c11 -25 27 -38 50 -38c43 0 70 35 83 106zM151 669c0 33 26 61 62 61c35 0 63 -28 63 -61s-28 -59 -63 -59c-36 0 -62 24 -62 59z" />
    <glyph glyph-name="afii10106" unicode="&#x459;" horiz-adv-x="789" 
d="M528 0h-161l76 414h-163l-19 -81c-33 -129 -71 -217 -116 -265c-45 -49 -98 -73 -161 -72l11 103c20 0 41 10 73 42c31 32 66 107 91 212l41 167h371l-30 -157h61c119 0 179 -44 179 -132c0 -140 -92 -231 -253 -231zM576 263h-52l-31 -163h59c75 0 114 44 114 97
c0 47 -18 66 -90 66z" />
    <glyph glyph-name="afii10107" unicode="&#x45a;" horiz-adv-x="793" 
d="M134 0h-108l96 520h108l-35 -184h238l34 184h108l-34 -184h59c155 0 182 -56 182 -131c0 -59 -22 -108 -66 -147c-45 -39 -106 -58 -184 -58h-161l45 236h-237zM575 237h-51l-28 -137h50c77 0 121 33 121 82c0 39 -20 55 -92 55z" />
    <glyph glyph-name="afii10108" unicode="&#x45b;" horiz-adv-x="579" 
d="M148 520h-122l18 103h122l21 107h107l-20 -107h199l-18 -103h-200l-29 -163c41 39 93 58 156 58c112 0 168 -53 168 -158c0 -20 -3 -47 -9 -80l-32 -177h-108l32 169c3 20 5 38 5 55c1 55 -27 85 -95 85c-55 0 -111 -32 -142 -84l-41 -225h-108z" />
    <glyph glyph-name="afii10109" unicode="&#x45c;" horiz-adv-x="509" 
d="M129 0h-107l100 520h107l-41 -213l250 213h146l-283 -241l192 -279h-128l-152 217l-47 -40zM455 819l73 -64l-149 -157l-64 54z" />
    <glyph glyph-name="afii10110" unicode="&#x45e;" horiz-adv-x="504" 
d="M0 -192l57 95c6 -4 13 -6 21 -6c26 0 57 31 92 92l26 47l-151 484h120l105 -351l196 351h122l-288 -505c-49 -85 -90 -143 -123 -176c-34 -32 -71 -48 -110 -48c-28 0 -50 6 -67 17zM185 741h95c-7 -41 13 -68 57 -68c43 0 70 23 80 68h98c-15 -91 -75 -156 -191 -156
c-93 0 -156 57 -139 156z" />
    <glyph glyph-name="afii10193" unicode="&#x45f;" horiz-adv-x="550" 
d="M180 -155l21 107h100l-20 -107h-101zM460 520h108l-98 -520h-108l10 55c-44 -43 -96 -64 -155 -64c-105 0 -168 55 -168 147c0 23 3 51 10 86l62 296h108l-60 -285c-4 -23 -6 -42 -6 -57c1 -55 24 -82 85 -82c59 0 108 30 148 91z" />
    <glyph glyph-name="afii10146" unicode="&#x462;" horiz-adv-x="681" 
d="M213 502h-120l21 113h120l15 85h115l-15 -85h215l-21 -113h-215l-15 -75h152c161 0 240 -55 240 -176c0 -180 -114 -251 -327 -251h-258zM442 313h-149l-37 -199h147c124 0 179 33 179 121c0 57 -45 78 -140 78z" />
    <glyph glyph-name="afii10194" unicode="&#x463;" horiz-adv-x="791" 
d="M527 0h-200l63 338c1 7 2 19 2 35c-1 35 -22 52 -64 52c-57 0 -105 -38 -132 -85l-62 -340h-108l96 520h108l-10 -52c37 42 88 63 151 63c88 0 134 -46 134 -119c0 -5 -1 -19 -3 -43h91c139 0 194 -50 194 -145c0 -136 -95 -224 -260 -224zM574 269h-90l-31 -169h96
c77 0 124 41 124 104c0 43 -33 65 -99 65z" />
    <glyph glyph-name="afii10147" unicode="&#x472;" horiz-adv-x="743" 
d="M89 290c0 119 38 219 113 299c75 79 173 119 293 119c92 0 163 -28 213 -85s75 -127 75 -212c0 -127 -39 -228 -116 -304c-77 -77 -173 -115 -286 -115c-87 0 -157 27 -211 80s-81 125 -81 218zM391 108c69 0 125 18 168 55s73 81 89 132h-438c1 -56 18 -101 52 -135
c34 -35 77 -52 129 -52zM481 592c-128 0 -218 -78 -255 -183h436c0 49 -16 91 -47 128s-76 55 -134 55z" />
    <glyph glyph-name="afii10195" unicode="&#x473;" horiz-adv-x="791" 
d="M527 0h-200l63 338c1 7 2 19 2 35c-1 35 -22 52 -64 52c-57 0 -105 -38 -132 -85l-62 -340h-108l96 520h108l-10 -52c37 42 88 63 151 63c88 0 134 -46 134 -119c0 -5 -1 -19 -3 -43h91c139 0 194 -50 194 -145c0 -136 -95 -224 -260 -224zM574 269h-90l-31 -169h96
c77 0 124 41 124 104c0 43 -33 65 -99 65z" />
    <glyph glyph-name="afii10148" unicode="&#x474;" horiz-adv-x="731" 
d="M708 514l-317 -514h-81l-187 700h120l134 -517l234 384c57 92 114 141 187 141c32 0 59 -9 80 -28l-53 -99c-10 7 -21 10 -33 10c-26 -1 -54 -27 -84 -77z" />
    <glyph glyph-name="afii10196" unicode="&#x475;" horiz-adv-x="539" 
d="M457 331l-200 -331h-80l-134 520h115l87 -347l141 237c47 79 100 117 161 116c35 -1 61 -14 79 -37l-62 -86c-7 7 -15 11 -25 11c-21 0 -48 -28 -82 -83z" />
    <glyph glyph-name="afii10050" unicode="&#x490;" horiz-adv-x="553" 
d="M181 0h-115l130 700h376l23 121h108l-44 -234h-369z" />
    <glyph glyph-name="afii10098" unicode="&#x491;" horiz-adv-x="423" 
d="M130 0h-108l96 520h271l19 100h101l-39 -206h-265z" />
    <glyph glyph-name="uni1E9E" unicode="&#x1e9e;" horiz-adv-x="623" 
d="M436 708c131 0 213 -64 224 -160l-158 -154c88 -19 133 -80 130 -157c-3 -85 -29 -147 -78 -187c-50 -40 -113 -60 -188 -60c-44 0 -82 9 -114 27l47 106c22 -13 48 -19 78 -19c87 0 136 47 136 119c0 53 -38 80 -114 80h-42l17 91l157 155c-23 31 -60 46 -109 46
c-89 0 -144 -55 -165 -166l-72 -429h-115l76 448c33 179 121 260 290 260z" />
    <glyph glyph-name="uni2010" unicode="&#x2010;" horiz-adv-x="416" 
d="M407 227h-278v101h278v-101z" />
    <glyph glyph-name="uni2011" unicode="&#x2011;" horiz-adv-x="416" 
d="M407 227h-278v101h278v-101z" />
    <glyph glyph-name="figuredash" unicode="&#x2012;" horiz-adv-x="607" 
d="M582 311h-437v99h437v-99z" />
    <glyph glyph-name="endash" unicode="&#x2013;" horiz-adv-x="607" 
d="M582 227h-437v99h437v-99z" />
    <glyph glyph-name="emdash" unicode="&#x2014;" horiz-adv-x="796" 
d="M771 227h-626v99h626v-99z" />
    <glyph glyph-name="quoteleft" unicode="&#x2018;" horiz-adv-x="235" 
d="M272 529l-98 -58c-18 20 -27 46 -27 77c0 79 61 144 136 188l41 -49c-43 -35 -65 -70 -65 -104c0 -21 4 -39 13 -54z" />
    <glyph glyph-name="quoteright" unicode="&#x2019;" horiz-adv-x="235" 
d="M183 679l98 58c18 -20 27 -46 27 -77c0 -79 -61 -144 -136 -188l-41 49c43 35 65 70 65 104c0 21 -4 39 -13 54z" />
    <glyph glyph-name="quotesinglbase" unicode="&#x201a;" horiz-adv-x="235" 
d="M73 73l98 58c18 -20 27 -46 27 -77c0 -79 -61 -144 -136 -188l-41 49c43 35 65 70 65 104c0 21 -4 39 -13 54z" />
    <glyph glyph-name="quotedblleft" unicode="&#x201c;" horiz-adv-x="403" 
d="M272 529l-98 -58c-18 20 -27 46 -27 77c0 79 61 144 136 188l41 -49c-43 -35 -65 -70 -65 -104c0 -21 4 -39 13 -54zM441 529l-98 -58c-18 20 -27 46 -27 77c0 79 61 144 136 188l41 -49c-43 -35 -65 -70 -65 -104c0 -21 4 -39 13 -54z" />
    <glyph glyph-name="quotedblright" unicode="&#x201d;" horiz-adv-x="403" 
d="M353 677l98 58c18 -20 27 -46 27 -77c0 -79 -61 -144 -136 -188l-41 49c43 35 65 70 65 104c0 21 -4 39 -13 54zM184 677l98 58c18 -20 27 -46 27 -77c0 -79 -61 -144 -136 -188l-41 49c43 35 65 70 65 104c0 21 -4 39 -13 54z" />
    <glyph glyph-name="quotedblbase" unicode="&#x201e;" horiz-adv-x="403" 
d="M241 73l98 58c18 -20 27 -46 27 -77c0 -79 -61 -144 -136 -188l-41 49c43 35 65 70 65 104c0 21 -4 39 -13 54zM72 73l98 58c18 -20 27 -46 27 -77c0 -79 -61 -144 -136 -188l-41 49c43 35 65 70 65 104c0 21 -4 39 -13 54z" />
    <glyph glyph-name="dagger" unicode="&#x2020;" horiz-adv-x="458" 
d="M232 386h-139v106h139v208h114v-208h139v-106h-139v-478h-114v478z" />
    <glyph glyph-name="daggerdbl" unicode="&#x2021;" horiz-adv-x="458" 
d="M232 386h-139v106h139v208h114v-208h139v-106h-139v-137h139v-106h-139v-235h-114v235h-139v106h139v137z" />
    <glyph glyph-name="bullet" unicode="&#x2022;" horiz-adv-x="302" 
d="M111 361c0 45 40 80 88 80c47 0 86 -36 86 -80s-39 -81 -86 -81c-48 0 -88 37 -88 81z" />
    <glyph glyph-name="ellipsis" unicode="&#x2026;" horiz-adv-x="795" 
d="M664 62c0 32 30 62 70 62c37 0 67 -31 67 -62c0 -33 -30 -64 -67 -64c-41 0 -70 29 -70 64zM389 62c0 32 30 62 70 62c37 0 67 -30 67 -62c0 -35 -28 -64 -67 -64c-41 0 -70 29 -70 64zM114 62c0 32 30 62 70 62c37 0 68 -31 68 -62c0 -33 -31 -64 -68 -64
c-41 0 -70 29 -70 64z" />
    <glyph glyph-name="perthousand" unicode="&#x2030;" horiz-adv-x="1332" 
d="M97 525c0 52 18 95 55 128c36 33 82 50 137 50s100 -17 137 -50c36 -33 54 -76 54 -128c0 -51 -18 -94 -54 -127c-37 -33 -82 -50 -137 -50s-100 17 -137 50s-55 76 -55 127zM233 584c-31 -30 -31 -87 1 -118c15 -15 34 -23 55 -23c44 0 78 33 78 82c0 48 -35 81 -78 81
c-22 0 -41 -7 -56 -22zM299 -23l-82 57l515 689l82 -58zM547 174c0 52 18 95 55 128c36 33 82 49 137 49s100 -16 137 -49c36 -33 54 -76 54 -128c0 -51 -18 -94 -54 -127c-37 -34 -82 -51 -137 -51s-100 17 -137 51c-37 33 -55 76 -55 127zM683 233c-31 -31 -31 -87 1 -117
c31 -30 79 -30 110 0s31 86 0 117c-15 15 -34 23 -55 23c-22 0 -41 -8 -56 -23zM972 174c0 52 18 95 55 128c36 33 82 49 137 49s101 -16 137 -49s54 -76 54 -128s-18 -95 -54 -128c-37 -33 -82 -50 -137 -50s-100 17 -137 51c-37 33 -55 76 -55 127zM1108 233
c-31 -31 -31 -87 1 -117c15 -15 34 -23 55 -23c44 0 78 33 78 81s-35 82 -78 82c-22 0 -41 -8 -56 -23z" />
    <glyph glyph-name="guilsinglleft" unicode="&#x2039;" horiz-adv-x="325" 
d="M309 99l-81 -61l-145 218l1 6l206 212l62 -69l-146 -153z" />
    <glyph glyph-name="guilsinglright" unicode="&#x203a;" horiz-adv-x="325" 
d="M102 413l81 61l145 -218l-1 -6l-206 -212l-62 69l146 153z" />
    <glyph glyph-name="fraction" unicode="&#x2044;" horiz-adv-x="332" 
d="M-5 -22l-85 70l549 672l83 -66z" />
    <glyph glyph-name="uni2070" unicode="&#x2070;" horiz-adv-x="459" 
d="M129 467c0 73 21 134 62 183s94 74 161 74c107 0 165 -67 165 -171c0 -75 -21 -136 -62 -184c-42 -49 -96 -73 -162 -73c-105 0 -164 68 -164 171zM232 483c0 -57 24 -90 71 -90c65 0 112 57 112 149c0 57 -24 85 -71 85c-69 0 -112 -57 -112 -144z" />
    <glyph glyph-name="uni2074" unicode="&#x2074;" horiz-adv-x="430" 
d="M394 300h-94l14 76h-233l13 73l295 271h83l-47 -253h73l-17 -91h-73zM353 586l-135 -119h113z" />
    <glyph glyph-name="uni2075" unicode="&#x2075;" horiz-adv-x="395" 
d="M144 471l67 249h264l-17 -94h-185l-17 -57c13 3 31 5 52 5c81 0 131 -45 131 -114c0 -100 -70 -165 -185 -165c-82 0 -135 27 -159 81l77 57c15 -29 45 -44 89 -44c51 0 76 19 76 56c0 30 -26 45 -77 45c-33 0 -72 -6 -116 -19z" />
    <glyph glyph-name="uni2076" unicode="&#x2076;" horiz-adv-x="446" 
d="M128 458c0 83 23 148 68 196c45 47 104 71 175 71c59 0 107 -14 143 -43l-49 -73c-31 17 -67 25 -106 25c-63 0 -110 -38 -121 -95c35 31 76 46 123 46c88 0 138 -47 138 -116c0 -101 -74 -174 -198 -174c-108 0 -173 59 -173 163zM235 457c-3 -39 23 -68 74 -68
c52 0 88 24 88 63c0 30 -24 45 -71 45c-41 0 -72 -13 -91 -40z" />
    <glyph glyph-name="uni2077" unicode="&#x2077;" horiz-adv-x="367" 
d="M340 622h-206l18 98h329l-15 -75l-246 -345h-116z" />
    <glyph glyph-name="uni2078" unicode="&#x2078;" horiz-adv-x="460" 
d="M323 556h19c37 0 66 16 66 44c0 23 -21 34 -62 34c-49 0 -74 -15 -74 -44c0 -23 17 -34 51 -34zM326 475h-16c-51 0 -80 -19 -80 -50c0 -26 25 -39 74 -39c60 0 90 17 90 50c0 26 -23 39 -68 39zM291 295c-101 0 -166 41 -166 112c0 48 28 93 83 113
c-24 15 -36 37 -36 66c0 89 80 139 187 139c93 0 152 -41 152 -108c0 -47 -23 -80 -68 -99c35 -14 52 -39 52 -76c0 -92 -77 -147 -204 -147z" />
    <glyph glyph-name="uni2079" unicode="&#x2079;" horiz-adv-x="446" 
d="M504 562c0 -171 -91 -267 -240 -267c-61 0 -108 15 -141 45l51 71c30 -17 63 -25 99 -25c64 0 111 38 122 95c-34 -31 -75 -46 -123 -46c-84 0 -137 48 -137 125c0 47 19 87 57 118c37 31 84 47 141 47c108 0 171 -59 171 -163zM398 563c4 39 -23 68 -74 68
c-52 0 -87 -24 -87 -63c0 -30 23 -45 70 -45c43 0 73 13 91 40z" />
    <glyph glyph-name="uni207A" unicode="&#x207a;" horiz-adv-x="437" 
d="M257 468h-114v94h114v113h101v-113h115v-94h-115v-113h-101v113z" />
    <glyph glyph-name="uni207B" unicode="&#x207b;" horiz-adv-x="421" 
d="M458 469h-315v94h315v-94z" />
    <glyph glyph-name="uni207C" unicode="&#x207c;" horiz-adv-x="409" 
d="M446 541h-303v88h303v-88zM446 402h-303v88h303v-88z" />
    <glyph glyph-name="uni207D" unicode="&#x207d;" horiz-adv-x="262" 
d="M293 249l-70 -57c-67 67 -101 144 -101 233c0 122 68 230 204 325l50 -67c-101 -81 -152 -163 -152 -247c0 -65 23 -128 69 -187z" />
    <glyph glyph-name="uni207E" unicode="&#x207e;" horiz-adv-x="261" 
d="M142 693l70 57c67 -67 101 -144 101 -233c0 -122 -68 -230 -204 -325l-50 67c101 81 152 163 152 247c0 65 -23 128 -69 187z" />
    <glyph glyph-name="uni2080" unicode="&#x2080;" horiz-adv-x="459" 
d="M56 67c0 73 21 134 62 183s94 74 161 74c107 0 165 -67 165 -171c0 -75 -21 -136 -62 -185c-42 -48 -96 -72 -162 -72c-105 0 -164 68 -164 171zM159 83c0 -57 24 -90 71 -90c65 0 112 57 112 149c0 57 -24 85 -71 85c-69 0 -112 -57 -112 -144z" />
    <glyph glyph-name="uni2081" unicode="&#x2081;" horiz-adv-x="299" 
d="M76 161l-20 92l166 68h73l-77 -421h-100l56 300z" />
    <glyph glyph-name="uni2082" unicode="&#x2082;" horiz-adv-x="400" 
d="M137 167l-67 47c29 65 99 110 184 110c93 0 139 -38 139 -115c0 -65 -47 -125 -141 -182l-55 -33h171l-17 -94h-328l15 81l93 54c99 56 157 103 157 154c0 27 -16 41 -48 41c-40 0 -74 -21 -103 -63z" />
    <glyph glyph-name="uni2083" unicode="&#x2083;" horiz-adv-x="408" 
d="M134 179l-59 57c37 57 106 89 181 89c97 0 145 -34 145 -101c0 -43 -28 -83 -80 -102c37 -13 56 -38 56 -77c0 -48 -18 -85 -54 -111c-37 -26 -80 -39 -130 -39c-91 0 -147 35 -167 104l78 46c16 -37 47 -56 94 -56c52 0 78 16 78 48c0 23 -22 34 -65 34h-45l15 81h37
c51 0 76 16 76 49c0 20 -16 30 -48 30c-44 0 -81 -17 -112 -52z" />
    <glyph glyph-name="uni2084" unicode="&#x2084;" horiz-adv-x="430" 
d="M320 -100h-94l14 76h-233l13 73l295 271h83l-47 -253h73l-17 -91h-73zM279 186l-135 -119h113z" />
    <glyph glyph-name="uni2085" unicode="&#x2085;" horiz-adv-x="395" 
d="M70 71l67 249h264l-17 -94h-185l-17 -57c13 3 31 5 52 5c81 0 131 -45 131 -114c0 -100 -70 -165 -185 -165c-82 0 -135 27 -159 81l77 57c15 -29 45 -44 89 -44c51 0 76 19 76 56c0 30 -26 45 -77 45c-33 0 -72 -6 -116 -19z" />
    <glyph glyph-name="uni2086" unicode="&#x2086;" horiz-adv-x="446" 
d="M54 58c0 83 23 148 68 196c45 47 104 71 175 71c59 0 107 -14 143 -43l-49 -73c-31 17 -67 25 -106 25c-63 0 -110 -38 -121 -95c35 31 76 46 123 46c88 0 138 -47 138 -116c0 -101 -74 -174 -198 -174c-108 0 -173 59 -173 163zM161 57c-3 -39 23 -68 74 -68
c52 0 88 24 88 63c0 30 -24 45 -71 45c-41 0 -72 -13 -91 -40z" />
    <glyph glyph-name="uni2087" unicode="&#x2087;" horiz-adv-x="367" 
d="M267 222h-206l18 98h329l-15 -75l-246 -345h-116z" />
    <glyph glyph-name="uni2088" unicode="&#x2088;" horiz-adv-x="460" 
d="M249 156h19c37 0 66 16 66 44c0 23 -21 34 -62 34c-49 0 -74 -15 -74 -44c0 -23 17 -34 51 -34zM252 75h-16c-51 0 -80 -19 -80 -50c0 -26 25 -39 74 -39c60 0 90 17 90 50c0 26 -23 39 -68 39zM217 -105c-101 0 -166 41 -166 112c0 48 28 93 83 113
c-24 15 -36 37 -36 66c0 89 80 139 187 139c93 0 152 -41 152 -108c0 -47 -23 -80 -68 -99c35 -14 52 -39 52 -76c0 -92 -77 -147 -204 -147z" />
    <glyph glyph-name="uni2089" unicode="&#x2089;" horiz-adv-x="446" 
d="M431 162c0 -171 -91 -267 -240 -267c-61 0 -108 15 -141 45l51 71c30 -17 63 -25 99 -25c64 0 111 38 122 95c-34 -31 -75 -46 -123 -46c-84 0 -137 48 -137 125c0 47 19 87 57 118c37 31 84 47 141 47c108 0 171 -59 171 -163zM325 163c4 39 -23 68 -74 68
c-52 0 -87 -24 -87 -63c0 -30 23 -45 70 -45c43 0 73 13 91 40z" />
    <glyph glyph-name="uni208A" unicode="&#x208a;" horiz-adv-x="437" 
d="M187 68h-114v94h114v113h101v-113h115v-94h-115v-113h-101v113z" />
    <glyph glyph-name="uni208B" unicode="&#x208b;" horiz-adv-x="421" 
d="M388 69h-315v94h315v-94z" />
    <glyph glyph-name="uni208C" unicode="&#x208c;" horiz-adv-x="409" 
d="M376 141h-303v88h303v-88zM376 2h-303v88h303v-88z" />
    <glyph glyph-name="uni208D" unicode="&#x208d;" horiz-adv-x="262" 
d="M219 -151l-70 -57c-67 67 -101 144 -101 233c0 122 68 230 204 325l50 -67c-101 -81 -152 -163 -152 -247c0 -65 23 -128 69 -187z" />
    <glyph glyph-name="uni208E" unicode="&#x208e;" horiz-adv-x="261" 
d="M68 293l70 57c67 -67 101 -144 101 -233c0 -122 -68 -230 -204 -325l-50 67c101 81 152 163 152 247c0 65 -23 128 -69 187z" />
    <glyph glyph-name="Euro" unicode="&#x20ac;" horiz-adv-x="627" 
d="M170 386h-80l50 98h60c73 149 191 224 352 224c73 0 127 -15 164 -44l-53 -89c-35 19 -77 29 -124 29c-92 0 -172 -41 -217 -120h299l-49 -98h-288c-4 -13 -7 -26 -8 -39c-1 -12 -2 -21 -2 -27h263l-44 -98h-215c17 -85 76 -127 177 -127c45 0 86 11 123 32l15 -95
c-39 -27 -92 -40 -160 -40c-157 0 -259 83 -276 230h-95l48 98l50 1c0 2 0 13 2 24c1 12 4 26 8 41z" />
    <glyph glyph-name="uni20B4" unicode="&#x20b4;" horiz-adv-x="579" 
d="M367 397h-245l17 95h309c17 18 25 36 25 55c0 33 -25 49 -74 49s-99 -15 -152 -44l-35 89c56 45 123 68 202 68c121 0 182 -43 182 -130c0 -33 -12 -62 -35 -87h61l-17 -95h-121c-27 -20 -57 -36 -95 -55c-19 -9 -32 -16 -38 -19h240l-17 -95h-313
c-17 -17 -33 -35 -33 -63c0 -40 38 -61 97 -61c67 0 124 21 169 62l43 -85c-57 -60 -132 -90 -226 -90c-125 0 -201 51 -201 143c0 31 11 63 33 94h-53l17 95h114c24 13 52 27 83 42s52 25 63 32z" />
    <glyph glyph-name="uni20BD" unicode="&#x20bd;" horiz-adv-x="584" 
d="M178 295h-98l20 106h98l55 299c5 0 21 0 49 1h56c10 0 24 0 41 1h33c152 0 219 -67 219 -175c0 -151 -115 -232 -294 -232h-68l-12 -65h160l-20 -106h-160l-22 -124h-112l23 124h-98l20 106h98zM419 595h-74l-36 -194h66c105 0 158 39 158 117c0 51 -38 77 -114 77z" />
    <glyph glyph-name="afii61352" unicode="&#x2116;" horiz-adv-x="1085" 
d="M751 700l-129 -700h-88l-261 483l-90 -483h-110l129 700h89l261 -486l89 486h110zM758 452c0 62 19 112 56 151s85 58 145 58c97 0 157 -61 157 -145c0 -65 -19 -116 -57 -153c-39 -38 -87 -57 -144 -57c-95 0 -157 58 -157 146zM861 469c0 -41 25 -66 65 -66
c51 0 89 38 89 95c0 40 -27 66 -66 66c-51 0 -88 -42 -88 -95zM1030 154h-306l19 102h306z" />
    <glyph glyph-name="trademark" unicode="&#x2122;" horiz-adv-x="831" 
d="M543 353h-114v347h92l115 -132l110 132h92v-347h-114v170l-89 -108h-3l-89 108v-170zM192 600h-121v100h330v-100h-95v-247h-114v247z" />
    <glyph glyph-name="partialdiff" unicode="&#x2202;" horiz-adv-x="592" 
d="M85 234c0 87 24 156 73 208s111 78 188 78c69 0 129 -30 157 -81c-3 59 -27 103 -72 132s-103 41 -173 35l17 105c226 0 339 -108 339 -323c3 -219 -101 -400 -285 -399c-73 0 -131 23 -176 70s-68 105 -68 175zM206 237c0 -92 58 -141 126 -141c41 0 76 18 104 55
c28 36 44 82 49 138c-17 75 -71 125 -132 125c-41 0 -75 -16 -104 -49s-43 -76 -43 -128z" />
    <glyph glyph-name="product" unicode="&#x220f;" horiz-adv-x="882" 
d="M842 -200h-124v784h-434v-784h-124v900h682v-900z" />
    <glyph glyph-name="summation" unicode="&#x2211;" horiz-adv-x="640" 
d="M100 -114l283 364l-283 364v86h560v-116h-387l253 -334l-261 -334h395v-116h-560v86z" />
    <glyph glyph-name="minus" unicode="&#x2212;" horiz-adv-x="566" 
d="M582 309h-478v101h478v-101z" />
    <glyph glyph-name="uni2215" unicode="&#x2215;" horiz-adv-x="332" 
d="M-5 -22l-85 70l549 672l83 -66z" />
    <glyph glyph-name="radical" unicode="&#x221a;" horiz-adv-x="605" 
d="M162 367h-101v104h178l134 -277l108 506h294v-97h-207l-140 -608h-75z" />
    <glyph glyph-name="infinity" unicode="&#x221e;" horiz-adv-x="701" 
d="M570 179c-57 0 -110 26 -159 79c-40 -46 -85 -71 -135 -76c-48 -5 -91 8 -128 39c-38 31 -57 71 -57 121c0 44 16 82 48 115c31 32 72 48 122 48c51 0 100 -26 148 -78c41 46 88 71 141 75c51 6 93 -6 128 -37s52 -73 52 -127c0 -41 -14 -78 -42 -110
c-28 -33 -67 -49 -118 -49zM562 406c-29 0 -58 -20 -87 -61c35 -45 66 -67 92 -67c33 0 53 30 53 61c0 39 -21 67 -58 67zM262 278c25 0 53 21 83 62c-33 44 -61 66 -82 66c-37 0 -62 -28 -62 -64c0 -39 30 -64 61 -64z" />
    <glyph glyph-name="integral" unicode="&#x222b;" horiz-adv-x="343" 
d="M148 -3v540c0 69 17 120 52 153c35 32 78 48 129 48c56 0 107 -24 134 -61l-64 -72c-15 18 -36 27 -64 27c-49 0 -74 -33 -74 -98v-541c0 -69 -17 -120 -52 -153c-35 -32 -78 -48 -129 -48c-56 0 -107 24 -134 61l64 73c15 -19 37 -28 64 -28c49 0 74 33 74 99z" />
    <glyph glyph-name="approxequal" unicode="&#x2248;" horiz-adv-x="576" 
d="M145 375l-46 76c43 47 88 70 137 70c27 0 63 -10 108 -29s80 -29 105 -29c35 0 70 16 104 48l44 -73c-47 -45 -94 -67 -142 -67c-31 0 -68 9 -112 28c-44 18 -76 27 -96 27c-31 0 -65 -17 -102 -51zM145 191l-46 76c43 47 88 70 137 70c27 0 64 -10 109 -29
c45 -20 80 -30 104 -30c35 0 69 16 104 49l44 -73c-46 -45 -93 -68 -142 -68c-31 0 -68 9 -112 28s-76 28 -96 28c-31 0 -65 -17 -102 -51z" />
    <glyph glyph-name="notequal" unicode="&#x2260;" horiz-adv-x="566" 
d="M297 402h-186v99h224l81 216l101 -33l-68 -183h127v-99h-165l-32 -86h197v-99h-232l-89 -237l-100 38l76 199h-120v99h154z" />
    <glyph glyph-name="lessequal" unicode="&#x2264;" horiz-adv-x="498" 
d="M502 -7l-400 252v116l400 -249v-119zM502 307v-123l-400 253v47l400 249v-123l-243 -150z" />
    <glyph glyph-name="greaterequal" unicode="&#x2265;" horiz-adv-x="498" 
d="M102 112l400 249v-116l-400 -252v119zM502 484v-47l-400 -253v123l243 153l-243 150v123z" />
    <glyph glyph-name="lozenge" unicode="&#x25ca;" horiz-adv-x="485" 
d="M350 -3h-96l-167 255l168 268h96l167 -257zM302 409l-97 -156l97 -150l98 160z" />
    <glyph glyph-name="uniF350" unicode="&#xf350;" horiz-adv-x="575" 
d="M122 0h-124l352 560h83l145 -560h-115l-28 109h-245zM410 208l-47 176l-114 -176h161z" />
    <glyph glyph-name="uniF351" unicode="&#xf351;" horiz-adv-x="537" 
d="M159 560h419l-20 -109h-308l-19 -101h148c112 0 172 -54 172 -145c0 -137 -90 -205 -270 -205h-226zM336 241h-125l-25 -132h121c83 0 125 25 125 75c0 43 -27 57 -96 57z" />
    <glyph glyph-name="uniF352" unicode="&#xf352;" horiz-adv-x="546" 
d="M295 0h-240l104 560h246c123 0 173 -46 173 -130c0 -63 -29 -108 -87 -136c37 -16 61 -55 61 -103c0 -127 -86 -191 -257 -191zM334 233h-125l-23 -124h119c95 0 131 23 131 74c0 33 -34 50 -102 50zM368 451h-118l-21 -112h128c63 0 99 23 99 64c0 33 -24 48 -88 48z
" />
    <glyph glyph-name="uniF353" unicode="&#xf353;" horiz-adv-x="472" 
d="M166 0h-111l104 560h417l-20 -109h-306z" />
    <glyph glyph-name="uniF354" unicode="&#xf354;" horiz-adv-x="602" 
d="M88 -105h-107l39 214h62c54 80 97 207 129 380l13 71h407l-83 -451h67l-39 -214h-109l19 105h-379zM500 451h-187l-7 -38c-25 -137 -59 -239 -104 -304h235z" />
    <glyph glyph-name="uniF355" unicode="&#xf355;" horiz-adv-x="522" 
d="M488 0h-433l104 560h425l-20 -109h-314l-21 -114h293l-19 -106h-294l-23 -122h322z" />
    <glyph glyph-name="uniF356" unicode="&#xf356;" horiz-adv-x="773" 
d="M-1 0l277 318l-182 242h132l168 -217l38 217h111l-39 -214l227 214h147l-273 -259l170 -301h-127l-132 236l-35 -27l-37 -209h-111l37 209l-26 28l-207 -237h-138z" />
    <glyph glyph-name="uniF357" unicode="&#xf357;" horiz-adv-x="526" 
d="M273 -8c-128 0 -206 37 -249 121l93 61c33 -49 89 -73 168 -73c89 0 137 36 137 79c0 34 -39 51 -117 51h-91l20 109h86c75 0 123 26 123 67c0 35 -34 52 -102 52c-63 0 -117 -21 -161 -64l-75 70c63 69 145 103 248 103c133 0 206 -54 206 -146c0 -59 -31 -102 -92 -131
c46 -21 69 -56 69 -106c0 -59 -24 -106 -72 -141s-112 -52 -191 -52z" />
    <glyph glyph-name="uniF358" unicode="&#xf358;" horiz-adv-x="606" 
d="M504 352l-358 -352h-91l104 560h111l-65 -351l356 351h94l-104 -560h-111z" />
    <glyph glyph-name="uniF359" unicode="&#xf359;" horiz-adv-x="606" 
d="M504 352l-358 -352h-91l104 560h111l-65 -351l356 351h94l-104 -560h-111zM278 761h97c-5 -45 14 -68 59 -68c43 0 68 23 77 68h99c-15 -97 -79 -156 -186 -156c-97 0 -162 57 -146 156z" />
    <glyph glyph-name="uniF35A" unicode="&#xf35a;" horiz-adv-x="559" 
d="M166 0h-111l104 560h111l-42 -226l264 226h160l-300 -259l208 -301h-134l-161 233l-65 -50z" />
    <glyph glyph-name="uniF35B" unicode="&#xf35b;" horiz-adv-x="583" 
d="M528 0h-111l84 451h-184l-12 -65c-51 -269 -133 -389 -257 -389c-19 0 -35 1 -48 3l21 112c53 -7 88 15 127 113c19 49 37 117 54 206l24 129h406z" />
    <glyph glyph-name="uniF35C" unicode="&#xf35c;" horiz-adv-x="684" 
d="M166 0h-111l104 560h88l144 -249l235 249h107l-103 -560h-111l67 363l-198 -207h-29l-125 208z" />
    <glyph glyph-name="uniF35D" unicode="&#xf35d;" horiz-adv-x="606" 
d="M551 0h-111l42 228h-274l-42 -228h-111l104 560h111l-41 -222h274l40 222h112z" />
    <glyph glyph-name="uniF35E" unicode="&#xf35e;" horiz-adv-x="632" 
d="M72 240c0 89 32 166 96 230s145 96 243 96c75 0 136 -23 183 -68c46 -45 69 -104 69 -177c0 -89 -32 -166 -95 -230c-64 -65 -145 -97 -243 -97c-76 0 -137 23 -183 68c-47 45 -70 105 -70 178zM190 251c0 -87 62 -144 146 -144c57 0 106 19 147 57c41 37 62 86 62 145
c0 88 -62 144 -145 144c-55 0 -104 -19 -146 -56c-43 -38 -64 -87 -64 -146z" />
    <glyph glyph-name="uniF35F" unicode="&#xf35f;" horiz-adv-x="604" 
d="M549 0h-111l84 451h-272l-84 -451h-111l104 560h494z" />
    <glyph glyph-name="uniF360" unicode="&#xf360;" horiz-adv-x="552" 
d="M199 180l-33 -180h-111l104 560h233c137 0 206 -56 206 -167c0 -128 -97 -213 -276 -213h-123zM376 451h-126l-31 -162h121c94 0 141 32 141 95c0 45 -35 67 -105 67z" />
    <glyph glyph-name="uniF361" unicode="&#xf361;" horiz-adv-x="560" 
d="M522 181l63 -83c-59 -69 -143 -104 -251 -104c-164 0 -263 92 -263 245c0 96 32 175 95 236s148 91 255 91c100 0 178 -40 207 -101l-82 -69c-30 38 -76 57 -139 57s-115 -19 -156 -56s-61 -86 -61 -146c0 -93 61 -144 158 -144c67 0 125 25 174 74z" />
    <glyph glyph-name="uniF362" unicode="&#xf362;" horiz-adv-x="489" 
d="M273 451h-186l20 109h482l-20 -109h-185l-84 -451h-111z" />
    <glyph glyph-name="uniF363" unicode="&#xf363;" horiz-adv-x="579" 
d="M162 17l48 98c3 -3 11 -5 22 -5c17 0 35 13 55 40l4 5l-187 405h124l133 -293l193 293h129l-281 -429c-60 -91 -107 -131 -171 -131c-27 0 -50 6 -69 17z" />
    <glyph glyph-name="uniF364" unicode="&#xf364;" horiz-adv-x="719" 
d="M411 -12h-111l13 65h-2c-69 0 -127 18 -173 53s-69 85 -69 151c0 83 30 148 91 195c60 47 140 71 239 71l9 49h112l-10 -49c71 0 130 -18 176 -53s69 -85 69 -150c0 -81 -29 -146 -88 -194c-59 -49 -139 -73 -240 -73h-3zM491 413h-1l-46 -250h3c115 0 191 51 191 142
c0 68 -51 108 -147 108zM186 271c0 -68 50 -108 146 -108l47 250c-117 0 -193 -50 -193 -142z" />
    <glyph glyph-name="uniF365" unicode="&#xf365;" horiz-adv-x="560" 
d="M513 560h142l-258 -282l157 -278h-130l-105 194l-174 -194h-142l261 289l-149 271h130l104 -186z" />
    <glyph glyph-name="uniF366" unicode="&#xf366;" horiz-adv-x="604" 
d="M487 0h-432l104 560h111l-84 -451h252l84 451h111l-84 -451h67l-39 -214h-109z" />
    <glyph glyph-name="uniF367" unicode="&#xf367;" horiz-adv-x="567" 
d="M504 560h113l-104 -560h-112l40 214c-45 -21 -92 -32 -140 -32c-135 0 -203 50 -203 150c0 10 13 86 39 228h112l-21 -115c-7 -39 -10 -66 -10 -81c0 -48 36 -72 107 -72c49 0 95 12 137 35z" />
    <glyph glyph-name="uniF368" unicode="&#xf368;" horiz-adv-x="750" 
d="M694 0h-639l104 560h111l-84 -451h153l84 451h111l-84 -451h153l84 451h111z" />
    <glyph glyph-name="uniF369" unicode="&#xf369;" horiz-adv-x="769" 
d="M654 0h-599l104 560h111l-84 -451h153l84 451h111l-84 -451h153l84 451h111l-84 -451h68l-39 -214h-108z" />
    <glyph glyph-name="uniF36A" unicode="&#xf36a;" horiz-adv-x="605" 
d="M211 451h-127l20 109h238l-35 -189h115c137 0 205 -54 205 -162c0 -139 -94 -209 -281 -209h-219zM400 261h-113l-28 -152h111c92 0 138 29 138 88c0 45 -35 64 -108 64z" />
    <glyph glyph-name="uniF36B" unicode="&#xf36b;" horiz-adv-x="705" 
d="M651 0h-111l103 560h111zM307 261h-92l-29 -152h90c97 0 140 26 140 91c0 41 -36 61 -109 61zM159 560h111l-35 -189h94c137 0 205 -53 205 -158c0 -142 -93 -213 -280 -213h-199z" />
    <glyph glyph-name="uniF36C" unicode="&#xf36c;" horiz-adv-x="536" 
d="M331 261h-116l-29 -152h114c93 0 139 30 139 91c0 41 -36 61 -108 61zM159 560h111l-35 -189h117c136 0 206 -56 206 -156c0 -148 -106 -215 -281 -215h-222z" />
    <glyph glyph-name="uniF36D" unicode="&#xf36d;" horiz-adv-x="568" 
d="M470 231h-262l21 109h252c-4 68 -54 117 -146 117c-72 0 -132 -24 -181 -73l-64 77c49 61 146 105 253 105c168 0 258 -91 258 -250c0 -93 -31 -170 -93 -231s-144 -91 -246 -91c-116 0 -196 39 -240 117l88 67c44 -55 81 -75 162 -75c109 0 174 55 198 128z" />
    <glyph glyph-name="uniF36E" unicode="&#xf36e;" horiz-adv-x="818" 
d="M166 0h-111l104 560h111l-42 -225h63c23 72 63 129 122 170c58 41 121 61 189 61c75 0 135 -22 180 -66s68 -100 68 -168c0 -103 -30 -185 -90 -246c-61 -61 -139 -92 -236 -92c-75 0 -135 23 -180 68s-67 103 -67 173h-67zM393 247c0 -87 55 -144 138 -144
c131 0 201 85 201 208c0 91 -52 146 -144 146c-52 0 -97 -20 -136 -60s-59 -90 -59 -150z" />
    <glyph glyph-name="uniF36F" unicode="&#xf36f;" horiz-adv-x="561" 
d="M507 0h-111l35 188h-98l-187 -188h-145l210 209c-70 27 -105 75 -105 146c0 63 24 113 73 150c48 37 110 55 187 55h245zM314 297h137l29 154h-129c-85 0 -128 -29 -128 -87c0 -39 35 -66 91 -67z" />
    <glyph glyph-name="uniF371" unicode="&#xf371;" horiz-adv-x="522" 
d="M488 0h-433l104 560h425l-20 -109h-314l-21 -114h293l-19 -106h-294l-23 -122h322zM240 655c-23 23 -23 61 0 84s61 23 84 0s23 -61 0 -84s-61 -23 -84 0zM448 655c-23 23 -23 61 0 84s61 23 84 0s23 -61 0 -84s-61 -23 -84 0z" />
    <glyph glyph-name="uniF372" unicode="&#xf372;" horiz-adv-x="614" 
d="M491 124c11 15 17 34 17 58s-6 42 -19 55c-13 12 -30 18 -53 18c-43 0 -78 -15 -104 -46l-38 -209h-112l84 451h-182l20 109h478l-20 -109h-185l-22 -119c29 21 70 32 122 32c91 0 149 -57 149 -160c0 -137 -73 -211 -186 -211c-48 0 -83 17 -105 52l65 74
c11 -11 27 -17 46 -17s34 7 45 22z" />
    <glyph glyph-name="uniF373" unicode="&#xf373;" horiz-adv-x="472" 
d="M166 0h-111l104 560h417l-20 -109h-306zM465 833l73 -64l-149 -157l-64 54z" />
    <glyph glyph-name="uniF374" unicode="&#xf374;" horiz-adv-x="557" 
d="M206 340h248l-20 -109h-245c-1 -77 60 -128 151 -128c65 0 118 24 160 73l84 -59c-57 -82 -141 -123 -250 -123c-164 0 -263 93 -263 250c0 90 31 166 93 229c62 62 145 93 249 93c91 0 172 -34 203 -103l-82 -62c-32 39 -67 56 -134 56c-87 0 -165 -45 -194 -117z" />
    <glyph glyph-name="uniF375" unicode="&#xf375;" horiz-adv-x="512" 
d="M406 162c0 56 -109 68 -195 97c-60 20 -107 64 -107 131c0 59 24 103 72 132c47 29 105 44 172 44c95 0 172 -32 212 -87l-67 -76c-41 36 -91 54 -152 54c-79 0 -119 -19 -119 -56c0 -45 108 -60 195 -91c59 -21 106 -68 106 -133c0 -120 -98 -183 -243 -183
c-107 0 -188 35 -241 105l72 81c49 -51 111 -77 186 -77c73 0 109 20 109 59z" />
    <glyph glyph-name="uniF376" unicode="&#xf376;" horiz-adv-x="231" 
d="M171 0h-111l103 560h112z" />
    <glyph glyph-name="uniF377" unicode="&#xf377;" horiz-adv-x="231" 
d="M171 0h-111l103 560h112zM103 644c0 31 25 55 54 55c49 0 72 -60 39 -93c-32 -35 -97 -8 -93 38zM250 644c0 49 58 73 93 39c34 -35 10 -93 -39 -93c-29 0 -54 25 -54 54z" />
    <glyph glyph-name="uniF378" unicode="&#xf378;" horiz-adv-x="394" 
d="M334 560h112l-71 -383c-23 -120 -84 -183 -197 -183c-88 0 -143 45 -167 106l89 62c18 -39 47 -59 86 -59c45 0 69 24 82 97z" />
    <glyph glyph-name="uniF379" unicode="&#xf379;" horiz-adv-x="849" 
d="M654 257h-88l-27 -148h83c89 0 131 25 131 92c0 37 -33 56 -99 56zM226 560h396l-36 -194h89c131 0 196 -52 196 -156c0 -132 -94 -210 -267 -210h-196l83 451h-174l-12 -65c-29 -155 -67 -259 -113 -315s-92 -75 -152 -74c-13 0 -27 1 -40 2l21 113c39 -4 63 5 95 47
s59 131 86 272z" />
    <glyph glyph-name="uniF37A" unicode="&#xf37a;" horiz-adv-x="845" 
d="M623 560l-38 -207h89c127 0 191 -49 191 -147c0 -137 -84 -206 -253 -206h-204l45 243h-242l-45 -243h-111l104 560h111l-38 -207h242l38 207h111zM652 243h-88l-24 -134h83c88 0 126 25 126 77c0 44 -29 57 -97 57z" />
    <glyph glyph-name="uniF37B" unicode="&#xf37b;" horiz-adv-x="596" 
d="M266 451h-182l20 109h478l-20 -109h-185l-22 -116c36 19 74 29 115 29c84 0 136 -42 137 -130c0 -19 -2 -39 -6 -61l-32 -173h-111c22 121 33 188 33 200c0 36 -22 54 -65 54c-35 0 -66 -13 -93 -38l-39 -216h-112z" />
    <glyph glyph-name="uniF37C" unicode="&#xf37c;" horiz-adv-x="559" 
d="M166 0h-111l104 560h111l-42 -226l264 226h160l-300 -259l208 -301h-134l-161 233l-65 -50zM459 833l73 -64l-149 -157l-64 54z" />
    <glyph glyph-name="uniF37E" unicode="&#xf37e;" horiz-adv-x="579" 
d="M162 17l48 98c3 -3 11 -5 22 -5c17 0 35 13 55 40l4 5l-187 405h124l133 -293l193 293h129l-281 -429c-60 -91 -107 -131 -171 -131c-27 0 -50 6 -69 17zM277 761h97c-5 -45 14 -68 59 -68c43 0 68 23 77 68h99c-15 -97 -79 -156 -186 -156c-97 0 -162 57 -146 156z" />
    <glyph glyph-name="uniF37F" unicode="&#xf37f;" horiz-adv-x="597" 
d="M244 0h-189l104 560h111l-84 -451h265l84 451h111l-104 -560h-190l-20 -111h-109z" />
    <glyph glyph-name="uniF381" unicode="&#xf381;" horiz-adv-x="579" 
d="M170 392h-98l20 109h98l11 59h112l-12 -59h179l-20 -109h-179l-9 -50h117c141 0 211 -49 211 -146c0 -136 -92 -196 -271 -196h-231zM368 232h-116l-23 -123h114c96 0 138 17 138 69c0 41 -36 54 -113 54z" />
    <glyph glyph-name="uniF389" unicode="&#xf389;" horiz-adv-x="632" 
d="M72 235c0 94 32 173 96 236c63 63 144 95 242 95c76 0 137 -22 184 -67c46 -45 69 -102 69 -173c0 -93 -32 -172 -95 -236s-144 -96 -243 -96c-75 0 -136 23 -183 68s-70 102 -70 173zM336 107c103 0 166 52 193 120h-339c8 -75 67 -120 146 -120zM394 453
c-89 0 -159 -52 -188 -117h337c-8 65 -54 117 -149 117z" />
    <glyph glyph-name="uniF38A" unicode="&#xf38a;" horiz-adv-x="621" 
d="M597 399l-259 -399h-77l-164 560h114l113 -388l174 277c51 83 99 118 164 118c35 0 63 -9 82 -26l-53 -96c-9 5 -19 7 -29 7c-22 -1 -44 -19 -65 -53z" />
    <glyph glyph-name="uniF393" unicode="&#xf393;" horiz-adv-x="473" 
d="M166 0h-111l104 560h312l17 93h105l-37 -202h-306z" />
    <glyph glyph-name="uniF3CF" unicode="&#xf3cf;" horiz-adv-x="918" 
d="M631 560l-104 -560h-84l-215 359l-66 -359h-106l104 560h84l213 -358l67 358h107zM632 363c0 45 16 84 47 117s73 50 127 50c87 0 135 -48 135 -127c0 -43 -15 -81 -46 -115s-74 -51 -131 -51c-83 0 -132 49 -132 126zM731 375c0 -28 19 -45 48 -45c40 0 65 27 65 62
c0 25 -21 44 -48 44c-36 0 -65 -25 -65 -61zM870 104h-270l18 98h270z" />
    <glyph glyph-name="uniF3D0" unicode="&#xf3d0;" horiz-adv-x="476" 
d="M297 761h97c-5 -45 14 -68 59 -68c43 0 68 23 77 68h99c-15 -97 -79 -156 -186 -156c-97 0 -162 57 -146 156z" />
    <glyph glyph-name="uniF3E4" unicode="&#xf3e4;" horiz-adv-x="0" 
d="M-106 833l73 -64l-149 -157l-64 54z" />
    <glyph glyph-name="uniF400" unicode="&#xf400;" horiz-adv-x="0" 
d="M-86 819l73 -64l-149 -157l-64 54z" />
    <glyph glyph-name="uniF401" unicode="&#xf401;" horiz-adv-x="0" 
d="M-58 949l39 -100l-228 -104l-34 76z" />
    <glyph glyph-name="uniF406" unicode="&#xf406;" horiz-adv-x="534" 
d="M334 869l56 55c28 -41 71 -61 130 -61c53 0 100 20 141 61l47 -60c-51 -69 -116 -103 -194 -103c-93 0 -155 51 -180 108z" />
    <glyph glyph-name="uniF407" unicode="&#xf407;" horiz-adv-x="495" 
d="M211 -161l47 54c18 -17 42 -25 71 -25c27 0 41 8 41 24c0 13 -14 20 -43 20h-12l17 88h59l-6 -32c60 -3 90 -29 90 -79c0 -53 -47 -96 -142 -96c-51 0 -92 15 -122 46z" />
    <glyph glyph-name="uniF408" unicode="&#xf408;" horiz-adv-x="504" 
d="M500 928h4l158 -110l-47 -69l-122 79l-143 -79l-37 72z" />
    <glyph glyph-name="uniF409" unicode="&#xf409;" horiz-adv-x="427" 
d="M279 -98l98 60c19 -19 29 -43 29 -71c0 -36 -12 -69 -36 -99c-25 -30 -52 -53 -82 -70l-49 48c37 31 55 60 55 85c0 15 -5 30 -15 47z" />
    <glyph glyph-name="uniF40A" unicode="&#xf40a;" horiz-adv-x="188" 
d="M183 679l98 58c18 -20 27 -46 27 -77c0 -79 -61 -144 -136 -188l-42 50c44 33 66 68 66 104c0 15 -4 33 -13 53z" />
    <glyph glyph-name="uniF40B" unicode="&#xf40b;" horiz-adv-x="427" 
d="M474 783c-24 23 -24 63 0 87c24 23 62 23 86 0c24 -24 24 -64 0 -87c-24 -24 -62 -24 -86 0z" />
    <glyph glyph-name="uniF40C" unicode="&#xf40c;" horiz-adv-x="496" 
d="M385 823c0 39 15 70 44 92c29 21 63 32 102 32c75 0 123 -33 123 -94c0 -80 -61 -126 -150 -126c-73 0 -119 33 -119 96zM468 830c0 -25 15 -37 45 -37c37 0 57 23 57 52c0 23 -15 35 -44 35c-35 0 -58 -19 -58 -50z" />
    <glyph glyph-name="uniF40D" unicode="&#xf40d;" horiz-adv-x="529" 
d="M358 779l-25 72c37 37 79 56 124 56c18 0 40 -6 67 -18c26 -12 47 -18 64 -18c30 0 56 10 78 31l21 -76c-31 -37 -69 -56 -114 -56c-19 0 -44 6 -74 18c-31 12 -55 18 -73 18c-21 0 -43 -9 -68 -27z" />
    <glyph glyph-name="uniF40E" unicode="&#xf40e;" horiz-adv-x="439" 
d="M403 -97l18 -77c-26 -17 -59 -26 -99 -26c-67 -1 -116 24 -116 84c0 45 24 79 73 102c48 24 103 36 164 36l-4 -22c-29 0 -55 -8 -80 -24s-38 -34 -38 -53c0 -20 12 -30 36 -30c15 0 31 3 46 10z" />
    <glyph glyph-name="uniF410" unicode="&#xf410;" horiz-adv-x="0" 
d="M-100 821l-48 -76l-212 104l61 100z" />
    <glyph glyph-name="uniF416" unicode="&#xf416;" horiz-adv-x="379" 
d="M230 -98l98 60c19 -19 29 -43 29 -71c0 -36 -12 -69 -36 -99c-25 -30 -52 -53 -82 -70l-49 48c37 31 55 60 55 85c0 15 -5 30 -15 47z" />
    <glyph glyph-name="uniF418" unicode="&#xf418;" horiz-adv-x="188" 
d="M153 519l98 58c18 -20 27 -46 27 -77c0 -79 -61 -144 -136 -188l-42 50c44 33 66 68 66 104c0 15 -4 33 -13 53z" />
    <glyph glyph-name="uniF447" unicode="&#xf447;" horiz-adv-x="482" 
d="M121 -166l44 59c18 -17 41 -25 70 -25c27 0 41 8 41 24c0 13 -14 20 -43 20h-12l16 88h-26l84 451h-186l20 109h482l-20 -109h-185l-84 -451h-25l-6 -32c55 -4 83 -28 83 -71c0 -61 -53 -104 -148 -104c-41 0 -76 14 -105 41z" />
    <glyph glyph-name="uniF44E" unicode="&#xf44e;" horiz-adv-x="617" 
d="M63 209c0 53 8 97 25 131h444c-5 78 -55 117 -149 117c-71 0 -129 -25 -175 -76l-68 79c58 71 145 106 261 106c157 0 248 -87 248 -226c0 -105 -32 -189 -95 -252s-145 -94 -246 -94c-83 0 -144 21 -184 64c-41 42 -61 92 -61 151zM519 231h-343
c-1 -85 53 -128 144 -128c96 0 168 48 199 128z" />
    <glyph glyph-name="uniF452" unicode="&#xf452;" horiz-adv-x="718" 
d="M166 0h-111l104 560h420l-19 -109h-310l-25 -133h290l-20 -109h-290zM658 0h-111l103 560h112z" />
    <glyph glyph-name="uniF453" unicode="&#xf453;" horiz-adv-x="978" 
d="M166 0h-111l104 560h420l-19 -109h-310l-25 -133h290l-20 -109h-290zM970 0h-424l104 560h111l-84 -451h313z" />
    <glyph glyph-name="zero.tab" unicode="&#xf4e0;" 
d="M98 263c0 127 31 232 92 317s139 127 235 127c141 0 213 -105 213 -266c0 -130 -30 -237 -91 -321c-61 -85 -139 -127 -236 -127c-140 0 -213 97 -213 270zM217 273c0 -105 39 -165 112 -165c56 0 102 29 137 87c35 57 53 135 53 232c0 105 -39 165 -112 165
c-55 0 -101 -29 -136 -87c-36 -58 -54 -135 -54 -232z" />
    <glyph glyph-name="one.tab" unicode="&#xf4e1;" 
d="M552 0h-475l21 112h229l82 440l-214 -93l-22 107l301 136h72l-109 -590h136z" />
    <glyph glyph-name="two.tab" unicode="&#xf4e2;" 
d="M233 476l-99 44c56 125 151 187 285 187c147 0 221 -70 221 -189c0 -65 -21 -123 -64 -174s-122 -113 -236 -186l-85 -46h330l-21 -112h-516l16 89l172 115c8 6 25 18 52 37s46 32 57 41c11 8 28 21 51 38c22 17 38 32 49 44c36 38 77 92 71 137c0 56 -38 90 -105 90
c-84 0 -134 -38 -178 -115z" />
    <glyph glyph-name="three.tab" unicode="&#xf4e3;" horiz-adv-x="589" 
d="M235 500l-91 52c47 97 147 157 271 157c144 0 221 -60 221 -171c0 -76 -50 -142 -139 -169c65 -19 97 -65 97 -139c0 -72 -26 -130 -78 -173s-121 -65 -206 -65c-64 0 -119 15 -165 44s-73 72 -81 131l105 42c16 -64 72 -101 151 -101c97 0 153 43 153 111
c0 63 -54 84 -147 84h-65l20 110h69c104 0 163 42 163 102c0 53 -36 80 -109 80s-129 -32 -169 -95z" />
    <glyph glyph-name="four.tab" unicode="&#xf4e4;" 
d="M502 0h-111l25 133h-358l15 78l463 489h95l-84 -460h84l-20 -107h-84zM483 498l-244 -258h197z" />
    <glyph glyph-name="five.tab" unicode="&#xf4e5;" 
d="M217 307l-94 10l102 383h434l-21 -113h-334l-43 -155c35 17 75 25 122 25c140 0 212 -74 212 -202c0 -78 -27 -141 -81 -190c-55 -49 -124 -73 -208 -73c-125 0 -220 55 -240 172l109 39c15 -63 63 -95 144 -95c93 0 156 57 156 138c0 64 -46 102 -125 102
c-52 0 -96 -14 -133 -41z" />
    <glyph glyph-name="six.tab" unicode="&#xf4e6;" 
d="M92 253c0 137 33 247 100 331c66 83 155 125 266 125c87 0 152 -30 193 -91l-74 -81c-37 36 -70 55 -130 55c-111 0 -199 -78 -224 -221c59 71 126 107 202 107c123 0 197 -80 197 -201c0 -87 -27 -156 -82 -208s-122 -78 -200 -78c-165 0 -248 87 -248 262zM220 255
c-4 -99 39 -148 129 -148c91 0 151 64 151 153c0 65 -39 105 -108 105c-38 0 -73 -12 -106 -35c-33 -24 -55 -49 -66 -75z" />
    <glyph glyph-name="seven.tab" unicode="&#xf4e7;" 
d="M524 587h-368l20 113h517l-14 -76l-428 -624h-133z" />
    <glyph glyph-name="eight.tab" unicode="&#xf4e8;" 
d="M367 411h28c79 0 131 43 131 106c0 54 -37 81 -112 81c-89 0 -144 -41 -144 -101c0 -57 32 -86 97 -86zM374 308h-23c-95 0 -155 -45 -155 -116c0 -63 57 -91 130 -91c103 0 168 45 168 118c0 56 -44 89 -120 89zM319 -8c-152 0 -244 64 -244 184c0 88 52 158 143 190
c-44 27 -66 67 -66 121c0 72 26 127 78 165c52 37 121 56 206 56c141 0 212 -56 212 -167c0 -77 -51 -150 -132 -179c64 -20 97 -71 97 -132c0 -77 -27 -135 -81 -176c-55 -41 -126 -62 -213 -62z" />
    <glyph glyph-name="nine.tab" unicode="&#xf4e9;" 
d="M649 454c0 -149 -32 -263 -97 -343s-151 -120 -258 -120c-87 0 -152 30 -196 91l77 82c34 -37 77 -56 128 -56c108 0 187 79 210 207c-47 -59 -111 -89 -192 -89c-120 0 -196 77 -196 202c0 83 29 150 86 203c57 52 127 78 211 78c147 0 227 -91 227 -255zM522 432
c7 43 1 80 -18 113c-19 32 -53 48 -103 48c-44 0 -81 -14 -110 -43c-30 -29 -45 -67 -45 -112c0 -65 39 -103 108 -103c35 0 69 10 102 31c33 20 55 42 66 66z" />
    <glyph glyph-name="dollar.tab" unicode="&#xf4ec;" 
d="M482 202c0 68 -89 82 -178 112c-90 26 -179 65 -179 176c0 63 23 113 68 150s103 58 172 65l14 78h109l-14 -78c85 -9 148 -42 191 -97l-77 -84c-45 47 -107 71 -186 71c-103 0 -155 -30 -155 -89c0 -71 129 -92 231 -129c70 -26 126 -81 126 -161
c0 -68 -24 -122 -73 -162s-112 -60 -188 -60l-16 -86h-110l17 91c-87 16 -158 65 -194 124l79 79c44 -63 124 -97 219 -97c88 0 144 38 144 97z" />
    <glyph glyph-name="Euro.tab" unicode="&#xf4ed;" 
d="M167 386h-80l50 98h60c73 149 191 224 352 224c73 0 127 -15 164 -44l-53 -89c-35 19 -77 29 -124 29c-92 0 -172 -41 -217 -120h299l-49 -98h-288c-4 -13 -7 -26 -8 -39c-1 -12 -2 -21 -2 -27h263l-44 -98h-215c17 -85 76 -127 177 -127c45 0 86 11 123 32l15 -95
c-39 -27 -92 -40 -160 -40c-157 0 -259 83 -276 230h-95l48 98l50 1c0 2 0 13 2 24c1 12 4 26 8 41z" />
    <glyph glyph-name="cent.tab" unicode="&#xf4ee;" 
d="M489 171l74 -60c-26 -39 -53 -66 -82 -81s-66 -27 -112 -35l-36 -195h-114l36 202c-101 33 -151 103 -151 210c0 83 23 153 69 210s106 92 181 106l31 172h114l-32 -176c68 -13 115 -62 130 -113l-84 -53c-19 37 -45 58 -77 65l-60 -326c45 7 82 32 113 74zM219 225
c0 -53 23 -100 70 -119l57 315c-76 -20 -127 -99 -127 -196z" />
    <glyph glyph-name="sterling.tab" unicode="&#xf4ef;" 
d="M212 260h-81l18 96h54c-9 49 -13 82 -13 100c0 164 102 251 258 251c85 0 147 -30 186 -89l-71 -82c-37 39 -81 58 -132 58c-79 0 -124 -56 -124 -125c0 -27 13 -82 17 -113h160l-18 -96h-141c0 -6 -1 -13 -3 -21c-7 -42 -22 -75 -45 -98c17 -1 43 -8 78 -21
s62 -20 81 -20c38 0 74 17 107 50l47 -78c-49 -49 -103 -73 -163 -73c-31 0 -68 8 -111 23c-44 15 -78 22 -101 22c-41 0 -82 -18 -124 -54l-37 79c31 33 67 56 106 68c26 29 42 62 49 98c1 8 3 24 3 25z" />
    <glyph glyph-name="yen.tab" unicode="&#xf4fa;" 
d="M302 302h-156l18 99h90l-118 299h128l109 -291l213 291h143l-227 -299h91l-18 -99h-158l-16 -85h158l-18 -99h-158l-22 -118h-115l22 118h-157l18 99h157z" />
    <glyph glyph-name="florin.tab" unicode="&#xf4fb;" 
d="M450 481l-5 -24h144v-105h-162l-61 -342c-12 -64 -24 -105 -51 -150c-27 -44 -72 -68 -133 -68c-50 0 -90 16 -121 48l38 88c21 -20 45 -30 73 -30c40 0 65 30 76 89l66 365h-134v105h153l7 42c22 140 90 210 204 210c53 0 96 -13 127 -40l-41 -90c-23 16 -49 24 -78 24
c-59 0 -83 -33 -102 -122z" />
    <glyph glyph-name="uni20B4.tab" unicode="&#xf4fc;" 
d="M377 397h-245l17 95h309c17 18 25 36 25 55c0 33 -25 49 -74 49s-99 -15 -152 -44l-35 89c56 45 123 68 202 68c121 0 182 -43 182 -130c0 -33 -12 -62 -35 -87h61l-17 -95h-121c-27 -20 -57 -36 -95 -55c-19 -9 -32 -16 -38 -19h240l-17 -95h-313
c-17 -17 -33 -35 -33 -63c0 -40 38 -61 97 -61c67 0 124 21 169 62l43 -85c-57 -60 -132 -90 -226 -90c-125 0 -201 51 -201 143c0 31 11 63 33 94h-53l17 95h114c24 13 52 27 83 42s52 25 63 32z" />
    <glyph glyph-name="uni20BD.tab" unicode="&#xf4fd;" 
d="M188 295h-98l20 106h98l55 299c5 0 21 0 48 1h57c10 0 24 0 41 1h33c152 0 219 -67 219 -175c0 -151 -115 -232 -294 -232h-68l-12 -65h160l-20 -106h-160l-22 -124h-112l23 124h-98l20 106h98zM429 595h-74l-36 -194h66c105 0 158 39 158 117c0 51 -38 77 -114 77z" />
    <glyph glyph-name="zero.denominator" unicode="&#xf655;" horiz-adv-x="459" 
d="M56 167c0 73 21 134 62 183s94 74 161 74c107 0 165 -67 165 -171c0 -75 -21 -136 -62 -184c-42 -49 -96 -73 -162 -73c-105 0 -164 68 -164 171zM159 183c0 -57 24 -90 71 -90c65 0 112 57 112 149c0 57 -24 85 -71 85c-69 0 -112 -57 -112 -144z" />
    <glyph glyph-name="one.denominator" unicode="&#xf656;" horiz-adv-x="299" 
d="M76 261l-20 92l166 68h73l-77 -421h-100l56 300z" />
    <glyph glyph-name="two.denominator" unicode="&#xf657;" horiz-adv-x="400" 
d="M137 267l-67 47c29 65 99 110 184 110c93 0 139 -38 139 -115c0 -65 -47 -125 -141 -182l-55 -33h171l-17 -94h-328l15 81l93 54c99 56 157 103 157 154c0 27 -16 41 -48 41c-40 0 -74 -21 -103 -63z" />
    <glyph glyph-name="three.denominator" unicode="&#xf658;" horiz-adv-x="408" 
d="M134 279l-59 57c37 57 106 89 181 89c97 0 145 -34 145 -101c0 -43 -28 -83 -80 -102c37 -13 56 -38 56 -77c0 -48 -18 -85 -54 -111c-37 -26 -80 -39 -130 -39c-91 0 -147 35 -167 104l78 46c16 -37 47 -56 94 -56c52 0 78 16 78 48c0 23 -22 34 -65 34h-45l15 81h37
c51 0 76 16 76 49c0 20 -16 30 -48 30c-44 0 -81 -17 -112 -52z" />
    <glyph glyph-name="four.denominator" unicode="&#xf659;" horiz-adv-x="430" 
d="M320 0h-94l14 76h-233l13 73l295 271h83l-47 -253h73l-17 -91h-73zM279 286l-135 -119h113z" />
    <glyph glyph-name="five.denominator" unicode="&#xf65a;" horiz-adv-x="395" 
d="M70 171l67 249h264l-17 -94h-185l-17 -57c13 3 31 5 52 5c81 0 131 -45 131 -114c0 -100 -70 -165 -185 -165c-82 0 -135 27 -159 81l77 57c15 -29 45 -44 89 -44c51 0 76 19 76 56c0 30 -26 45 -77 45c-33 0 -72 -6 -116 -19z" />
    <glyph glyph-name="six.denominator" unicode="&#xf65b;" horiz-adv-x="446" 
d="M54 158c0 83 23 148 68 196c45 47 104 71 175 71c59 0 107 -14 143 -43l-49 -73c-31 17 -67 25 -106 25c-63 0 -110 -38 -121 -95c35 31 76 46 123 46c88 0 138 -47 138 -116c0 -101 -74 -174 -198 -174c-108 0 -173 59 -173 163zM161 157c-3 -39 23 -68 74 -68
c52 0 88 24 88 63c0 30 -24 45 -71 45c-41 0 -72 -13 -91 -40z" />
    <glyph glyph-name="seven.denominator" unicode="&#xf65c;" horiz-adv-x="367" 
d="M267 322h-206l18 98h329l-15 -75l-246 -345h-116z" />
    <glyph glyph-name="eight.denominator" unicode="&#xf65d;" horiz-adv-x="460" 
d="M249 256h19c37 0 66 16 66 44c0 23 -21 34 -62 34c-49 0 -74 -15 -74 -44c0 -23 17 -34 51 -34zM252 175h-16c-51 0 -80 -19 -80 -50c0 -26 25 -39 74 -39c60 0 90 17 90 50c0 26 -23 39 -68 39zM217 -5c-101 0 -166 41 -166 112c0 48 28 93 83 113c-24 15 -36 37 -36 66
c0 89 80 139 187 139c93 0 152 -41 152 -108c0 -47 -23 -80 -68 -99c35 -14 52 -39 52 -76c0 -92 -77 -147 -204 -147z" />
    <glyph glyph-name="nine.denominator" unicode="&#xf65e;" horiz-adv-x="446" 
d="M431 262c0 -171 -91 -267 -240 -267c-61 0 -108 15 -141 45l51 71c30 -17 63 -25 99 -25c64 0 111 38 122 95c-34 -31 -75 -46 -123 -46c-84 0 -137 48 -137 125c0 47 19 87 57 118c37 31 84 47 141 47c108 0 171 -59 171 -163zM325 263c4 39 -23 68 -74 68
c-52 0 -87 -24 -87 -63c0 -30 23 -45 70 -45c43 0 73 13 91 40z" />
    <glyph glyph-name="zero.numerator" unicode="&#xf661;" horiz-adv-x="459" 
d="M129 467c0 73 21 134 62 183s94 74 161 74c107 0 165 -67 165 -171c0 -75 -21 -136 -62 -184c-42 -49 -96 -73 -162 -73c-105 0 -164 68 -164 171zM232 483c0 -57 24 -90 71 -90c65 0 112 57 112 149c0 57 -24 85 -71 85c-69 0 -112 -57 -112 -144z" />
    <glyph glyph-name="one.numerator" unicode="&#xf662;" horiz-adv-x="299" 
d="M150 561l-20 92l166 68h73l-77 -421h-100l56 300z" />
    <glyph glyph-name="two.numerator" unicode="&#xf663;" horiz-adv-x="400" 
d="M210 567l-67 47c29 65 99 110 184 110c93 0 139 -38 139 -115c0 -65 -47 -125 -141 -182l-55 -33h171l-17 -94h-328l15 81l93 54c99 56 157 103 157 154c0 27 -16 41 -48 41c-40 0 -74 -21 -103 -63z" />
    <glyph glyph-name="three.numerator" unicode="&#xf664;" horiz-adv-x="408" 
d="M208 579l-59 57c37 57 106 89 181 89c97 0 145 -34 145 -101c0 -43 -28 -83 -80 -102c37 -13 56 -38 56 -77c0 -48 -18 -85 -54 -111c-37 -26 -80 -39 -130 -39c-91 0 -147 35 -167 104l78 46c16 -37 47 -56 94 -56c52 0 78 16 78 48c0 23 -22 34 -65 34h-45l15 81h37
c51 0 76 16 76 49c0 20 -16 30 -48 30c-44 0 -81 -17 -112 -52z" />
    <glyph glyph-name="four.numerator" unicode="&#xf665;" horiz-adv-x="430" 
d="M394 300h-94l14 76h-233l13 73l295 271h83l-47 -253h73l-17 -91h-73zM353 586l-135 -119h113z" />
    <glyph glyph-name="five.numerator" unicode="&#xf666;" horiz-adv-x="395" 
d="M144 471l67 249h264l-17 -94h-185l-17 -57c13 3 31 5 52 5c81 0 131 -45 131 -114c0 -100 -70 -165 -185 -165c-82 0 -135 27 -159 81l77 57c15 -29 45 -44 89 -44c51 0 76 19 76 56c0 30 -26 45 -77 45c-33 0 -72 -6 -116 -19z" />
    <glyph glyph-name="six.numerator" unicode="&#xf667;" horiz-adv-x="446" 
d="M128 458c0 83 23 148 68 196c45 47 104 71 175 71c59 0 107 -14 143 -43l-49 -73c-31 17 -67 25 -106 25c-63 0 -110 -38 -121 -95c35 31 76 46 123 46c88 0 138 -47 138 -116c0 -101 -74 -174 -198 -174c-108 0 -173 59 -173 163zM235 457c-3 -39 23 -68 74 -68
c52 0 88 24 88 63c0 30 -24 45 -71 45c-41 0 -72 -13 -91 -40z" />
    <glyph glyph-name="seven.numerator" unicode="&#xf668;" horiz-adv-x="367" 
d="M340 622h-206l18 98h329l-15 -75l-246 -345h-116z" />
    <glyph glyph-name="eight.numerator" unicode="&#xf669;" horiz-adv-x="460" 
d="M323 556h19c37 0 66 16 66 44c0 23 -21 34 -62 34c-49 0 -74 -15 -74 -44c0 -23 17 -34 51 -34zM326 475h-16c-51 0 -80 -19 -80 -50c0 -26 25 -39 74 -39c60 0 90 17 90 50c0 26 -23 39 -68 39zM291 295c-101 0 -166 41 -166 112c0 48 28 93 83 113
c-24 15 -36 37 -36 66c0 89 80 139 187 139c93 0 152 -41 152 -108c0 -47 -23 -80 -68 -99c35 -14 52 -39 52 -76c0 -92 -77 -147 -204 -147z" />
    <glyph glyph-name="nine.numerator" unicode="&#xf66a;" horiz-adv-x="446" 
d="M504 562c0 -171 -91 -267 -240 -267c-61 0 -108 15 -141 45l51 71c30 -17 63 -25 99 -25c64 0 111 38 122 95c-34 -31 -75 -46 -123 -46c-84 0 -137 48 -137 125c0 47 19 87 57 118c37 31 84 47 141 47c108 0 171 -59 171 -163zM398 563c4 39 -23 68 -74 68
c-52 0 -87 -24 -87 -63c0 -30 23 -45 70 -45c43 0 73 13 91 40z" />
    <glyph glyph-name="uniF66D" unicode="&#xf66d;" horiz-adv-x="575" 
d="M122 0h-124l352 560h83l145 -560h-115l-28 109h-245zM410 208l-47 176l-114 -176h161zM268 717l51 55c23 -35 57 -52 103 -52c45 0 84 18 118 53l40 -57c-33 -53 -92 -93 -167 -93c-64 0 -118 33 -145 94z" />
    <glyph glyph-name="uniF66E" unicode="&#xf66e;" horiz-adv-x="575" 
d="M122 0h-124l352 560h83l145 -560h-115l-28 109h-245zM410 208l-47 176l-114 -176h161zM538 638h-267l18 96h267z" />
    <glyph glyph-name="uniF66F" unicode="&#xf66f;" horiz-adv-x="575" 
d="M535 -96l20 -73c-25 -21 -59 -31 -102 -31c-61 0 -107 28 -107 81c0 61 48 104 115 125l-26 103h-245l-68 -109h-124l352 560h83l145 -560h-31c-19 0 -38 -8 -55 -23c-18 -15 -27 -31 -27 -50c0 -21 10 -32 29 -32c15 0 28 3 41 9zM410 208l-47 176l-114 -176h161z" />
    <glyph glyph-name="uniF671" unicode="&#xf671;" horiz-adv-x="560" 
d="M522 181l63 -83c-59 -69 -143 -104 -251 -104c-164 0 -263 92 -263 245c0 96 32 175 95 236s148 91 255 91c100 0 178 -40 207 -101l-82 -69c-30 38 -76 57 -139 57s-115 -19 -156 -56s-61 -86 -61 -146c0 -93 61 -144 158 -144c67 0 125 25 174 74zM500 833l73 -64
l-149 -157l-64 54z" />
    <glyph glyph-name="uniF672" unicode="&#xf672;" horiz-adv-x="560" 
d="M522 181l63 -83c-59 -69 -143 -104 -251 -104c-164 0 -263 92 -263 245c0 96 32 175 95 236s148 91 255 91c100 0 178 -40 207 -101l-82 -69c-30 38 -76 57 -139 57s-115 -19 -156 -56s-61 -86 -61 -146c0 -93 61 -144 158 -144c67 0 125 25 174 74zM415 609h-4l-133 138
l61 62l85 -87l115 85l48 -68z" />
    <glyph glyph-name="uniF673" unicode="&#xf673;" horiz-adv-x="560" 
d="M522 181l63 -83c-59 -69 -143 -104 -251 -104c-164 0 -263 92 -263 245c0 96 32 175 95 236s148 91 255 91c100 0 178 -40 207 -101l-82 -69c-30 38 -76 57 -139 57s-115 -19 -156 -56s-61 -86 -61 -146c0 -93 61 -144 158 -144c67 0 125 25 174 74zM440 804h4l133 -138
l-61 -62l-85 87l-115 -85l-48 68z" />
    <glyph glyph-name="uniF674" unicode="&#xf674;" horiz-adv-x="560" 
d="M522 181l63 -83c-59 -69 -143 -104 -251 -104c-164 0 -263 92 -263 245c0 96 32 175 95 236s148 91 255 91c100 0 178 -40 207 -101l-82 -69c-30 38 -76 57 -139 57s-115 -19 -156 -56s-61 -86 -61 -146c0 -93 61 -144 158 -144c67 0 125 25 174 74zM385 653
c-24 23 -24 63 0 87c23 23 63 23 87 0c23 -24 23 -64 0 -87c-24 -24 -64 -24 -87 0z" />
    <glyph glyph-name="uniF675" unicode="&#xf675;" horiz-adv-x="580" 
d="M221 0h-166l104 560h177c193 0 278 -92 278 -228c0 -217 -140 -332 -393 -332zM314 451h-64l-64 -342h65c167 0 245 85 245 206c0 91 -61 136 -182 136zM368 609h-4l-133 138l61 62l85 -87l115 85l48 -68z" />
    <glyph glyph-name="uniF676" unicode="&#xf676;" horiz-adv-x="632" 
d="M149 231h-92l18 97h92l43 232h178c193 0 277 -89 277 -229c0 -213 -140 -331 -391 -331h-168zM366 451h-65l-23 -123h135l-18 -97h-135l-23 -122h65c168 0 245 85 245 206c0 91 -60 136 -181 136z" />
    <glyph glyph-name="uniF678" unicode="&#xf678;" horiz-adv-x="522" 
d="M488 0h-433l104 560h425l-20 -109h-314l-21 -114h293l-19 -106h-294l-23 -122h322zM384 609h-4l-133 138l61 62l85 -87l115 85l48 -68z" />
    <glyph glyph-name="uniF679" unicode="&#xf679;" horiz-adv-x="522" 
d="M488 0h-433l104 560h425l-20 -109h-314l-21 -114h293l-19 -106h-294l-23 -122h322zM354 653c-24 23 -24 63 0 87c24 23 62 23 86 0c24 -24 24 -64 0 -87c-24 -24 -62 -24 -86 0z" />
    <glyph glyph-name="uniF67A" unicode="&#xf67a;" horiz-adv-x="522" 
d="M488 0h-433l104 560h425l-20 -109h-314l-21 -114h293l-19 -106h-294l-23 -122h322zM524 638h-267l18 96h267z" />
    <glyph glyph-name="uniF67C" unicode="&#xf67c;" horiz-adv-x="522" 
d="M383 0h-328l104 560h425l-20 -109h-314l-21 -114h293l-19 -106h-294l-23 -122h322l-20 -109h-10c-37 -3 -76 -37 -76 -73c0 -21 10 -32 29 -32c15 0 28 3 41 9l20 -73c-25 -21 -59 -31 -102 -31c-61 0 -107 28 -107 81c0 51 33 90 100 119z" />
    <glyph glyph-name="uniF67D" unicode="&#xf67d;" horiz-adv-x="580" 
d="M484 204h-146l20 106h253l-40 -228c-61 -59 -139 -88 -234 -88c-165 0 -266 95 -266 248c0 94 32 172 95 233s149 91 256 91c96 0 173 -38 204 -97l-83 -69c-35 35 -81 53 -137 53c-64 0 -116 -19 -156 -56c-41 -37 -61 -87 -61 -149c0 -89 62 -141 161 -141
c49 0 89 10 122 31zM284 717l51 55c23 -35 57 -52 103 -52c45 0 84 18 118 53l40 -57c-33 -53 -92 -93 -167 -93c-64 0 -118 33 -145 94z" />
    <glyph glyph-name="uniF67E" unicode="&#xf67e;" horiz-adv-x="580" 
d="M484 204h-146l20 106h253l-40 -228c-61 -59 -139 -88 -234 -88c-165 0 -266 95 -266 248c0 94 32 172 95 233s149 91 256 91c96 0 173 -38 204 -97l-83 -69c-35 35 -81 53 -137 53c-64 0 -116 -19 -156 -56c-41 -37 -61 -87 -61 -149c0 -89 62 -141 161 -141
c49 0 89 10 122 31zM453 804h4l133 -138l-61 -62l-85 87l-115 -85l-48 68z" />
    <glyph glyph-name="uniF67F" unicode="&#xf67f;" horiz-adv-x="580" 
d="M484 204h-146l20 106h253l-40 -228c-61 -59 -139 -88 -234 -88c-165 0 -266 95 -266 248c0 94 32 172 95 233s149 91 256 91c96 0 173 -38 204 -97l-83 -69c-35 35 -81 53 -137 53c-64 0 -116 -19 -156 -56c-41 -37 -61 -87 -61 -149c0 -89 62 -141 161 -141
c49 0 89 10 122 31zM241 -98l98 60c19 -19 29 -43 29 -71c0 -36 -12 -69 -36 -99c-25 -30 -52 -53 -82 -70l-49 48c37 31 55 60 55 85c0 15 -5 30 -15 47z" />
    <glyph glyph-name="uniF680" unicode="&#xf680;" horiz-adv-x="580" 
d="M484 204h-146l20 106h253l-40 -228c-61 -59 -139 -88 -234 -88c-165 0 -266 95 -266 248c0 94 32 172 95 233s149 91 256 91c96 0 173 -38 204 -97l-83 -69c-35 35 -81 53 -137 53c-64 0 -116 -19 -156 -56c-41 -37 -61 -87 -61 -149c0 -89 62 -141 161 -141
c49 0 89 10 122 31zM395 653c-24 23 -24 63 0 87c23 23 63 23 87 0c23 -24 23 -64 0 -87c-24 -24 -64 -24 -87 0z" />
    <glyph glyph-name="uniF681" unicode="&#xf681;" horiz-adv-x="605" 
d="M129 403h-55l17 91h55l13 66h111l-13 -66h274l12 66h112l-13 -66h54l-17 -91h-54l-74 -403h-111l42 228h-274l-42 -228h-111zM240 403l-11 -66h274l11 66h-274z" />
    <glyph glyph-name="uniF682" unicode="&#xf682;" horiz-adv-x="606" 
d="M551 0h-111l42 228h-274l-42 -228h-111l104 560h111l-41 -222h274l40 222h112zM447 804h4l133 -138l-61 -62l-85 87l-115 -85l-48 68z" />
    <glyph glyph-name="uniF685" unicode="&#xf685;" horiz-adv-x="231" 
d="M171 0h-111l103 560h112zM366 638h-267l18 96h267z" />
    <glyph glyph-name="uniF686" unicode="&#xf686;" horiz-adv-x="231" 
d="M67 0h-7l103 560h112l-104 -560h-9c-37 -3 -76 -37 -76 -73c0 -19 13 -32 30 -32c15 0 28 3 41 9l20 -73c-25 -21 -59 -31 -102 -31c-61 0 -107 28 -107 81c0 51 33 91 99 119z" />
    <glyph glyph-name="uniF688" unicode="&#xf688;" horiz-adv-x="394" 
d="M334 560h112l-71 -383c-23 -120 -84 -183 -197 -183c-88 0 -143 45 -167 106l89 62c18 -39 47 -59 86 -59c45 0 69 24 82 97zM418 804h4l133 -138l-61 -62l-85 87l-115 -85l-48 68z" />
    <glyph glyph-name="uniF689" unicode="&#xf689;" horiz-adv-x="559" 
d="M166 0h-111l104 560h111l-42 -226l264 226h160l-300 -259l208 -301h-134l-161 233l-65 -50zM184 -98l98 60c19 -19 29 -43 29 -71c0 -36 -12 -69 -36 -99c-25 -30 -52 -53 -82 -70l-49 48c37 31 55 60 55 85c0 15 -5 30 -15 47z" />
    <glyph glyph-name="uniF68A" unicode="&#xf68a;" horiz-adv-x="487" 
d="M479 0h-424l104 560h111l-84 -451h313zM393 833l73 -64l-149 -157l-64 54z" />
    <glyph glyph-name="uniF68B" unicode="&#xf68b;" horiz-adv-x="487" 
d="M479 0h-424l104 560h111l-84 -451h313zM419 560h110c3 -7 4 -19 4 -35c0 -87 -63 -156 -138 -200l-40 48c47 37 71 79 71 125c0 23 -2 43 -7 62z" />
    <glyph glyph-name="uniF68C" unicode="&#xf68c;" horiz-adv-x="487" 
d="M479 0h-424l104 560h111l-84 -451h313zM187 -98l98 60c19 -19 29 -43 29 -71c0 -36 -12 -69 -36 -99c-25 -30 -52 -53 -82 -70l-49 48c37 31 55 60 55 85c0 15 -5 30 -15 47z" />
    <glyph glyph-name="uniF68D" unicode="&#xf68d;" horiz-adv-x="487" 
d="M479 0h-424l104 560h111l-84 -451h313zM341 309c0 37 34 73 81 73c44 0 80 -37 80 -73c0 -40 -35 -75 -80 -75c-48 0 -81 35 -81 75z" />
    <glyph glyph-name="uniF68E" unicode="&#xf68e;" horiz-adv-x="598" 
d="M646 560l-104 -560h-86l-226 366l-67 -366h-108l104 560h85l226 -365l68 365h108zM488 833l73 -64l-149 -157l-64 54z" />
    <glyph glyph-name="uniF68F" unicode="&#xf68f;" horiz-adv-x="598" 
d="M646 560l-104 -560h-86l-226 366l-67 -366h-108l104 560h85l226 -365l68 365h108zM414 609h-4l-133 138l61 62l85 -87l115 85l48 -68z" />
    <glyph glyph-name="uniF690" unicode="&#xf690;" horiz-adv-x="598" 
d="M646 560l-104 -560h-86l-226 366l-67 -366h-108l104 560h85l226 -365l68 365h108zM219 -98l98 60c19 -19 29 -43 29 -71c0 -36 -12 -69 -36 -99c-25 -30 -52 -53 -82 -70l-49 48c37 31 55 60 55 85c0 15 -5 30 -15 47z" />
    <glyph glyph-name="uniF692" unicode="&#xf692;" horiz-adv-x="632" 
d="M72 240c0 89 32 166 96 230s145 96 243 96c75 0 136 -23 183 -68c46 -45 69 -104 69 -177c0 -89 -32 -166 -95 -230c-64 -65 -145 -97 -243 -97c-76 0 -137 23 -183 68c-47 45 -70 105 -70 178zM190 251c0 -87 62 -144 146 -144c57 0 106 19 147 57c41 37 62 86 62 145
c0 88 -62 144 -145 144c-55 0 -104 -19 -146 -56c-43 -38 -64 -87 -64 -146zM599 826l61 -57l-161 -158l-49 45zM444 833l62 -54l-152 -168l-51 46z" />
    <glyph glyph-name="uniF693" unicode="&#xf693;" horiz-adv-x="632" 
d="M72 240c0 89 32 166 96 230s145 96 243 96c75 0 136 -23 183 -68c46 -45 69 -104 69 -177c0 -89 -32 -166 -95 -230c-64 -65 -145 -97 -243 -97c-76 0 -137 23 -183 68c-47 45 -70 105 -70 178zM190 251c0 -87 62 -144 146 -144c57 0 106 19 147 57c41 37 62 86 62 145
c0 88 -62 144 -145 144c-55 0 -104 -19 -146 -56c-43 -38 -64 -87 -64 -146zM567 638h-267l18 96h267z" />
    <glyph glyph-name="uniF695" unicode="&#xf695;" horiz-adv-x="554" 
d="M202 195l-36 -195h-111l104 560h225c130 0 195 -50 195 -151c0 -96 -52 -163 -152 -192l125 -217h-128l-110 195h-112zM361 451h-111l-28 -147h116c77 0 125 33 125 89c0 39 -34 58 -102 58zM443 833l73 -64l-149 -157l-64 54z" />
    <glyph glyph-name="uniF696" unicode="&#xf696;" horiz-adv-x="554" 
d="M202 195l-36 -195h-111l104 560h225c130 0 195 -50 195 -151c0 -96 -52 -163 -152 -192l125 -217h-128l-110 195h-112zM361 451h-111l-28 -147h116c77 0 125 33 125 89c0 39 -34 58 -102 58zM371 609h-4l-133 138l61 62l85 -87l115 85l48 -68z" />
    <glyph glyph-name="uniF697" unicode="&#xf697;" horiz-adv-x="554" 
d="M202 195l-36 -195h-111l104 560h225c130 0 195 -50 195 -151c0 -96 -52 -163 -152 -192l125 -217h-128l-110 195h-112zM361 451h-111l-28 -147h116c77 0 125 33 125 89c0 39 -34 58 -102 58zM187 -98l98 60c19 -19 29 -43 29 -71c0 -36 -12 -69 -36 -99
c-25 -30 -52 -53 -82 -70l-49 48c37 31 55 60 55 85c0 15 -5 30 -15 47z" />
    <glyph glyph-name="uniF698" unicode="&#xf698;" horiz-adv-x="512" 
d="M406 162c0 56 -109 68 -195 97c-60 20 -107 64 -107 131c0 59 24 103 72 132c47 29 105 44 172 44c95 0 172 -32 212 -87l-67 -76c-41 36 -91 54 -152 54c-79 0 -119 -19 -119 -56c0 -45 108 -60 195 -91c59 -21 106 -68 106 -133c0 -120 -98 -183 -243 -183
c-107 0 -188 35 -241 105l72 81c49 -51 111 -77 186 -77c73 0 109 20 109 59zM446 833l73 -64l-149 -157l-64 54z" />
    <glyph glyph-name="uniF699" unicode="&#xf699;" horiz-adv-x="512" 
d="M136 -168l44 59c17 -15 40 -23 71 -23c28 0 42 8 42 24c0 13 -15 20 -44 20h-12l15 83c-93 6 -164 41 -213 104l72 81c49 -51 111 -77 186 -77c73 0 109 20 109 59c0 56 -109 68 -195 97c-60 20 -107 64 -107 131c0 59 24 103 72 132c47 29 105 44 172 44
c95 0 172 -32 212 -87l-67 -76c-41 36 -91 54 -152 54c-79 0 -119 -19 -119 -56c0 -45 108 -60 195 -91c59 -21 106 -68 106 -133c0 -111 -83 -174 -211 -182l-5 -27c56 -4 84 -28 84 -71c0 -60 -54 -104 -146 -104c-46 0 -82 13 -109 39z" />
    <glyph glyph-name="uniF69A" unicode="&#xf69a;" horiz-adv-x="512" 
d="M406 162c0 56 -109 68 -195 97c-60 20 -107 64 -107 131c0 59 24 103 72 132c47 29 105 44 172 44c95 0 172 -32 212 -87l-67 -76c-41 36 -91 54 -152 54c-79 0 -119 -19 -119 -56c0 -45 108 -60 195 -91c59 -21 106 -68 106 -133c0 -120 -98 -183 -243 -183
c-107 0 -188 35 -241 105l72 81c49 -51 111 -77 186 -77c73 0 109 20 109 59zM400 804h4l133 -138l-61 -62l-85 87l-115 -85l-48 68z" />
    <glyph glyph-name="uniF69B" unicode="&#xf69b;" horiz-adv-x="512" 
d="M406 162c0 56 -109 68 -195 97c-60 20 -107 64 -107 131c0 59 24 103 72 132c47 29 105 44 172 44c95 0 172 -32 212 -87l-67 -76c-41 36 -91 54 -152 54c-79 0 -119 -19 -119 -56c0 -45 108 -60 195 -91c59 -21 106 -68 106 -133c0 -120 -98 -183 -243 -183
c-107 0 -188 35 -241 105l72 81c49 -51 111 -77 186 -77c73 0 109 20 109 59zM184 -98l98 60c19 -19 29 -43 29 -71c0 -36 -12 -69 -36 -99c-25 -30 -52 -53 -82 -70l-49 48c37 31 55 60 55 85c0 15 -5 30 -15 47z" />
    <glyph glyph-name="uniF69D" unicode="&#xf69d;" horiz-adv-x="489" 
d="M273 451h-186l20 109h482l-20 -109h-185l-84 -451h-111zM359 609h-4l-133 138l61 62l85 -87l115 85l48 -68z" />
    <glyph glyph-name="uniF69E" unicode="&#xf69e;" horiz-adv-x="489" 
d="M273 451h-186l20 109h482l-20 -109h-185l-84 -451h-111zM168 -98l98 60c19 -19 29 -43 29 -71c0 -36 -12 -69 -36 -99c-25 -30 -52 -53 -82 -70l-49 48c37 31 55 60 55 85c0 15 -5 30 -15 47z" />
    <glyph glyph-name="uniF69F" unicode="&#xf69f;" horiz-adv-x="587" 
d="M550 560h111l-59 -320c-30 -163 -124 -245 -282 -245c-71 0 -126 22 -166 65s-53 105 -39 184l58 316h112l-56 -302c-17 -99 23 -154 111 -154c85 0 138 62 154 151zM295 717l51 55c23 -35 57 -52 103 -52c45 0 84 18 118 53l40 -57c-33 -53 -92 -93 -167 -93
c-64 0 -118 33 -145 94z" />
    <glyph glyph-name="uniF6A0" unicode="&#xf6a0;" horiz-adv-x="587" 
d="M550 560h111l-59 -320c-30 -163 -124 -245 -282 -245c-71 0 -126 22 -166 65s-53 105 -39 184l58 316h112l-56 -302c-17 -99 23 -154 111 -154c85 0 138 62 154 151zM597 826l61 -57l-161 -158l-49 45zM442 833l62 -54l-152 -168l-51 46z" />
    <glyph glyph-name="uniF6A1" unicode="&#xf6a1;" horiz-adv-x="587" 
d="M550 560h111l-59 -320c-30 -163 -124 -245 -282 -245c-71 0 -126 22 -166 65s-53 105 -39 184l58 316h112l-56 -302c-17 -99 23 -154 111 -154c85 0 138 62 154 151zM567 638h-267l18 96h267z" />
    <glyph glyph-name="uniF6A2" unicode="&#xf6a2;" horiz-adv-x="587" 
d="M550 560h111l-59 -320c-21 -122 -81 -199 -180 -230c-50 -29 -75 -58 -75 -85c0 -20 9 -30 28 -30c15 0 29 3 42 9l20 -73c-25 -21 -59 -31 -102 -31c-63 0 -107 28 -107 81c0 45 31 83 92 114c-71 0 -126 22 -166 65s-53 105 -39 184l58 316h112l-56 -302
c-17 -97 24 -154 111 -154c85 0 138 62 154 151z" />
    <glyph glyph-name="uniF6A3" unicode="&#xf6a3;" horiz-adv-x="587" 
d="M550 560h111l-59 -320c-30 -163 -124 -245 -282 -245c-71 0 -126 22 -166 65s-53 105 -39 184l58 316h112l-56 -302c-17 -99 23 -154 111 -154c85 0 138 62 154 151zM329 703c0 79 58 135 135 135c63 0 103 -42 103 -99c0 -77 -59 -133 -135 -133c-64 0 -103 41 -103 97z
M403 713c0 -25 12 -37 37 -37c31 0 53 21 53 56c0 23 -14 36 -37 36c-31 0 -53 -23 -53 -55z" />
    <glyph glyph-name="uniF6AB" unicode="&#xf6ab;" horiz-adv-x="512" 
d="M402 451h-296l20 109h466l-14 -78l-380 -373h318l-20 -109h-487l15 78zM443 833l73 -64l-149 -157l-64 54z" />
    <glyph glyph-name="uniF6AC" unicode="&#xf6ac;" horiz-adv-x="512" 
d="M402 451h-296l20 109h466l-14 -78l-380 -373h318l-20 -109h-487l15 78zM338 653c-24 23 -24 63 0 87c24 23 62 23 86 0c24 -24 24 -64 0 -87c-24 -24 -62 -24 -86 0z" />
    <glyph glyph-name="uniF6AD" unicode="&#xf6ad;" horiz-adv-x="231" 
d="M171 0h-111l103 560h112zM197 653c-24 23 -24 63 0 87c23 23 63 23 87 0c23 -24 23 -64 0 -87c-24 -24 -64 -24 -87 0z" />
    <glyph glyph-name="uniF6BA" unicode="&#xf6ba;" horiz-adv-x="416" 
d="M407 309h-278v101h278v-101z" />
    <glyph glyph-name="uniF6BB" unicode="&#xf6bb;" horiz-adv-x="607" 
d="M582 311h-437v99h437v-99z" />
    <glyph glyph-name="uniF6BC" unicode="&#xf6bc;" horiz-adv-x="796" 
d="M781 311h-626v99h626v-99z" />
    <glyph glyph-name="uniF6C3" unicode="&#xf6c3;" horiz-adv-x="348" 
d="M199 -96l99 58c19 -22 29 -46 29 -72c0 -35 -12 -68 -36 -98c-25 -30 -52 -53 -82 -70l-47 45c35 31 53 60 53 88c0 16 -5 32 -16 49z" />
    <glyph glyph-name="uniF6C9" unicode="&#xf6c9;" horiz-adv-x="543" 
d="M665 949l41 -96l-224 -108l-36 72z" />
    <glyph glyph-name="uniF6CA" unicode="&#xf6ca;" horiz-adv-x="503" 
d="M476 750h-4l-158 110l47 69l122 -79l143 79l37 -72z" />
    <glyph glyph-name="uniF6CB" unicode="&#xf6cb;" horiz-adv-x="487" 
d="M300 784c-24 24 -24 64 0 88s64 24 88 0s24 -64 0 -88s-64 -24 -88 0zM530 784c-24 24 -24 64 0 88s64 24 88 0s24 -64 0 -88s-64 -24 -88 0z" />
    <glyph glyph-name="uniF6CE" unicode="&#xf6ce;" horiz-adv-x="447" 
d="M607 821l-48 -76l-212 104l61 100z" />
    <glyph glyph-name="uniF6CF" unicode="&#xf6cf;" horiz-adv-x="611" 
d="M708 921l59 -76l-194 -106l-38 53zM508 921l62 -63l-170 -119l-43 49z" />
    <glyph glyph-name="uniF6D0" unicode="&#xf6d0;" horiz-adv-x="501" 
d="M645 780h-292l17 95h292z" />
    <glyph glyph-name="uniF6D1" unicode="&#xf6d1;" horiz-adv-x="545" 
d="M334 908h106c6 -39 32 -59 77 -59c46 0 76 20 89 59h108c-17 -93 -89 -158 -204 -158c-111 0 -177 65 -176 158z" />
    <glyph glyph-name="uniF6D4" unicode="&#xf6d4;" horiz-adv-x="457" 
d="M215 741h95c-7 -41 13 -68 57 -68c43 0 70 23 80 68h98c-15 -91 -75 -156 -191 -156c-93 0 -156 57 -139 156z" />
    <glyph glyph-name="uniF6F4" unicode="&#xf6f4;" horiz-adv-x="471" 
d="M300 717l51 55c23 -35 57 -52 103 -52c45 0 84 18 118 53l40 -57c-33 -53 -92 -93 -167 -93c-64 0 -118 33 -145 94z" />
    <glyph glyph-name="uniF6F5" unicode="&#xf6f5;" horiz-adv-x="460" 
d="M425 609h-4l-133 138l61 62l85 -87l115 85l48 -68z" />
    <glyph glyph-name="uniF6F6" unicode="&#xf6f6;" horiz-adv-x="457" 
d="M450 804h4l133 -138l-61 -62l-85 87l-115 -85l-48 68z" />
    <glyph glyph-name="uniF6F7" unicode="&#xf6f7;" horiz-adv-x="376" 
d="M395 653c-24 23 -24 63 0 87c23 23 63 23 87 0c23 -24 23 -64 0 -87c-24 -24 -64 -24 -87 0z" />
    <glyph glyph-name="uniF6F8" unicode="&#xf6f8;" horiz-adv-x="510" 
d="M592 826l61 -57l-161 -158l-49 45zM437 833l62 -54l-152 -168l-51 46z" />
    <glyph glyph-name="uniF6F9" unicode="&#xf6f9;" horiz-adv-x="497" 
d="M90 138l-73 -47l24 130l73 47l54 292h111l-39 -212l172 111l-23 -130l-172 -111l-21 -109h313l-20 -109h-424z" />
    <glyph glyph-name="uniF6FA" unicode="&#xf6fa;" horiz-adv-x="923" 
d="M889 0h-433l5 28c-39 -23 -87 -34 -146 -34c-71 0 -130 23 -175 68s-68 102 -68 173c0 91 32 169 96 234c63 65 144 97 243 97c58 0 105 -13 142 -39l7 33h426l-20 -109h-315l-21 -114h293l-20 -106h-293l-23 -122h322zM336 107c61 0 111 19 151 58l40 223
c-26 43 -68 65 -127 65c-55 0 -104 -19 -146 -56c-43 -38 -64 -87 -64 -146c0 -87 62 -144 146 -144z" />
    <glyph glyph-name="uniF6FB" unicode="&#xf6fb;" horiz-adv-x="373" 
d="M358 -96l20 -73c-25 -21 -59 -31 -102 -31c-61 0 -107 28 -107 81c0 31 12 57 36 79c24 23 51 38 80 48c29 9 59 14 89 15l-4 -23c-19 0 -38 -8 -55 -23c-18 -15 -27 -31 -27 -50c0 -21 10 -32 29 -32c15 0 28 3 41 9z" />
    <glyph glyph-name="uniF6FC" unicode="&#xf6fc;" horiz-adv-x="441" 
d="M337 703c0 79 58 135 135 135c63 0 103 -42 103 -99c0 -77 -59 -133 -135 -133c-64 0 -103 41 -103 97zM411 713c0 -25 12 -37 37 -37c31 0 53 21 53 56c0 23 -14 36 -37 36c-31 0 -53 -23 -53 -55z" />
    <glyph glyph-name="uniF6FD" unicode="&#xf6fd;" horiz-adv-x="512" 
d="M406 162c0 56 -109 68 -195 97c-60 20 -107 64 -107 131c0 59 24 103 72 132c47 29 105 44 172 44c95 0 172 -32 212 -87l-67 -76c-41 36 -91 54 -152 54c-79 0 -119 -19 -119 -56c0 -45 108 -60 195 -91c59 -21 106 -68 106 -133c0 -120 -98 -183 -243 -183
c-107 0 -188 35 -241 105l72 81c49 -51 111 -77 186 -77c73 0 109 20 109 59zM371 609h-4l-133 138l61 62l85 -87l115 85l48 -68z" />
    <glyph glyph-name="uniF6FE" unicode="&#xf6fe;" horiz-adv-x="481" 
d="M314 632l-41 56c31 37 83 68 120 68c21 0 43 -7 66 -22s40 -22 52 -22c22 0 45 10 69 30l35 -60c-39 -43 -78 -64 -119 -64c-21 0 -42 7 -65 22c-23 14 -40 21 -52 21c-18 0 -40 -10 -65 -29z" />
    <glyph glyph-name="uniF6FF" unicode="&#xf6ff;" horiz-adv-x="512" 
d="M402 451h-296l20 109h466l-14 -78l-380 -373h318l-20 -109h-487l15 78zM371 609h-4l-133 138l61 62l85 -87l115 85l48 -68z" />
    </font>
</defs>
</svg>
